<svg width="251" height="173" viewBox="0 0 251 173" fill="none" xmlns="http://www.w3.org/2000/svg">
<g clip-path="url(#clip0_3400_28634)">
<path d="M159.66 94.76C159.564 83.2787 150.051 73.9985 138.326 73.9985C135.501 73.9985 132.805 74.542 130.337 75.5213C126.148 67.1125 117.344 61.3135 107.158 61.3135C94.8423 61.3135 84.5459 69.7896 81.9867 81.1181C70.4038 81.8503 61.2383 91.2922 61.2383 102.845C61.2383 114.398 71.173 124.622 83.4334 124.622H154.057C162.746 124.622 169.792 117.709 169.792 109.183C169.792 102.594 165.585 96.9745 159.66 94.76Z" fill="white"/>
<mask id="mask0_3400_28634" style="mask-type:luminance" maskUnits="userSpaceOnUse" x="61" y="61" width="109" height="64">
<path d="M159.66 94.76C159.564 83.2787 150.051 73.9985 138.326 73.9985C135.501 73.9985 132.805 74.542 130.337 75.5213C126.148 67.1125 117.344 61.3135 107.158 61.3135C94.8423 61.3135 84.5459 69.7896 81.9867 81.1181C70.4038 81.8503 61.2383 91.2922 61.2383 102.845C61.2383 114.398 71.173 124.622 83.4334 124.622H154.057C162.746 124.622 169.792 117.709 169.792 109.183C169.792 102.594 165.585 96.9745 159.66 94.76Z" fill="white"/>
</mask>
<g mask="url(#mask0_3400_28634)">
<path opacity="0.1" d="M176.815 94.76C176.719 83.2787 167.205 73.9985 155.48 73.9985C152.656 73.9985 149.959 74.542 147.491 75.5213C143.302 67.1125 134.498 61.3135 124.312 61.3135C111.997 61.3135 101.7 69.7896 99.141 81.1181C87.5581 81.8503 78.3926 91.2922 78.3926 102.845C78.3926 114.398 88.3273 124.622 100.588 124.622H171.211C179.901 124.622 186.946 117.709 186.946 109.183C186.946 102.594 182.739 96.9745 176.815 94.76Z" fill="black"/>
</g>
<path d="M154.061 124.964H83.4379C71.0081 124.964 60.8994 115.041 60.8994 102.85C60.8994 91.3106 70.0238 81.6755 81.7165 80.8041C83.0213 75.297 86.2031 70.2976 90.7035 66.7131C95.3367 63.0163 101.183 60.9814 107.167 60.9814C117.124 60.9814 126.038 66.3807 130.511 75.0949C133.011 74.1471 135.639 73.662 138.331 73.662C150.11 73.662 159.784 83.0006 160.008 94.5268C166.079 96.8985 170.14 102.76 170.14 109.184C170.14 117.884 162.929 124.959 154.061 124.959V124.964ZM107.162 61.6552C95.3321 61.6552 84.8892 69.8709 82.33 81.1949C82.2979 81.3431 82.1697 81.4509 82.0141 81.4599C70.5594 82.1831 61.5861 91.5756 61.5861 102.846C61.5861 114.664 71.3881 124.281 83.4333 124.281H154.057C162.54 124.281 169.444 117.507 169.444 109.184C169.444 102.962 165.461 97.2937 159.537 95.0748C159.404 95.0254 159.317 94.8996 159.312 94.7603C159.216 83.4992 149.799 74.3358 138.321 74.3358C135.611 74.3358 132.969 74.8389 130.465 75.8316C130.3 75.899 130.104 75.8271 130.026 75.6654C125.718 67.0185 116.955 61.6507 107.158 61.6507L107.162 61.6552Z" fill="#69C0FF"/>
<path d="M30.0921 28.3752C30.0692 25.6487 27.8121 23.4476 25.0286 23.4476C24.3556 23.4476 23.7192 23.5779 23.1332 23.807C22.1397 21.8081 20.0475 20.4336 17.6302 20.4336C14.7047 20.4336 12.2645 22.446 11.6556 25.1366C8.90414 25.3118 6.72949 27.5532 6.72949 30.2933C6.72949 33.0333 9.08727 35.4634 11.999 35.4634H28.7644C30.8292 35.4634 32.5002 33.8239 32.5002 31.798C32.5002 30.2349 31.5021 28.9008 30.0966 28.3752H30.0921Z" fill="#69C0FF"/>
<path d="M209.553 36.2086C209.594 31.4292 213.554 27.5617 218.439 27.5617C219.616 27.5617 220.738 27.7863 221.768 28.1951C223.512 24.6914 227.179 22.2793 231.419 22.2793C236.546 22.2793 240.836 25.8099 241.898 30.5264C246.724 30.8318 250.537 34.7622 250.537 39.573C250.537 44.3838 246.399 48.6421 241.294 48.6421H211.883C208.267 48.6421 205.332 45.7628 205.332 42.2142C205.332 39.4697 207.085 37.1294 209.549 36.2086H209.553Z" stroke="#69C0FF" stroke-width="2" stroke-miterlimit="10"/>
<path d="M125.428 0H105.609C105.339 0 105.064 0.152724 105.064 0.422236V6.00563H106.067V1.37451C106.067 1.09602 106.296 0.866931 106.584 0.866931H124.613C124.897 0.866931 125.131 1.09153 125.131 1.37451V8.02249H125.969V0.422236C125.969 0.157216 125.703 0 125.433 0H125.428ZM122.544 12.4829H109.826V14.3021H113.012L113.017 15.5419H111.996C111.749 15.5419 111.547 15.726 111.547 15.9686C111.547 16.2112 111.749 16.3998 111.996 16.3998H119.284C119.532 16.3998 119.733 16.2157 119.733 15.9686C119.733 15.7216 119.532 15.5419 119.284 15.5419H118.231L118.222 14.3021H122.544V12.4829Z" fill="#69C0FF"/>
<path d="M110.371 17.6084H92.4564C92.3705 17.6084 92.3008 17.6768 92.3008 17.7611V18.3451C92.3008 18.4294 92.3705 18.4978 92.4564 18.4978H110.371C110.457 18.4978 110.527 18.4294 110.527 18.3451V17.7611C110.527 17.6768 110.457 17.6084 110.371 17.6084Z" fill="#69C0FF"/>
<path d="M128.139 8.55273H123.877C123.469 8.55273 123.14 8.87615 123.14 9.27593V17.7701C123.14 18.1698 123.469 18.4932 123.877 18.4932H128.139C128.547 18.4932 128.876 18.1698 128.876 17.7701V9.27593C128.876 8.87615 128.547 8.55273 128.139 8.55273ZM128.455 17.9947C128.455 18.089 128.377 18.1609 128.276 18.1609H123.703C123.602 18.1609 123.524 18.0845 123.524 17.9947V9.10523C123.524 9.01091 123.602 8.93903 123.703 8.93903H124.843C124.889 8.93903 124.925 8.97497 124.925 9.01989V9.18609C124.925 9.23101 124.962 9.26694 125.008 9.26694H126.94C126.985 9.26694 127.022 9.23101 127.022 9.18609V9.01989C127.022 8.97497 127.059 8.93903 127.104 8.93903H128.267C128.368 8.93903 128.446 9.0154 128.446 9.10523V17.9947H128.455Z" fill="#69C0FF"/>
<path d="M108.883 6.51758H94.0495C93.8481 6.51758 93.6787 6.65233 93.6787 6.84998V16.8938C93.6787 17.0914 93.8435 17.2756 94.0495 17.2756H108.883C109.084 17.2756 109.217 17.0914 109.217 16.8938V6.84998C109.217 6.64784 109.084 6.51758 108.883 6.51758ZM108.338 16.0403C108.338 16.2605 108.288 16.3458 108.082 16.3458H94.9102C94.6997 16.3458 94.425 16.256 94.425 16.0403V7.69894C94.425 7.47884 94.6997 7.29467 94.9102 7.29467H108.082C108.292 7.29467 108.338 7.47884 108.338 7.69894V16.0403Z" fill="#69C0FF"/>
<path d="M0 41.631C0.210597 41.5861 0.540228 41.5547 0.874437 41.5547C1.35057 41.5547 1.66189 41.6355 1.8908 41.8197C2.08308 41.959 2.19754 42.1746 2.19754 42.462C2.19754 42.8124 1.95947 43.1179 1.57032 43.2616V43.2706C1.92285 43.3559 2.33488 43.6434 2.33488 44.1824C2.33488 44.4969 2.20669 44.7304 2.02357 44.9101C1.76719 45.1437 1.34599 45.2515 0.746247 45.2515C0.416616 45.2515 0.164815 45.229 0.0045782 45.2066V41.6355L0 41.631ZM0.476133 43.1179H0.911062C1.41466 43.1179 1.71225 42.8573 1.71225 42.507C1.71225 42.0802 1.38262 41.914 0.901906 41.914C0.682152 41.914 0.553963 41.932 0.480711 41.9455V43.1134L0.476133 43.1179ZM0.476133 44.8562C0.567697 44.8742 0.705043 44.8787 0.879015 44.8787C1.37346 44.8787 1.8267 44.699 1.8267 44.1734C1.8267 43.6793 1.39177 43.4727 0.869859 43.4727H0.476133V44.8562Z" fill="black"/>
<path d="M5.18698 44.501C5.18698 44.7706 5.19156 45.0086 5.20987 45.2108H4.77952L4.75205 44.784H4.7429C4.61471 44.9951 4.33544 45.2691 3.86388 45.2691C3.44727 45.2691 2.94824 45.0446 2.94824 44.1282V42.6055H3.43353V44.0474C3.43353 44.5415 3.58919 44.8784 4.0287 44.8784C4.35375 44.8784 4.57808 44.6583 4.66507 44.4471C4.69254 44.3753 4.71085 44.2899 4.71085 44.2046V42.6055H5.19614V44.501H5.18698Z" fill="black"/>
<path d="M5.92439 44.7264C6.06632 44.8162 6.31812 44.9151 6.56076 44.9151C6.91328 44.9151 7.0781 44.7444 7.0781 44.5288C7.0781 44.3042 6.94075 44.1784 6.58365 44.0481C6.10752 43.8819 5.87861 43.6214 5.87861 43.3115C5.87861 42.8892 6.22655 42.5479 6.79425 42.5479C7.06437 42.5479 7.29785 42.6242 7.44893 42.7096L7.3299 43.0554C7.2246 42.9925 7.03232 42.9027 6.78509 42.9027C6.50125 42.9027 6.34101 43.0644 6.34101 43.2576C6.34101 43.4732 6.50125 43.572 6.84461 43.6978C7.30701 43.8685 7.5405 44.0975 7.5405 44.4838C7.5405 44.942 7.17882 45.2654 6.54703 45.2654C6.25402 45.2654 5.98849 45.1936 5.80078 45.0858L5.91981 44.7264H5.92439Z" fill="black"/>
<path d="M8.70326 41.8736C8.70784 42.0353 8.5888 42.1656 8.39652 42.1656C8.22713 42.1656 8.10352 42.0353 8.10352 41.8736C8.10352 41.7119 8.23171 41.5771 8.40568 41.5771C8.57965 41.5771 8.70326 41.7074 8.70326 41.8736ZM8.16303 45.2111V42.6058H8.64832V45.2111H8.16303Z" fill="black"/>
<path d="M9.44965 43.3115C9.44965 43.042 9.44507 42.8219 9.42676 42.6062H9.85711L9.88458 43.0375H9.89373C10.0265 42.7904 10.3332 42.5479 10.7727 42.5479C11.139 42.5479 11.7113 42.7635 11.7113 43.6573V45.216H11.226V43.7112C11.226 43.289 11.0658 42.9386 10.6125 42.9386C10.292 42.9386 10.0448 43.1587 9.96241 43.4238C9.93952 43.4822 9.93036 43.563 9.93036 43.6439V45.2115H9.44507V43.3115H9.44965Z" fill="black"/>
<path d="M12.7684 43.9938C12.7775 44.6362 13.1987 44.8967 13.6794 44.8967C14.0274 44.8967 14.2334 44.8383 14.4165 44.762L14.4989 45.1033C14.3295 45.1797 14.0365 45.265 13.6153 45.265C12.7958 45.265 12.3105 44.735 12.3105 43.9489C12.3105 43.1628 12.7821 42.543 13.5558 42.543C14.4257 42.543 14.6546 43.2931 14.6546 43.7693C14.6546 43.8681 14.6454 43.9399 14.6363 43.9894H12.7684V43.9938ZM14.183 43.657C14.1876 43.356 14.0548 42.8844 13.5146 42.8844C13.0247 42.8844 12.8096 43.3246 12.7729 43.657H14.183Z" fill="black"/>
<path d="M15.1861 44.7264C15.328 44.8162 15.5798 44.9151 15.8225 44.9151C16.175 44.9151 16.3398 44.7444 16.3398 44.5288C16.3398 44.3042 16.2025 44.1784 15.8454 44.0481C15.3692 43.8819 15.1403 43.6214 15.1403 43.3115C15.1403 42.8892 15.4883 42.5479 16.056 42.5479C16.3261 42.5479 16.5596 42.6242 16.7107 42.7096L16.5916 43.0554C16.4863 42.9925 16.294 42.9027 16.0468 42.9027C15.763 42.9027 15.6027 43.0644 15.6027 43.2576C15.6027 43.4732 15.763 43.572 16.1063 43.6978C16.5687 43.8685 16.8022 44.0975 16.8022 44.4838C16.8022 44.942 16.4405 45.2654 15.8087 45.2654C15.5157 45.2654 15.2502 45.1936 15.0625 45.0858L15.1815 44.7264H15.1861Z" fill="black"/>
<path d="M17.3609 44.7264C17.5028 44.8162 17.7546 44.9151 17.9973 44.9151C18.3498 44.9151 18.5146 44.7444 18.5146 44.5288C18.5146 44.3042 18.3773 44.1784 18.0202 44.0481C17.544 43.8819 17.3151 43.6214 17.3151 43.3115C17.3151 42.8892 17.6631 42.5479 18.2308 42.5479C18.5009 42.5479 18.7344 42.6242 18.8855 42.7096L18.7664 43.0554C18.6611 42.9925 18.4688 42.9027 18.2216 42.9027C17.9378 42.9027 17.7775 43.0644 17.7775 43.2576C17.7775 43.4732 17.9378 43.572 18.2811 43.6978C18.7435 43.8685 18.977 44.0975 18.977 44.4838C18.977 44.942 18.6153 45.2654 17.9836 45.2654C17.6905 45.2654 17.425 45.1936 17.2373 45.0858L17.3563 44.7264H17.3609Z" fill="black"/>
<path d="M20.767 43.4548C20.767 43.1224 20.7579 42.8529 20.7441 42.6014H21.1791L21.202 43.0505H21.2111C21.408 42.7316 21.7239 42.543 22.1542 42.543C22.7952 42.543 23.2805 43.0775 23.2805 43.8681C23.2805 44.8069 22.699 45.2695 22.0718 45.2695C21.7193 45.2695 21.4126 45.1168 21.2523 44.8608H21.2432V46.2757H20.767V43.4548ZM21.2432 44.1511C21.2432 44.2229 21.2523 44.2858 21.2661 44.3442C21.353 44.6721 21.646 44.9012 21.9894 44.9012C22.5022 44.9012 22.7952 44.4924 22.7952 43.895C22.7952 43.374 22.5159 42.9248 22.0031 42.9248C21.6735 42.9248 21.3668 43.1584 21.2706 43.5132C21.2523 43.5716 21.2386 43.6435 21.2386 43.7064V44.1556L21.2432 44.1511Z" fill="black"/>
<path d="M25.3631 45.2108L25.3265 44.8828H25.3082C25.1617 45.0895 24.8733 45.2691 24.4978 45.2691C23.9576 45.2691 23.6875 44.8963 23.6875 44.519C23.6875 43.8901 24.2598 43.5443 25.2853 43.5488V43.4949C25.2853 43.2792 25.2258 42.8929 24.681 42.8929C24.4337 42.8929 24.1774 42.9693 23.9897 43.0861L23.8798 42.7717C24.0995 42.6324 24.42 42.5381 24.7542 42.5381C25.5646 42.5381 25.766 43.0816 25.766 43.6027V44.5774C25.766 44.802 25.7752 45.0266 25.8118 45.2018H25.3723L25.3631 45.2108ZM25.2944 43.8812C24.768 43.8722 24.1682 43.962 24.1682 44.4696C24.1682 44.775 24.3788 44.9233 24.626 44.9233C24.974 44.9233 25.1937 44.7077 25.267 44.4876C25.2853 44.4381 25.2944 44.3842 25.2944 44.3348V43.8812Z" fill="black"/>
<path d="M26.5395 43.4193C26.5395 43.1138 26.5349 42.8488 26.5166 42.6062H26.9378L26.9561 43.1183H26.979C27.098 42.768 27.391 42.5479 27.7161 42.5479C27.771 42.5479 27.8077 42.5523 27.8534 42.5658V43.015C27.8031 43.006 27.7527 42.997 27.6886 42.997C27.3498 42.997 27.1072 43.2486 27.0385 43.6079C27.0294 43.6708 27.0156 43.7472 27.0156 43.828V45.216H26.5395V43.4238V43.4193Z" fill="black"/>
<path d="M29.0483 41.8555V42.6056H29.7396V42.965H29.0483V44.3709C29.0483 44.6943 29.1399 44.8785 29.41 44.8785C29.5382 44.8785 29.6298 44.8605 29.6893 44.8471L29.7122 45.2019C29.6206 45.2378 29.4695 45.2648 29.2818 45.2648C29.0575 45.2648 28.8744 45.1929 28.7599 45.0672C28.6226 44.9279 28.5722 44.6943 28.5722 44.3889V42.965H28.1602V42.6056H28.5722V41.9812L29.0437 41.8555H29.0483Z" fill="black"/>
<path d="M30.2846 43.3115C30.2846 43.042 30.28 42.8219 30.2617 42.6062H30.6921L30.7195 43.0375H30.7287C30.8615 42.7904 31.1682 42.5479 31.6077 42.5479C31.974 42.5479 32.5462 42.7635 32.5462 43.6573V45.216H32.061V43.7112C32.061 43.289 31.9007 42.9386 31.4475 42.9386C31.127 42.9386 30.8798 43.1587 30.7974 43.4238C30.7745 43.4822 30.7653 43.563 30.7653 43.6439V45.2115H30.28V43.3115H30.2846Z" fill="black"/>
<path d="M33.6043 43.9938C33.6135 44.6362 34.0347 44.8967 34.5154 44.8967C34.8633 44.8967 35.0693 44.8383 35.2525 44.762L35.3349 45.1033C35.1655 45.1797 34.8725 45.265 34.4513 45.265C33.6318 45.265 33.1465 44.735 33.1465 43.9489C33.1465 43.1628 33.618 42.543 34.3918 42.543C35.2616 42.543 35.4905 43.2931 35.4905 43.7693C35.4905 43.8681 35.4814 43.9399 35.4722 43.9894H33.6043V43.9938ZM35.0235 43.657C35.0281 43.356 34.8954 42.8844 34.3551 42.8844C33.8653 42.8844 33.6501 43.3246 33.6135 43.657H35.0235Z" fill="black"/>
<path d="M36.0903 43.4193C36.0903 43.1138 36.0857 42.8488 36.0674 42.6062H36.4886L36.5069 43.1183H36.5298C36.6488 42.768 36.9418 42.5479 37.2669 42.5479C37.3218 42.5479 37.3584 42.5523 37.4042 42.5658V43.015C37.3539 43.006 37.3035 42.997 37.2394 42.997C36.9006 42.997 36.658 43.2486 36.5893 43.6079C36.5801 43.6708 36.5664 43.7472 36.5664 43.828V45.216H36.0903V43.4238V43.4193Z" fill="black"/>
<path d="M37.8209 44.7264C37.9628 44.8162 38.2146 44.9151 38.4572 44.9151C38.8098 44.9151 38.9746 44.7444 38.9746 44.5288C38.9746 44.3042 38.8372 44.1784 38.4801 44.0481C38.004 43.8819 37.7751 43.6214 37.7751 43.3115C37.7751 42.8892 38.123 42.5479 38.6907 42.5479C38.9609 42.5479 39.1943 42.6242 39.3454 42.7096L39.2264 43.0554C39.1211 42.9925 38.9288 42.9027 38.6816 42.9027C38.3977 42.9027 38.2375 43.0644 38.2375 43.2576C38.2375 43.4732 38.3977 43.572 38.7411 43.6978C39.2035 43.8685 39.437 44.0975 39.437 44.4838C39.437 44.942 39.0753 45.2654 38.4435 45.2654C38.1505 45.2654 37.885 45.1936 37.6973 45.0858L37.8163 44.7264H37.8209Z" fill="black"/>
<path d="M103.87 21.3674C104.163 21.3225 104.506 21.291 104.886 21.291C105.573 21.291 106.063 21.4482 106.384 21.7447C106.713 22.0412 106.905 22.4589 106.905 23.0473C106.905 23.6358 106.718 24.1254 106.374 24.4578C106.026 24.7992 105.459 24.9788 104.74 24.9788C104.401 24.9788 104.113 24.9609 103.875 24.9339V21.3629L103.87 21.3674ZM104.346 24.5791C104.465 24.6015 104.644 24.606 104.832 24.606C105.852 24.606 106.406 24.0445 106.406 23.0653C106.411 22.2074 105.917 21.6638 104.909 21.6638C104.662 21.6638 104.474 21.6863 104.351 21.7133V24.5791H104.346Z" fill="black"/>
<path d="M107.803 23.7302C107.812 24.3725 108.228 24.633 108.714 24.633C109.062 24.633 109.268 24.5746 109.451 24.4983L109.533 24.8397C109.364 24.916 109.071 25.0014 108.65 25.0014C107.83 25.0014 107.345 24.4713 107.345 23.6853C107.345 22.8992 107.816 22.2793 108.59 22.2793C109.455 22.2793 109.689 23.0294 109.689 23.5056C109.689 23.6044 109.68 23.6763 109.67 23.7257H107.803V23.7302ZM109.217 23.3933C109.222 23.0923 109.089 22.6207 108.549 22.6207C108.059 22.6207 107.844 23.0609 107.807 23.3933H109.217Z" fill="black"/>
<path d="M110.471 22.3418L110.993 23.8061C111.08 24.0442 111.154 24.2598 111.209 24.4754H111.227C111.286 24.2598 111.364 24.0442 111.451 23.8061L111.969 22.3418H112.472L111.428 24.9471H110.966L109.954 22.3418H110.471Z" fill="black"/>
<path d="M113.466 21.6099C113.471 21.7716 113.352 21.9019 113.159 21.9019C112.99 21.9019 112.866 21.7716 112.866 21.6099C112.866 21.4482 112.994 21.3135 113.168 21.3135C113.342 21.3135 113.466 21.4437 113.466 21.6099ZM112.93 24.9474V22.3421H113.416V24.9474H112.93Z" fill="black"/>
<path d="M116.107 24.8533C115.979 24.9162 115.7 25.0061 115.343 25.0061C114.541 25.0061 114.02 24.4715 114.02 23.6765C114.02 22.8814 114.578 22.293 115.448 22.293C115.732 22.293 115.984 22.3648 116.116 22.4277L116.006 22.7961C115.892 22.7332 115.709 22.6703 115.448 22.6703C114.839 22.6703 114.509 23.1105 114.509 23.654C114.509 24.2559 114.903 24.6287 115.434 24.6287C115.709 24.6287 115.892 24.5569 116.025 24.4985L116.107 24.8533Z" fill="black"/>
<path d="M116.914 23.7302C116.923 24.3725 117.34 24.633 117.825 24.633C118.173 24.633 118.379 24.5746 118.562 24.4983L118.644 24.8397C118.475 24.916 118.182 25.0014 117.761 25.0014C116.941 25.0014 116.456 24.4713 116.456 23.6853C116.456 22.8992 116.928 22.2793 117.701 22.2793C118.567 22.2793 118.8 23.0294 118.8 23.5056C118.8 23.6044 118.791 23.6763 118.782 23.7257H116.914V23.7302ZM118.329 23.3933C118.333 23.0923 118.2 22.6207 117.66 22.6207C117.17 22.6207 116.955 23.0609 116.918 23.3933H118.329Z" fill="black"/>
<path d="M119.331 24.4666C119.473 24.5565 119.724 24.6553 119.967 24.6553C120.32 24.6553 120.484 24.4846 120.484 24.269C120.484 24.0444 120.347 23.9186 119.99 23.7884C119.514 23.6222 119.285 23.3616 119.285 23.0517C119.285 22.6295 119.633 22.2881 120.2 22.2881C120.471 22.2881 120.704 22.3644 120.855 22.4498L120.736 22.7957C120.631 22.7328 120.439 22.6429 120.191 22.6429C119.907 22.6429 119.747 22.8047 119.747 22.9978C119.747 23.2134 119.907 23.3122 120.251 23.438C120.713 23.6087 120.947 23.8378 120.947 24.2241C120.947 24.6823 120.585 25.0057 119.953 25.0057C119.665 25.0057 119.395 24.9338 119.207 24.826L119.326 24.4666H119.331Z" fill="black"/>
<path d="M207.035 53.4527C207.264 53.4168 207.566 53.3809 207.951 53.3809C208.422 53.3809 208.77 53.4887 208.99 53.6818C209.191 53.8525 209.315 54.1175 209.315 54.4409C209.315 54.7644 209.214 55.0294 209.031 55.218C208.779 55.4831 208.367 55.6178 207.9 55.6178C207.759 55.6178 207.626 55.6133 207.516 55.5864V57.0417H207.04V53.4527H207.035ZM207.516 55.2046C207.621 55.2315 207.754 55.2405 207.91 55.2405C208.486 55.2405 208.839 54.9665 208.839 54.4634C208.839 53.9603 208.491 53.7537 207.965 53.7537C207.754 53.7537 207.598 53.7717 207.516 53.7896V55.2001V55.2046Z" fill="black"/>
<path d="M212.084 56.3321C212.084 56.6016 212.089 56.8397 212.107 57.0418H211.677L211.65 56.6151H211.64C211.512 56.8262 211.233 57.1002 210.761 57.1002C210.345 57.1002 209.846 56.8756 209.846 55.9593V54.4365H210.331V55.8784C210.331 56.3725 210.487 56.7094 210.926 56.7094C211.251 56.7094 211.476 56.4893 211.563 56.2782C211.59 56.2063 211.608 56.121 211.608 56.0356V54.4365H212.094V56.3321H212.084Z" fill="black"/>
<path d="M212.863 57.0419C212.872 56.8622 212.886 56.6017 212.886 56.3681V53.2148H213.362V54.8544H213.371C213.541 54.5624 213.848 54.3737 214.278 54.3737C214.937 54.3737 215.404 54.9128 215.4 55.7033C215.4 56.6332 214.8 57.1003 214.209 57.1003C213.825 57.1003 213.518 56.9566 213.321 56.6107H213.303L213.28 57.0419H212.863ZM213.367 55.9953C213.367 56.0537 213.376 56.1121 213.39 56.166C213.481 56.4939 213.765 56.723 214.113 56.723C214.617 56.723 214.919 56.3187 214.919 55.7213C214.919 55.2003 214.644 54.7511 214.127 54.7511C213.797 54.7511 213.49 54.9712 213.39 55.335C213.381 55.3889 213.362 55.4518 213.362 55.5282V55.9953H213.367Z" fill="black"/>
<path d="M216.013 53.2148H216.498V57.0419H216.013V53.2148Z" fill="black"/>
<path d="M217.849 53.6998C217.853 53.8615 217.734 53.9918 217.542 53.9918C217.373 53.9918 217.249 53.8615 217.249 53.6998C217.249 53.5381 217.377 53.4033 217.551 53.4033C217.725 53.4033 217.849 53.5336 217.849 53.6998ZM217.309 57.0417V54.4365H217.794V57.0417H217.309Z" fill="black"/>
<path d="M220.49 56.9432C220.362 57.0061 220.083 57.0959 219.725 57.0959C218.924 57.0959 218.402 56.5614 218.402 55.7663C218.402 54.9712 218.961 54.3828 219.831 54.3828C220.115 54.3828 220.371 54.4547 220.499 54.5176L220.389 54.8859C220.275 54.823 220.092 54.7601 219.831 54.7601C219.222 54.7601 218.892 55.2003 218.892 55.7438C218.892 56.3458 219.286 56.7186 219.817 56.7186C220.092 56.7186 220.275 56.6467 220.412 56.5883L220.495 56.9432H220.49Z" fill="black"/>
<path d="M224.116 56.9432C223.988 57.0061 223.709 57.0959 223.351 57.0959C222.55 57.0959 222.028 56.5614 222.028 55.7663C222.028 54.9712 222.587 54.3828 223.457 54.3828C223.741 54.3828 223.997 54.4547 224.125 54.5176L224.015 54.8859C223.901 54.823 223.718 54.7601 223.457 54.7601C222.848 54.7601 222.518 55.2003 222.518 55.7438C222.518 56.3458 222.912 56.7186 223.443 56.7186C223.718 56.7186 223.901 56.6467 224.038 56.5883L224.121 56.9432H224.116Z" fill="black"/>
<path d="M224.685 53.2148H225.17V57.0419H224.685V53.2148Z" fill="black"/>
<path d="M228.383 55.7171C228.383 56.6828 227.701 57.1006 227.06 57.1006C226.341 57.1006 225.787 56.584 225.787 55.7575C225.787 54.8861 226.369 54.374 227.106 54.374C227.843 54.374 228.383 54.9175 228.383 55.7171ZM226.277 55.744C226.277 56.3145 226.611 56.7457 227.083 56.7457C227.554 56.7457 227.889 56.319 227.889 55.7351C227.889 55.2949 227.664 54.7334 227.092 54.7334C226.52 54.7334 226.272 55.2499 226.272 55.744H226.277Z" fill="black"/>
<path d="M231.217 56.3321C231.217 56.6016 231.222 56.8397 231.24 57.0418H230.81L230.782 56.6151H230.773C230.645 56.8262 230.366 57.1002 229.894 57.1002C229.478 57.1002 228.979 56.8756 228.979 55.9593V54.4365H229.464V55.8784C229.464 56.3725 229.619 56.7094 230.059 56.7094C230.384 56.7094 230.608 56.4893 230.695 56.2782C230.723 56.2063 230.741 56.121 230.741 56.0356V54.4365H231.226V56.3321H231.217Z" fill="black"/>
<path d="M234.317 53.2148V56.3681C234.317 56.6017 234.322 56.8622 234.34 57.0419H233.905L233.882 56.5882H233.873C233.726 56.8802 233.401 57.1003 232.966 57.1003C232.326 57.1003 231.831 56.5658 231.831 55.7752C231.827 54.9083 232.376 54.3737 233.021 54.3737C233.429 54.3737 233.704 54.5624 233.823 54.7735H233.832V53.2148H234.317ZM233.836 55.4967C233.836 55.4383 233.832 55.3575 233.813 55.2991C233.74 54.9981 233.479 54.7511 233.118 54.7511C232.619 54.7511 232.321 55.1823 232.321 55.7572C232.321 56.2873 232.586 56.723 233.108 56.723C233.433 56.723 233.726 56.5119 233.818 56.157C233.836 56.0941 233.841 56.0268 233.841 55.9504V55.4967H233.836Z" fill="black"/>
<path d="M226.57 137.195V155.082L240.181 152.562L226.57 137.195Z" fill="#007AFF"/>
<path d="M226.571 137.195V155.082L212.96 152.562L226.571 137.195Z" fill="#69C0FF"/>
<path d="M211.097 163.271L210.712 164.412H210.218L211.477 160.782H212.054L213.317 164.412H212.804L212.411 163.271H211.097ZM212.31 162.902L211.948 161.856C211.866 161.618 211.811 161.402 211.756 161.191H211.747C211.692 161.407 211.632 161.627 211.559 161.847L211.198 162.898H212.31V162.902Z" fill="black"/>
<path d="M215.675 164.317C215.546 164.38 215.267 164.47 214.91 164.47C214.109 164.47 213.587 163.935 213.587 163.14C213.587 162.345 214.145 161.757 215.015 161.757C215.299 161.757 215.556 161.829 215.684 161.892L215.574 162.26C215.459 162.197 215.276 162.134 215.015 162.134C214.406 162.134 214.077 162.574 214.077 163.118C214.077 163.72 214.471 164.093 215.002 164.093C215.276 164.093 215.459 164.021 215.597 163.962L215.679 164.317H215.675Z" fill="black"/>
<path d="M216.893 161.056V161.806H217.584V162.165H216.893V163.571C216.893 163.895 216.985 164.079 217.255 164.079C217.383 164.079 217.474 164.061 217.534 164.047L217.557 164.402C217.465 164.438 217.314 164.465 217.127 164.465C216.902 164.465 216.719 164.393 216.605 164.267C216.467 164.128 216.417 163.895 216.417 163.589V162.165H216.005V161.806H216.417V161.181L216.888 161.056H216.893Z" fill="black"/>
<path d="M218.669 161.074C218.674 161.236 218.555 161.366 218.362 161.366C218.193 161.366 218.069 161.236 218.069 161.074C218.069 160.912 218.198 160.777 218.371 160.777C218.545 160.777 218.669 160.908 218.669 161.074ZM218.129 164.411V161.806H218.614V164.411H218.129Z" fill="black"/>
<path d="M219.603 161.806L220.125 163.27C220.212 163.508 220.285 163.724 220.34 163.939H220.359C220.418 163.724 220.496 163.508 220.583 163.27L221.1 161.806H221.604L220.56 164.411H220.098L219.086 161.806H219.603Z" fill="black"/>
<path d="M222.272 163.194C222.281 163.836 222.703 164.097 223.183 164.097C223.531 164.097 223.737 164.039 223.92 163.962L224.003 164.304C223.833 164.38 223.54 164.465 223.119 164.465C222.3 164.465 221.814 163.935 221.814 163.149C221.814 162.363 222.286 161.743 223.06 161.743C223.93 161.743 224.158 162.493 224.158 162.969C224.158 163.068 224.149 163.14 224.14 163.19H222.272V163.194ZM223.692 162.857C223.696 162.556 223.563 162.085 223.023 162.085C222.533 162.085 222.318 162.525 222.281 162.857H223.692Z" fill="black"/>
<path d="M225.939 160.831C226.232 160.786 226.576 160.755 226.956 160.755C227.643 160.755 228.132 160.912 228.453 161.209C228.783 161.505 228.975 161.923 228.975 162.511C228.975 163.1 228.787 163.589 228.444 163.922C228.096 164.263 227.528 164.443 226.809 164.443C226.471 164.443 226.182 164.425 225.939 164.398V160.827V160.831ZM226.416 164.038C226.535 164.061 226.713 164.065 226.901 164.065C227.922 164.065 228.476 163.504 228.476 162.525C228.48 161.667 227.986 161.123 226.979 161.123C226.731 161.123 226.544 161.146 226.42 161.173V164.038H226.416Z" fill="black"/>
<path d="M230.119 161.074C230.124 161.236 230.005 161.366 229.813 161.366C229.643 161.366 229.52 161.236 229.52 161.074C229.52 160.912 229.648 160.777 229.822 160.777C229.996 160.777 230.119 160.908 230.119 161.074ZM229.579 164.411V161.806H230.064V164.411H229.579Z" fill="black"/>
<path d="M230.866 162.619C230.866 162.314 230.861 162.049 230.843 161.806H231.264L231.282 162.319H231.305C231.424 161.968 231.717 161.748 232.042 161.748C232.097 161.748 232.134 161.753 232.18 161.766V162.215C232.129 162.206 232.079 162.197 232.015 162.197C231.676 162.197 231.433 162.449 231.365 162.808C231.356 162.871 231.342 162.947 231.342 163.028V164.416H230.866V162.624V162.619Z" fill="black"/>
<path d="M232.876 163.194C232.885 163.836 233.306 164.097 233.787 164.097C234.135 164.097 234.341 164.039 234.524 163.962L234.606 164.304C234.437 164.38 234.144 164.465 233.723 164.465C232.903 164.465 232.418 163.935 232.418 163.149C232.418 162.363 232.89 161.743 233.663 161.743C234.533 161.743 234.762 162.493 234.762 162.969C234.762 163.068 234.753 163.14 234.744 163.19H232.876V163.194ZM234.295 162.857C234.3 162.556 234.167 162.085 233.627 162.085C233.137 162.085 232.922 162.525 232.885 162.857H234.295Z" fill="black"/>
<path d="M237.252 164.317C237.124 164.38 236.844 164.47 236.487 164.47C235.686 164.47 235.164 163.935 235.164 163.14C235.164 162.345 235.723 161.757 236.592 161.757C236.876 161.757 237.133 161.829 237.261 161.892L237.151 162.26C237.037 162.197 236.853 162.134 236.592 162.134C235.984 162.134 235.654 162.574 235.654 163.118C235.654 163.72 236.048 164.093 236.579 164.093C236.853 164.093 237.037 164.021 237.174 163.962L237.256 164.317H237.252Z" fill="black"/>
<path d="M238.474 161.056V161.806H239.165V162.165H238.474V163.571C238.474 163.895 238.566 164.079 238.836 164.079C238.964 164.079 239.056 164.061 239.115 164.047L239.138 164.402C239.046 164.438 238.895 164.465 238.708 164.465C238.483 164.465 238.3 164.393 238.186 164.267C238.048 164.128 237.998 163.895 237.998 163.589V162.165H237.586V161.806H237.998V161.181L238.47 161.056H238.474Z" fill="black"/>
<path d="M242.082 163.086C242.082 164.052 241.4 164.47 240.759 164.47C240.04 164.47 239.486 163.953 239.486 163.127C239.486 162.255 240.068 161.743 240.805 161.743C241.542 161.743 242.082 162.287 242.082 163.086ZM239.976 163.113C239.976 163.684 240.31 164.115 240.782 164.115C241.254 164.115 241.588 163.688 241.588 163.104C241.588 162.664 241.363 162.103 240.791 162.103C240.219 162.103 239.972 162.619 239.972 163.113H239.976Z" fill="black"/>
<path d="M242.696 162.619C242.696 162.314 242.691 162.049 242.673 161.806H243.094L243.112 162.319H243.135C243.254 161.968 243.547 161.748 243.872 161.748C243.927 161.748 243.964 161.753 244.01 161.766V162.215C243.959 162.206 243.909 162.197 243.845 162.197C243.506 162.197 243.263 162.449 243.195 162.808C243.186 162.871 243.172 162.947 243.172 163.028V164.416H242.696V162.624V162.619Z" fill="black"/>
<path d="M244.802 161.806L245.383 163.347C245.443 163.517 245.511 163.724 245.553 163.881H245.562C245.612 163.724 245.667 163.526 245.731 163.338L246.258 161.806H246.771L246.047 163.665C245.699 164.559 245.466 165.018 245.136 165.296C244.898 165.503 244.665 165.584 244.546 165.601L244.426 165.202C244.546 165.166 244.706 165.089 244.848 164.968C244.98 164.865 245.145 164.681 245.255 164.438C245.278 164.389 245.292 164.353 245.292 164.326C245.292 164.299 245.283 164.263 245.26 164.2L244.275 161.797H244.802V161.806Z" fill="black"/>
<path d="M58.995 173H54.252V160.822H58.995V161.271H54.7098V172.551H58.995V173Z" fill="#69C0FF"/>
<path d="M68.7329 173H59.9336V157.175H68.7329V173ZM60.3914 172.55H68.2751V157.624H60.3914V172.55Z" fill="#69C0FF"/>
<path d="M72.7709 173H70.0469V172.551H72.3131V165.548H70.0469V165.099H72.7709V173Z" fill="#69C0FF"/>
<path d="M64.5617 157.624H61.5264V155.091H64.5617V157.624ZM61.9842 157.175H64.1039V155.54H61.9842V157.175Z" fill="#69C0FF"/>
<path d="M65.8803 173H63.0098V170.826C63.0098 170.049 63.6553 169.42 64.4427 169.42C65.2302 169.42 65.8757 170.053 65.8757 170.826V173H65.8803ZM63.4676 172.551H65.4225V170.826C65.4225 170.296 64.983 169.869 64.4473 169.869C63.9117 169.869 63.4722 170.3 63.4722 170.826V172.551H63.4676Z" fill="#69C0FF"/>
<path d="M62.5845 158.685H61.7559V159.498H62.5845V158.685Z" fill="#69C0FF"/>
<path d="M64.855 158.685H64.0264V159.498H64.855V158.685Z" fill="#69C0FF"/>
<path d="M67.1255 158.685H66.2969V159.498H67.1255V158.685Z" fill="#69C0FF"/>
<path d="M62.5845 160.872H61.7559V161.685H62.5845V160.872Z" fill="#69C0FF"/>
<path d="M64.855 160.872H64.0264V161.685H64.855V160.872Z" fill="#69C0FF"/>
<path d="M67.1255 160.872H66.2969V161.685H67.1255V160.872Z" fill="#69C0FF"/>
<path d="M62.5845 162.826H61.7559V163.639H62.5845V162.826Z" fill="#69C0FF"/>
<path d="M64.855 162.826H64.0264V163.639H64.855V162.826Z" fill="#69C0FF"/>
<path d="M67.1255 162.826H66.2969V163.639H67.1255V162.826Z" fill="#69C0FF"/>
<path d="M62.5845 164.969H61.7559V165.782H62.5845V164.969Z" fill="#69C0FF"/>
<path d="M64.855 164.969H64.0264V165.782H64.855V164.969Z" fill="#69C0FF"/>
<path d="M67.1255 164.969H66.2969V165.782H67.1255V164.969Z" fill="#69C0FF"/>
<path d="M62.5845 166.913H61.7559V167.726H62.5845V166.913Z" fill="#69C0FF"/>
<path d="M64.855 166.913H64.0264V167.726H64.855V166.913Z" fill="#69C0FF"/>
<path d="M67.1255 166.913H66.2969V167.726H67.1255V166.913Z" fill="#69C0FF"/>
<path d="M56.7378 163.032H55.9092V163.845H56.7378V163.032Z" fill="#69C0FF"/>
<path d="M56.7378 164.986H55.9092V165.799H56.7378V164.986Z" fill="#69C0FF"/>
<path d="M56.7378 167.129H55.9092V167.942H56.7378V167.129Z" fill="#69C0FF"/>
<path d="M56.7378 169.074H55.9092V169.887H56.7378V169.074Z" fill="#69C0FF"/>
<path d="M58.9947 163.032H58.166V163.845H58.9947V163.032Z" fill="#69C0FF"/>
<path d="M58.9947 164.986H58.166V165.799H58.9947V164.986Z" fill="#69C0FF"/>
<path d="M58.9947 167.129H58.166V167.942H58.9947V167.129Z" fill="#69C0FF"/>
<path d="M58.9947 169.074H58.166V169.887H58.9947V169.074Z" fill="#69C0FF"/>
<path d="M174.714 118.958L212.557 145.851" stroke="#69C0FF" stroke-miterlimit="10"/>
<path d="M210.232 146.466L210.177 146.021L212.416 145.752L211.976 143.578L212.429 143.492L212.96 146.138L210.232 146.466Z" fill="#69C0FF"/>
<path d="M178.056 76.1871L199.179 58.8799" stroke="#69C0FF" stroke-miterlimit="10"/>
<path d="M180.423 76.6402L180.446 76.191L178.193 76.0743L178.477 73.8777L178.019 73.8193L177.676 76.4965L180.423 76.6402Z" fill="#69C0FF"/>
<path d="M199.212 61.2422L198.759 61.1883L199.043 58.9918L196.79 58.875L196.813 58.4258L199.56 58.5695L199.212 61.2422Z" fill="#69C0FF"/>
<path d="M113.149 27.4004V58.0799" stroke="#69C0FF" stroke-miterlimit="10"/>
<path d="M111.277 28.887L111.612 29.1969L113.15 27.5709L114.688 29.1969L115.022 28.887L113.15 26.915L111.277 28.887Z" fill="#69C0FF"/>
<path d="M111.277 56.5926L111.612 56.2871L113.15 57.9087L114.688 56.2871L115.022 56.5926L113.15 58.569L111.277 56.5926Z" fill="#69C0FF"/>
<path d="M39.0381 52.0029L71.0123 76.2006" stroke="#69C0FF" stroke-miterlimit="10"/>
<path d="M39.0978 54.3652L39.5464 54.2934L39.1756 52.1103L41.4235 51.9037L41.3823 51.459L38.6445 51.706L39.0978 54.3652Z" fill="#69C0FF"/>
<path d="M68.6682 76.7441L68.627 76.2994L70.8749 76.0973L70.504 73.9098L70.9573 73.8379L71.4059 76.4971L68.6682 76.7441Z" fill="#69C0FF"/>
<path d="M76.0347 127.969L66.5166 146.996" stroke="#69C0FF" stroke-miterlimit="10"/>
<path d="M65.5 144.849L65.9395 144.724L66.5896 146.844L68.7002 146.049L68.865 146.471L66.2966 147.432L65.5 144.849Z" fill="#69C0FF"/>
<path d="M91.4629 105.097C91.0875 105.097 90.7487 105.038 90.4466 104.917C90.149 104.796 89.8926 104.625 89.6774 104.41C89.4669 104.194 89.3066 103.938 89.1967 103.641C89.0823 103.349 89.0273 103.031 89.0273 102.689V102.505C89.0273 102.114 89.0869 101.764 89.2013 101.449C89.3158 101.135 89.476 100.865 89.682 100.641C89.888 100.416 90.1307 100.241 90.41 100.12C90.6892 99.9985 90.996 99.9401 91.321 99.9401C91.6827 99.9401 91.9986 99.9985 92.2733 100.12C92.548 100.241 92.7677 100.407 92.9463 100.623C93.1294 100.838 93.2622 101.095 93.3492 101.391C93.4407 101.687 93.4865 102.015 93.4865 102.375V102.846H89.5721V102.051H92.3694V101.966C92.3648 101.768 92.3236 101.58 92.2458 101.404C92.1726 101.229 92.0627 101.09 91.9116 100.982C91.7605 100.874 91.5637 100.821 91.3119 100.821C91.1242 100.821 90.9593 100.861 90.8128 100.942C90.6709 101.018 90.5473 101.13 90.4512 101.279C90.355 101.427 90.2818 101.602 90.2268 101.813C90.1765 102.02 90.1536 102.249 90.1536 102.505V102.689C90.1536 102.905 90.181 103.107 90.2406 103.296C90.3047 103.48 90.3916 103.641 90.5107 103.776C90.6297 103.915 90.7716 104.023 90.941 104.104C91.1104 104.18 91.3027 104.221 91.5179 104.221C91.788 104.221 92.0306 104.167 92.2412 104.059C92.4518 103.951 92.6395 103.799 92.7952 103.605L93.3904 104.171C93.2805 104.329 93.1386 104.477 92.9646 104.621C92.7906 104.76 92.5754 104.877 92.3236 104.966C92.0718 105.056 91.7834 105.101 91.4538 105.101L91.4629 105.097ZM97.1353 99.2079L95.098 105.002H93.8665L96.4303 98.314H97.2177L97.1353 99.2034V99.2079ZM98.843 105.002L96.8011 99.2079L96.7141 98.3185H97.5062L100.079 105.007H98.843V105.002ZM98.7423 102.523V103.435H95.0339V102.523H98.7423ZM103.719 103.835V100.039H104.85V105.007H103.783L103.719 103.835ZM103.879 102.801L104.259 102.792C104.259 103.125 104.222 103.435 104.145 103.713C104.071 103.992 103.952 104.234 103.797 104.445C103.641 104.652 103.44 104.809 103.197 104.926C102.954 105.038 102.661 105.097 102.322 105.097C102.075 105.097 101.851 105.061 101.645 104.989C101.439 104.917 101.26 104.809 101.109 104.661C100.963 104.513 100.848 104.324 100.766 104.086C100.683 103.853 100.642 103.57 100.642 103.242V100.03H101.768V103.251C101.768 103.43 101.791 103.583 101.833 103.704C101.878 103.826 101.933 103.92 102.011 103.992C102.084 104.064 102.171 104.118 102.272 104.149C102.373 104.18 102.478 104.194 102.593 104.194C102.913 104.194 103.165 104.131 103.353 104.01C103.54 103.884 103.673 103.718 103.751 103.507C103.833 103.296 103.874 103.057 103.874 102.797L103.879 102.801ZM108.329 100.034V100.843H105.472V100.034H108.329ZM106.296 98.8171H107.423V103.628C107.423 103.781 107.445 103.897 107.487 103.983C107.532 104.064 107.597 104.118 107.679 104.144C107.761 104.171 107.857 104.185 107.963 104.185C108.041 104.185 108.114 104.18 108.187 104.171C108.26 104.162 108.315 104.153 108.361 104.144V104.989C108.274 105.016 108.164 105.043 108.036 105.061C107.912 105.083 107.775 105.092 107.615 105.092C107.354 105.092 107.125 105.047 106.928 104.958C106.727 104.868 106.571 104.715 106.461 104.513C106.347 104.306 106.292 104.037 106.292 103.695V98.8126L106.296 98.8171ZM110.311 97.9502V105.002H109.19V97.9502H110.311ZM110.115 102.334H109.748C109.748 101.988 109.799 101.669 109.895 101.377C109.991 101.086 110.124 100.834 110.298 100.618C110.472 100.403 110.682 100.232 110.925 100.12C111.168 99.9985 111.438 99.9401 111.735 99.9401C111.987 99.9401 112.211 99.976 112.408 100.039C112.61 100.106 112.784 100.214 112.935 100.367C113.081 100.515 113.191 100.708 113.269 100.946C113.347 101.18 113.388 101.472 113.388 101.809V105.002H112.257V101.8C112.257 101.562 112.221 101.373 112.147 101.229C112.079 101.09 111.978 100.987 111.845 100.928C111.712 100.865 111.548 100.834 111.355 100.834C111.163 100.834 110.975 100.874 110.815 100.955C110.664 101.036 110.536 101.144 110.43 101.283C110.33 101.422 110.247 101.58 110.197 101.759C110.147 101.939 110.124 102.132 110.124 102.339L110.115 102.334ZM116.758 105.097C116.382 105.097 116.043 105.038 115.741 104.917C115.444 104.796 115.187 104.625 114.972 104.41C114.761 104.194 114.601 103.938 114.491 103.641C114.377 103.349 114.322 103.031 114.322 102.689V102.505C114.322 102.114 114.381 101.764 114.496 101.449C114.61 101.135 114.771 100.865 114.977 100.641C115.183 100.416 115.425 100.241 115.705 100.12C115.984 99.9985 116.291 99.9401 116.616 99.9401C116.977 99.9401 117.293 99.9985 117.568 100.12C117.838 100.241 118.062 100.407 118.241 100.623C118.424 100.838 118.557 101.095 118.644 101.391C118.735 101.687 118.781 102.015 118.781 102.375V102.846H114.867V102.051H117.664V101.966C117.659 101.768 117.618 101.58 117.54 101.404C117.467 101.229 117.357 101.09 117.206 100.982C117.055 100.874 116.858 100.821 116.606 100.821C116.419 100.821 116.254 100.861 116.107 100.942C115.965 101.018 115.842 101.13 115.746 101.279C115.65 101.427 115.576 101.602 115.521 101.813C115.471 102.02 115.448 102.249 115.448 102.505V102.689C115.448 102.905 115.48 103.107 115.535 103.296C115.599 103.48 115.686 103.641 115.805 103.776C115.924 103.915 116.066 104.023 116.236 104.104C116.405 104.18 116.597 104.221 116.812 104.221C117.083 104.221 117.325 104.167 117.54 104.059C117.751 103.951 117.939 103.799 118.094 103.605L118.69 104.171C118.58 104.329 118.438 104.477 118.264 104.621C118.09 104.76 117.875 104.877 117.623 104.966C117.371 105.056 117.083 105.101 116.753 105.101L116.758 105.097ZM120.782 101.095V105.002H119.656V100.034H120.718L120.782 101.095ZM120.58 102.334H120.214C120.214 101.979 120.269 101.656 120.365 101.36C120.466 101.068 120.603 100.812 120.777 100.6C120.956 100.389 121.166 100.228 121.414 100.115C121.661 99.9985 121.935 99.9401 122.238 99.9401C122.48 99.9401 122.7 99.976 122.897 100.039C123.098 100.102 123.268 100.21 123.405 100.358C123.547 100.506 123.657 100.695 123.735 100.933C123.808 101.166 123.849 101.454 123.849 101.791V105.002H122.718V101.786C122.718 101.548 122.682 101.36 122.613 101.22C122.544 101.081 122.444 100.978 122.311 100.924C122.178 100.861 122.018 100.834 121.821 100.834C121.624 100.834 121.455 100.874 121.304 100.955C121.153 101.036 121.02 101.144 120.915 101.283C120.809 101.422 120.731 101.58 120.676 101.759C120.622 101.939 120.594 102.132 120.594 102.339L120.58 102.334ZM127.324 100.034V100.843H124.467V100.034H127.324ZM125.291 98.8171H126.418V103.628C126.418 103.781 126.44 103.897 126.482 103.983C126.527 104.064 126.591 104.118 126.674 104.144C126.756 104.171 126.852 104.185 126.958 104.185C127.036 104.185 127.109 104.18 127.182 104.171C127.255 104.162 127.31 104.153 127.356 104.144V104.989C127.269 105.016 127.159 105.043 127.031 105.061C126.907 105.083 126.77 105.092 126.61 105.092C126.349 105.092 126.12 105.047 125.923 104.958C125.722 104.868 125.566 104.715 125.456 104.513C125.342 104.306 125.287 104.037 125.287 103.695V98.8126L125.291 98.8171ZM129.398 100.034V105.002H128.267V100.034H129.398ZM128.194 98.7318C128.194 98.5656 128.249 98.4263 128.363 98.314C128.478 98.2017 128.638 98.1433 128.839 98.1433C129.041 98.1433 129.196 98.2017 129.311 98.314C129.425 98.4263 129.485 98.5656 129.485 98.7318C129.485 98.898 129.425 99.0327 129.311 99.145C129.196 99.2573 129.036 99.3112 128.839 99.3112C128.643 99.3112 128.478 99.2573 128.363 99.145C128.249 99.0327 128.194 98.898 128.194 98.7318ZM132.703 104.216C132.887 104.216 133.051 104.18 133.198 104.109C133.349 104.037 133.468 103.933 133.56 103.808C133.656 103.677 133.706 103.529 133.715 103.363H134.777C134.773 103.686 134.672 103.978 134.489 104.239C134.301 104.504 134.054 104.71 133.743 104.868C133.436 105.02 133.093 105.097 132.717 105.097C132.342 105.097 131.994 105.034 131.705 104.904C131.417 104.773 131.179 104.589 130.991 104.36C130.799 104.131 130.657 103.866 130.561 103.565C130.465 103.264 130.419 102.945 130.419 102.599V102.438C130.419 102.096 130.465 101.773 130.561 101.472C130.657 101.171 130.799 100.901 130.991 100.672C131.183 100.443 131.421 100.264 131.705 100.133C131.994 100.003 132.328 99.9356 132.713 99.9356C133.12 99.9356 133.473 100.016 133.779 100.174C134.086 100.331 134.324 100.546 134.498 100.829C134.677 101.108 134.768 101.431 134.773 101.804H133.711C133.701 101.62 133.656 101.454 133.569 101.31C133.486 101.162 133.372 101.041 133.221 100.951C133.074 100.861 132.9 100.816 132.69 100.816C132.461 100.816 132.273 100.861 132.122 100.955C131.971 101.045 131.856 101.166 131.769 101.324C131.687 101.476 131.623 101.651 131.586 101.845C131.55 102.033 131.536 102.231 131.536 102.438V102.599C131.536 102.806 131.554 103.004 131.586 103.197C131.623 103.39 131.682 103.561 131.765 103.718C131.852 103.866 131.971 103.987 132.122 104.082C132.273 104.171 132.461 104.216 132.694 104.216H132.703ZM138.499 104.01V101.638C138.499 101.458 138.467 101.306 138.403 101.18C138.339 101.05 138.238 100.951 138.106 100.883C137.973 100.812 137.808 100.776 137.611 100.776C137.428 100.776 137.268 100.807 137.135 100.865C137.002 100.928 136.897 101.009 136.824 101.112C136.751 101.216 136.709 101.333 136.709 101.467H135.588C135.588 101.27 135.638 101.081 135.734 100.897C135.83 100.713 135.972 100.551 136.155 100.407C136.338 100.264 136.558 100.151 136.815 100.066C137.071 99.985 137.359 99.9401 137.675 99.9401C138.055 99.9401 138.394 100.003 138.687 100.129C138.985 100.255 139.218 100.443 139.383 100.699C139.557 100.951 139.639 101.265 139.639 101.647V103.857C139.639 104.082 139.653 104.288 139.685 104.468C139.722 104.648 139.768 104.8 139.832 104.931V105.002H138.678C138.623 104.881 138.582 104.733 138.55 104.549C138.522 104.36 138.509 104.18 138.509 104.005L138.499 104.01ZM138.664 101.984L138.673 102.667H137.863C137.652 102.667 137.469 102.685 137.309 102.725C137.149 102.761 137.016 102.815 136.911 102.891C136.805 102.968 136.723 103.053 136.673 103.156C136.618 103.26 136.595 103.376 136.595 103.511C136.595 103.646 136.627 103.763 136.691 103.875C136.755 103.983 136.842 104.068 136.961 104.127C137.085 104.189 137.231 104.216 137.401 104.216C137.63 104.216 137.831 104.171 138.005 104.077C138.179 103.983 138.316 103.866 138.417 103.731C138.518 103.592 138.568 103.462 138.577 103.34L138.943 103.83C138.907 103.956 138.843 104.091 138.751 104.234C138.66 104.378 138.541 104.517 138.394 104.648C138.252 104.778 138.078 104.881 137.872 104.966C137.671 105.047 137.442 105.092 137.181 105.092C136.851 105.092 136.554 105.029 136.297 104.899C136.036 104.769 135.835 104.589 135.688 104.369C135.542 104.144 135.469 103.893 135.469 103.61C135.469 103.345 135.519 103.116 135.62 102.914C135.725 102.707 135.872 102.536 136.068 102.397C136.27 102.258 136.512 102.155 136.796 102.083C137.085 102.011 137.41 101.97 137.781 101.97H138.664V101.984ZM143.133 100.034V100.843H140.276V100.034H143.133ZM141.1 98.8171H142.226V103.628C142.226 103.781 142.249 103.897 142.29 103.983C142.336 104.064 142.4 104.118 142.482 104.144C142.565 104.171 142.656 104.185 142.766 104.185C142.844 104.185 142.917 104.18 142.991 104.171C143.064 104.162 143.119 104.153 143.165 104.144V104.989C143.078 105.016 142.968 105.043 142.84 105.061C142.716 105.083 142.579 105.092 142.418 105.092C142.157 105.092 141.928 105.047 141.732 104.958C141.53 104.868 141.375 104.715 141.265 104.513C141.15 104.306 141.095 104.037 141.095 103.695V98.8126L141.1 98.8171ZM143.677 102.577V102.469C143.677 102.11 143.732 101.777 143.838 101.472C143.943 101.162 144.099 100.897 144.295 100.668C144.497 100.439 144.744 100.259 145.037 100.133C145.33 100.003 145.66 99.9401 146.031 99.9401C146.401 99.9401 146.731 100.003 147.024 100.133C147.317 100.259 147.564 100.434 147.77 100.668C147.972 100.892 148.127 101.162 148.233 101.472C148.338 101.777 148.393 102.11 148.393 102.469V102.577C148.393 102.936 148.338 103.269 148.233 103.574C148.127 103.879 147.972 104.149 147.77 104.378C147.569 104.603 147.322 104.782 147.033 104.913C146.745 105.038 146.415 105.101 146.044 105.101C145.673 105.101 145.339 105.038 145.046 104.913C144.758 104.782 144.511 104.607 144.305 104.378C144.103 104.149 143.947 103.879 143.842 103.574C143.737 103.269 143.682 102.936 143.682 102.577H143.677ZM144.804 102.469V102.577C144.804 102.801 144.826 103.013 144.872 103.21C144.918 103.408 144.991 103.583 145.092 103.736C145.193 103.884 145.321 104.005 145.477 104.091C145.632 104.176 145.82 104.221 146.035 104.221C146.25 104.221 146.424 104.176 146.58 104.091C146.736 104.005 146.864 103.888 146.965 103.736C147.065 103.587 147.138 103.412 147.184 103.21C147.235 103.013 147.257 102.801 147.257 102.577V102.469C147.257 102.249 147.235 102.042 147.184 101.845C147.138 101.647 147.061 101.472 146.96 101.315C146.859 101.162 146.731 101.041 146.575 100.955C146.424 100.865 146.241 100.821 146.026 100.821C145.811 100.821 145.628 100.865 145.472 100.955C145.321 101.041 145.193 101.162 145.092 101.315C144.991 101.467 144.918 101.643 144.872 101.845C144.826 102.042 144.804 102.249 144.804 102.469ZM150.462 100.982V105.007H149.336V100.039H150.412L150.462 100.987V100.982ZM152.01 100.003L152.001 101.032C151.932 101.018 151.859 101.009 151.776 101.005C151.698 101 151.621 100.996 151.543 100.996C151.35 100.996 151.181 101.023 151.035 101.077C150.888 101.13 150.764 101.207 150.664 101.306C150.568 101.404 150.49 101.521 150.439 101.665C150.384 101.804 150.357 101.961 150.348 102.137L150.091 102.155C150.091 101.84 150.123 101.553 150.188 101.288C150.252 101.023 150.343 100.789 150.467 100.587C150.595 100.385 150.755 100.228 150.943 100.115C151.135 100.003 151.36 99.9446 151.611 99.9446C151.68 99.9446 151.753 99.9491 151.831 99.9626C151.914 99.976 151.973 99.9895 152.014 100.003H152.01Z" fill="#69C0FF"/>
<path d="M79.2675 108.128C82.7947 108.128 85.654 105.323 85.654 101.862C85.654 98.4012 82.7947 95.5957 79.2675 95.5957C75.7402 95.5957 72.8809 98.4012 72.8809 101.862C72.8809 105.323 75.7402 108.128 79.2675 108.128Z" fill="#69C0FF"/>
<path d="M82.0183 104.755H82C81.8855 104.755 81.7757 104.696 81.7161 104.602L79.3675 100.995C79.3172 100.918 79.2027 100.918 79.1524 100.995L76.8037 104.602C76.7396 104.696 76.6343 104.755 76.5199 104.755C76.0483 104.755 75.9201 103.928 76.1445 103.524L78.429 99.4631C78.7953 98.8118 79.7475 98.8118 80.1138 99.4631L82.3983 103.524C82.6226 103.928 82.4944 104.755 82.0229 104.755H82.0183Z" fill="white"/>
</g>
<defs>
<clipPath id="clip0_3400_28634">
<rect width="251" height="173" fill="white"/>
</clipPath>
</defs>
</svg>
