<svg width="240" height="240" viewBox="0 0 240 240" fill="none" xmlns="http://www.w3.org/2000/svg">
<path d="M120.172 229.013C163.027 229.013 197.768 194.195 197.768 151.245C197.768 108.294 163.027 73.4764 120.172 73.4764C77.3164 73.4764 42.5752 108.294 42.5752 151.245C42.5752 194.195 77.3164 229.013 120.172 229.013Z" fill="#033A88"/>
<path d="M183.004 196.957C173.37 210.244 159.781 220.134 144.191 225.208C128.6 230.281 111.805 230.281 96.2146 225.208C80.624 220.134 67.0384 210.244 57.4009 196.957C47.7634 183.669 42.5752 167.669 42.5752 151.245C42.5752 134.82 47.7634 118.82 57.4009 105.533C67.0352 92.2451 80.624 82.3553 96.2146 77.2816C111.805 72.208 128.6 72.208 144.191 77.2816C159.781 82.3553 173.37 92.2451 183.004 105.533L165.425 118.328C158.486 108.761 148.702 101.639 137.476 97.984C126.25 94.3287 114.155 94.3287 102.929 97.984C91.7034 101.639 81.9194 108.761 74.9802 118.328C68.0409 127.895 64.3044 139.418 64.3044 151.245C64.3044 163.071 68.0409 174.595 74.9802 184.162C81.9194 193.729 91.7034 200.85 102.929 204.505C114.155 208.161 126.25 208.161 137.476 204.505C148.702 200.85 158.486 193.729 165.425 184.162L183.004 196.957Z" fill="#1890FF"/>
<path d="M101.975 148.67C101.975 158.722 110.123 166.867 120.172 166.867C130.221 166.867 138.369 158.719 138.369 148.67C138.369 138.62 130.221 130.472 120.172 130.472C110.123 130.472 101.975 138.62 101.975 148.67Z" fill="#1890FF"/>
<path d="M113.648 149.748V177.462C113.648 181.471 116.723 184.721 120.515 184.721C124.308 184.721 127.382 181.471 127.382 177.462V149.748C127.382 145.739 124.308 142.489 120.515 142.489C116.723 142.489 113.648 145.739 113.648 149.748Z" fill="#D3EBFF"/>
<path d="M163.777 54.417C163.777 61.8068 161.932 68.76 158.68 74.8498C153.951 72.393 148.958 70.3729 143.759 68.8512C146.355 64.6546 147.851 59.7117 147.851 54.417C147.851 39.2268 135.54 26.9137 120.345 26.9137C105.151 26.9137 92.8395 39.2268 92.8395 54.417C92.8395 59.6889 94.3253 64.6187 96.9019 68.8056C91.6966 70.3207 86.7003 72.3279 81.9718 74.7781C78.7421 68.7046 76.9102 61.7775 76.9102 54.417C76.9134 30.4326 96.3598 10.9871 120.345 10.9871C144.331 10.9871 163.777 30.4326 163.777 54.417Z" fill="#1890FF"/>
</svg>
