<svg width="65" height="64" viewBox="0 0 65 64" fill="none" xmlns="http://www.w3.org/2000/svg">
<path d="M39.168 40C36.9622 40 35.168 41.7943 35.168 44V60C35.168 62.2057 36.9622 64 39.168 64C41.3737 64 43.168 62.2057 43.168 60V44C43.168 41.7943 41.3737 40 39.168 40Z" fill="#82C341"/>
<path opacity="0.1" d="M39.168 63.333C36.9622 63.333 35.168 61.5387 35.168 59.333V59.9997C35.168 62.2054 36.9622 63.9997 39.168 63.9997C41.3737 63.9997 43.168 62.2054 43.168 59.9997V59.333C43.168 61.5387 41.3737 63.333 39.168 63.333Z" fill="black"/>
<path d="M25.832 40C23.6263 40 21.832 41.7943 21.832 44V60C21.832 62.2057 23.6263 64 25.832 64C28.0378 64 29.832 62.2057 29.832 60V44C29.832 41.7943 28.0378 40 25.832 40Z" fill="#82C341"/>
<path opacity="0.1" d="M25.832 63.333C23.6263 63.333 21.832 61.5387 21.832 59.333V59.9997C21.832 62.2054 23.6263 63.9997 25.832 63.9997C28.0378 63.9997 29.832 62.2054 29.832 59.9997V59.333C29.832 61.5387 28.0378 63.333 25.832 63.333Z" fill="black"/>
<path d="M48.5 21.333H16.5V45.333C16.5 48.2785 18.8878 50.6663 21.8333 50.6663H43.1667C46.1122 50.6663 48.5 48.2785 48.5 45.333V21.333Z" fill="#82C341"/>
<path d="M55.168 21.333C52.9622 21.333 51.168 23.1273 51.168 25.333V41.333C51.168 43.5387 52.9622 45.333 55.168 45.333C57.3737 45.333 59.168 43.5387 59.168 41.333V25.333C59.168 23.1273 57.3737 21.333 55.168 21.333Z" fill="#82C341"/>
<path d="M24.8375 7.49474C24.3921 7.49474 23.9559 7.27208 23.7033 6.86583L20.7007 2.03771C20.3127 1.41271 20.5041 0.589792 21.1291 0.200469C21.7567 -0.186249 22.577 0.00255247 22.9664 0.628855L25.969 5.45698C26.357 6.08198 26.1656 6.9049 25.5406 7.29422C25.3205 7.42964 25.0783 7.49474 24.8375 7.49474Z" fill="#82C341"/>
<path d="M40.1643 7.49474C39.9234 7.49474 39.6812 7.42964 39.4612 7.29422C38.8362 6.9049 38.6447 6.08198 39.0328 5.45698L42.0354 0.628855C42.4247 0.00255259 43.245 -0.18625 43.8726 0.200469C44.4976 0.589792 44.689 1.41271 44.301 2.03771L41.2984 6.86583C41.0458 7.27208 40.6096 7.49474 40.1643 7.49474Z" fill="#82C341"/>
<path d="M32.5 2.66699C23.6634 2.66699 16.5 9.8304 16.5 18.667H48.5C48.5 9.8304 41.3366 2.66699 32.5 2.66699Z" fill="#82C341"/>
<path opacity="0.2" d="M48.5 21.333H16.5V21.9997H48.5V21.333Z" fill="white"/>
<path opacity="0.1" d="M43.1667 50.0003H21.8333C18.8879 50.0003 16.5 47.6125 16.5 44.667V45.3337C16.5 48.2791 18.8879 50.667 21.8333 50.667H43.1667C46.1121 50.667 48.5 48.2791 48.5 45.3337V44.667C48.5 47.6125 46.1121 50.0003 43.1667 50.0003Z" fill="black"/>
<path opacity="0.2" d="M55.168 21.333C52.9622 21.333 51.168 23.1273 51.168 25.333V25.9997C51.168 23.7939 52.9622 21.9997 55.168 21.9997C57.3737 21.9997 59.168 23.7939 59.168 25.9997V25.333C59.168 23.1273 57.3737 21.333 55.168 21.333Z" fill="white"/>
<path opacity="0.1" d="M55.168 44.667C52.9622 44.667 51.168 42.8727 51.168 40.667V41.3337C51.168 43.5394 52.9622 45.3337 55.168 45.3337C57.3737 45.3337 59.168 43.5394 59.168 41.3337V40.667C59.168 42.8727 57.3737 44.667 55.168 44.667Z" fill="black"/>
<path opacity="0.2" d="M32.4985 3.33366C39.2022 3.33366 44.9393 7.22744 47.4343 12.9171C45.1467 6.87734 39.34 2.66699 32.4985 2.66699C25.6571 2.66699 19.8462 6.88838 17.5586 12.9281C20.0535 7.23848 25.7949 3.33366 32.4985 3.33366Z" fill="white"/>
<path d="M25.8333 13.3337C26.5697 13.3337 27.1667 12.7367 27.1667 12.0003C27.1667 11.2639 26.5697 10.667 25.8333 10.667C25.097 10.667 24.5 11.2639 24.5 12.0003C24.5 12.7367 25.097 13.3337 25.8333 13.3337Z" fill="white"/>
<path d="M39.1654 13.3337C39.9017 13.3337 40.4987 12.7367 40.4987 12.0003C40.4987 11.2639 39.9017 10.667 39.1654 10.667C38.429 10.667 37.832 11.2639 37.832 12.0003C37.832 12.7367 38.429 13.3337 39.1654 13.3337Z" fill="white"/>
<path opacity="0.1" d="M16.5337 18C16.5244 18.2228 16.5 18.4416 16.5 18.6667H48.5C48.5 18.4416 48.4756 18.2228 48.4663 18H16.5337Z" fill="black"/>
<path d="M9.83203 21.333C7.6263 21.333 5.83203 23.1273 5.83203 25.333V41.333C5.83203 43.5387 7.6263 45.333 9.83203 45.333C12.0378 45.333 13.832 43.5387 13.832 41.333V25.333C13.832 23.1273 12.0378 21.333 9.83203 21.333Z" fill="#82C341"/>
<path opacity="0.2" d="M9.83203 21.333C7.6263 21.333 5.83203 23.1273 5.83203 25.333V25.9997C5.83203 23.7939 7.6263 21.9997 9.83203 21.9997C12.0378 21.9997 13.832 23.7939 13.832 25.9997V25.333C13.832 23.1273 12.0378 21.333 9.83203 21.333Z" fill="white"/>
<path opacity="0.1" d="M9.83203 44.667C7.6263 44.667 5.83203 42.8727 5.83203 40.667V41.3337C5.83203 43.5394 7.6263 45.3337 9.83203 45.3337C12.0378 45.3337 13.832 43.5394 13.832 41.3337V40.667C13.832 42.8727 12.0378 44.667 9.83203 44.667Z" fill="black"/>
<path d="M16.4987 45.3333C16.4987 48.2788 18.8866 50.6666 21.832 50.6666V59.9999C21.832 62.2057 23.6263 63.9999 25.832 63.9999C28.0378 63.9999 29.832 62.2057 29.832 59.9999V50.6666H35.1654V59.9999C35.1654 62.2057 36.9596 63.9999 39.1654 63.9999C41.3711 63.9999 43.1654 62.2057 43.1654 59.9999V50.6666C46.1108 50.6666 48.4987 48.2788 48.4987 45.3333V21.3333H16.4987V45.3333ZM55.1654 21.3333C52.9596 21.3333 51.1654 23.1276 51.1654 25.3333V41.3333C51.1654 43.539 52.9596 45.3333 55.1654 45.3333C57.3711 45.3333 59.1654 43.539 59.1654 41.3333V25.3333C59.1654 23.1276 57.3711 21.3333 55.1654 21.3333ZM41.9655 5.78868L44.2982 2.03771C44.6862 1.41271 44.4948 0.589792 43.8698 0.200469C43.2422 -0.186249 42.4219 0.00255267 42.0326 0.628855L39.6937 4.38976C37.5288 3.2965 35.0897 2.66661 32.4987 2.66661C29.9077 2.66661 27.4686 3.2965 25.3037 4.38976L22.9648 0.628855C22.5755 0.00255267 21.7552 -0.186249 21.1276 0.200469C20.5026 0.589792 20.3112 1.41271 20.6992 2.03771L23.0319 5.78868C19.0763 8.70177 16.4987 13.3774 16.4987 18.6666H48.4987C48.4987 13.3774 45.9211 8.70177 41.9655 5.78868ZM9.83203 21.3333C7.6263 21.3333 5.83203 23.1276 5.83203 25.3333V41.3333C5.83203 43.539 7.6263 45.3333 9.83203 45.3333C12.0378 45.3333 13.832 43.539 13.832 41.3333V25.3333C13.832 23.1276 12.0378 21.3333 9.83203 21.3333Z" fill="url(#paint0_linear_3728_81807)"/>
<defs>
<linearGradient id="paint0_linear_3728_81807" x1="8.00536" y1="19.784" x2="58.6214" y2="43.3866" gradientUnits="userSpaceOnUse">
<stop stop-color="white" stop-opacity="0.2"/>
<stop offset="1" stop-color="white" stop-opacity="0"/>
</linearGradient>
</defs>
</svg>
