<svg width="356" height="346" viewBox="0 0 356 346" fill="none" xmlns="http://www.w3.org/2000/svg">
<rect x="0.5" y="0.5" width="355" height="583" rx="7.5" fill="white" fill-opacity="0.3"/>
<rect x="0.5" y="0.5" width="355" height="583" rx="7.5" stroke="white"/>
<path d="M178.057 100.338C192.342 100.338 203.922 88.7317 203.922 74.4149C203.922 60.0982 192.342 48.4922 178.057 48.4922C163.772 48.4922 152.191 60.0982 152.191 74.4149C152.191 88.7317 163.772 100.338 178.057 100.338Z" fill="#033A88"/>
<path d="M199.001 89.6523C195.79 94.0814 191.26 97.378 186.063 99.0693C180.866 100.76 175.268 100.76 170.071 99.0693C164.874 97.378 160.346 94.0814 157.133 89.6523C153.921 85.2231 152.191 79.8897 152.191 74.4149C152.191 68.9402 153.921 63.6067 157.133 59.1776C160.345 54.7484 164.874 51.4518 170.071 49.7606C175.268 48.0694 180.866 48.0694 186.063 49.7606C191.26 51.4518 195.79 54.7484 199.001 59.1776L193.141 63.4426C190.828 60.2536 187.567 57.8798 183.825 56.6614C180.083 55.443 176.051 55.443 172.309 56.6614C168.567 57.8798 165.306 60.2536 162.993 63.4426C160.68 66.6316 159.434 70.4727 159.434 74.4149C159.434 78.3571 160.68 82.1983 162.993 85.3873C165.306 88.5762 168.567 90.9501 172.309 92.1685C176.051 93.3869 180.083 93.3869 183.825 92.1685C187.567 90.9501 190.828 88.5762 193.141 85.3873L199.001 89.6523Z" fill="#1890FF"/>
<path d="M171.992 73.556C171.992 76.9069 174.708 79.6219 178.058 79.6219C181.408 79.6219 184.124 76.9058 184.124 73.556C184.124 70.2063 181.408 67.4902 178.058 67.4902C174.708 67.4902 171.992 70.2063 171.992 73.556Z" fill="#1890FF"/>
<path d="M175.883 73.9158V83.1536C175.883 84.4901 176.908 85.5733 178.172 85.5733C179.436 85.5733 180.461 84.4901 180.461 83.1536V73.9158C180.461 72.5794 179.436 71.4961 178.172 71.4961C176.908 71.4961 175.883 72.5794 175.883 73.9158Z" fill="#D3EBFF"/>
<path d="M192.592 42.1387C192.592 44.602 191.977 46.9197 190.893 48.9497C189.317 48.1307 187.653 47.4574 185.92 46.9502C186.785 45.5513 187.284 43.9036 187.284 42.1387C187.284 37.0753 183.18 32.971 178.115 32.971C173.05 32.971 168.947 37.0753 168.947 42.1387C168.947 43.896 169.442 45.5393 170.301 46.9349C168.566 47.44 166.9 48.109 165.324 48.9258C164.247 46.9013 163.637 44.5922 163.637 42.1387C163.638 34.144 170.12 27.6621 178.115 27.6621C186.11 27.6621 192.592 34.144 192.592 42.1387Z" fill="#1890FF"/>
<path d="M114.438 144V132.727H115.844V142.734H121.281V144H114.438ZM126.12 144.148C125.323 144.148 124.633 143.974 124.049 143.625C123.471 143.271 123.023 142.768 122.706 142.117C122.393 141.466 122.237 140.693 122.237 139.797V139.781C122.237 138.88 122.393 138.104 122.706 137.453C123.023 136.802 123.471 136.302 124.049 135.953C124.633 135.604 125.323 135.43 126.12 135.43C126.922 135.43 127.612 135.604 128.19 135.953C128.768 136.302 129.213 136.802 129.526 137.453C129.844 138.104 130.002 138.88 130.002 139.781V139.797C130.002 140.693 129.844 141.466 129.526 142.117C129.213 142.768 128.768 143.271 128.19 143.625C127.612 143.974 126.922 144.148 126.12 144.148ZM126.12 142.945C126.651 142.945 127.101 142.82 127.471 142.57C127.841 142.32 128.122 141.961 128.315 141.492C128.513 141.023 128.612 140.458 128.612 139.797V139.781C128.612 139.115 128.513 138.547 128.315 138.078C128.122 137.609 127.841 137.253 127.471 137.008C127.101 136.758 126.651 136.633 126.12 136.633C125.588 136.633 125.138 136.758 124.768 137.008C124.398 137.253 124.114 137.609 123.917 138.078C123.724 138.547 123.627 139.115 123.627 139.781V139.797C123.627 140.458 123.724 141.023 123.917 141.492C124.114 141.961 124.398 142.32 124.768 142.57C125.138 142.82 125.588 142.945 126.12 142.945ZM135.271 146.969C134.594 146.969 134.002 146.872 133.497 146.68C132.992 146.492 132.588 146.224 132.286 145.875C131.989 145.531 131.804 145.13 131.732 144.672L131.747 144.664H133.153L133.161 144.672C133.234 144.99 133.453 145.25 133.817 145.453C134.182 145.661 134.666 145.766 135.271 145.766C136.026 145.766 136.614 145.594 137.036 145.25C137.463 144.911 137.677 144.432 137.677 143.812V142.109H137.552C137.375 142.417 137.153 142.68 136.888 142.898C136.622 143.117 136.323 143.284 135.989 143.398C135.656 143.508 135.297 143.562 134.911 143.562C134.187 143.562 133.56 143.391 133.028 143.047C132.502 142.698 132.096 142.219 131.81 141.609C131.523 141 131.38 140.302 131.38 139.516V139.5C131.38 138.714 131.523 138.016 131.81 137.406C132.101 136.792 132.513 136.31 133.044 135.961C133.575 135.607 134.208 135.43 134.942 135.43C135.338 135.43 135.703 135.492 136.036 135.617C136.37 135.742 136.664 135.919 136.919 136.148C137.179 136.378 137.396 136.651 137.567 136.969H137.661V135.578H139.021V143.883C139.021 144.508 138.867 145.052 138.56 145.516C138.258 145.979 137.825 146.336 137.263 146.586C136.7 146.841 136.036 146.969 135.271 146.969ZM135.208 142.359C135.729 142.359 136.174 142.24 136.544 142C136.919 141.755 137.206 141.419 137.403 140.992C137.607 140.565 137.708 140.073 137.708 139.516V139.5C137.708 138.943 137.607 138.448 137.403 138.016C137.206 137.583 136.919 137.245 136.544 137C136.174 136.755 135.729 136.633 135.208 136.633C134.687 136.633 134.245 136.755 133.88 137C133.521 137.245 133.245 137.583 133.052 138.016C132.864 138.448 132.771 138.943 132.771 139.5V139.516C132.771 140.073 132.864 140.565 133.052 140.992C133.245 141.419 133.521 141.755 133.88 142C134.245 142.24 134.687 142.359 135.208 142.359ZM145.463 144V135.578H146.823V144H145.463ZM146.151 133.953C145.895 133.953 145.674 133.862 145.487 133.68C145.304 133.492 145.213 133.271 145.213 133.016C145.213 132.755 145.304 132.534 145.487 132.352C145.674 132.169 145.895 132.078 146.151 132.078C146.411 132.078 146.632 132.169 146.815 132.352C146.997 132.534 147.088 132.755 147.088 133.016C147.088 133.271 146.997 133.492 146.815 133.68C146.632 133.862 146.411 133.953 146.151 133.953ZM149.075 144V135.578H150.434V136.844H150.559C150.773 136.396 151.08 136.049 151.481 135.805C151.882 135.555 152.393 135.43 153.013 135.43C153.96 135.43 154.687 135.701 155.192 136.242C155.703 136.779 155.958 137.547 155.958 138.547V144H154.598V138.875C154.598 138.115 154.437 137.552 154.114 137.188C153.796 136.818 153.302 136.633 152.63 136.633C152.182 136.633 151.794 136.729 151.466 136.922C151.138 137.115 150.882 137.388 150.7 137.742C150.523 138.096 150.434 138.521 150.434 139.016V144H149.075ZM165.291 144.062C164.426 144.062 163.799 143.888 163.408 143.539C163.023 143.19 162.83 142.615 162.83 141.812V136.703H161.502V135.578H162.83V133.398H164.236V135.578H166.08V136.703H164.236V141.469C164.236 141.964 164.33 142.32 164.518 142.539C164.705 142.753 165.018 142.859 165.455 142.859C165.575 142.859 165.676 142.857 165.76 142.852C165.848 142.846 165.955 142.839 166.08 142.828V143.984C165.95 144.005 165.82 144.023 165.689 144.039C165.559 144.055 165.426 144.062 165.291 144.062ZM171.153 144.148C170.356 144.148 169.666 143.974 169.083 143.625C168.504 143.271 168.056 142.768 167.739 142.117C167.426 141.466 167.27 140.693 167.27 139.797V139.781C167.27 138.88 167.426 138.104 167.739 137.453C168.056 136.802 168.504 136.302 169.083 135.953C169.666 135.604 170.356 135.43 171.153 135.43C171.955 135.43 172.645 135.604 173.223 135.953C173.801 136.302 174.247 136.802 174.559 137.453C174.877 138.104 175.036 138.88 175.036 139.781V139.797C175.036 140.693 174.877 141.466 174.559 142.117C174.247 142.768 173.801 143.271 173.223 143.625C172.645 143.974 171.955 144.148 171.153 144.148ZM171.153 142.945C171.684 142.945 172.135 142.82 172.504 142.57C172.874 142.32 173.155 141.961 173.348 141.492C173.546 141.023 173.645 140.458 173.645 139.797V139.781C173.645 139.115 173.546 138.547 173.348 138.078C173.155 137.609 172.874 137.253 172.504 137.008C172.135 136.758 171.684 136.633 171.153 136.633C170.622 136.633 170.171 136.758 169.801 137.008C169.431 137.253 169.148 137.609 168.95 138.078C168.757 138.547 168.661 139.115 168.661 139.781V139.797C168.661 140.458 168.757 141.023 168.95 141.492C169.148 141.961 169.431 142.32 169.801 142.57C170.171 142.82 170.622 142.945 171.153 142.945ZM184.47 144.148C183.684 144.148 183.002 143.969 182.423 143.609C181.845 143.25 181.397 142.742 181.08 142.086C180.762 141.43 180.603 140.656 180.603 139.766V139.75C180.603 138.875 180.759 138.115 181.072 137.469C181.39 136.823 181.838 136.323 182.416 135.969C182.994 135.609 183.676 135.43 184.463 135.43C185.145 135.43 185.733 135.549 186.228 135.789C186.723 136.029 187.119 136.352 187.416 136.758C187.713 137.159 187.903 137.609 187.986 138.109L187.994 138.156H186.642L186.634 138.133C186.53 137.716 186.293 137.362 185.923 137.07C185.554 136.779 185.067 136.633 184.463 136.633C183.957 136.633 183.52 136.76 183.15 137.016C182.78 137.271 182.494 137.633 182.291 138.102C182.093 138.565 181.994 139.115 181.994 139.75V139.766C181.994 140.411 182.095 140.974 182.298 141.453C182.502 141.927 182.788 142.294 183.158 142.555C183.528 142.815 183.963 142.945 184.463 142.945C185.03 142.945 185.494 142.823 185.853 142.578C186.213 142.333 186.47 141.977 186.627 141.508L186.642 141.461L187.986 141.453L187.97 141.539C187.856 142.044 187.653 142.495 187.361 142.891C187.069 143.281 186.684 143.589 186.205 143.812C185.726 144.036 185.147 144.148 184.47 144.148ZM193.129 144.148C192.332 144.148 191.642 143.974 191.059 143.625C190.481 143.271 190.033 142.768 189.715 142.117C189.402 141.466 189.246 140.693 189.246 139.797V139.781C189.246 138.88 189.402 138.104 189.715 137.453C190.033 136.802 190.481 136.302 191.059 135.953C191.642 135.604 192.332 135.43 193.129 135.43C193.931 135.43 194.621 135.604 195.199 135.953C195.777 136.302 196.223 136.802 196.535 137.453C196.853 138.104 197.012 138.88 197.012 139.781V139.797C197.012 140.693 196.853 141.466 196.535 142.117C196.223 142.768 195.777 143.271 195.199 143.625C194.621 143.974 193.931 144.148 193.129 144.148ZM193.129 142.945C193.66 142.945 194.111 142.82 194.481 142.57C194.85 142.32 195.132 141.961 195.324 141.492C195.522 141.023 195.621 140.458 195.621 139.797V139.781C195.621 139.115 195.522 138.547 195.324 138.078C195.132 137.609 194.85 137.253 194.481 137.008C194.111 136.758 193.66 136.633 193.129 136.633C192.598 136.633 192.147 136.758 191.777 137.008C191.408 137.253 191.124 137.609 190.926 138.078C190.733 138.547 190.637 139.115 190.637 139.781V139.797C190.637 140.458 190.733 141.023 190.926 141.492C191.124 141.961 191.408 142.32 191.777 142.57C192.147 142.82 192.598 142.945 193.129 142.945ZM198.811 144V135.578H200.171V136.844H200.296C200.509 136.396 200.816 136.049 201.217 135.805C201.619 135.555 202.129 135.43 202.749 135.43C203.697 135.43 204.423 135.701 204.928 136.242C205.439 136.779 205.694 137.547 205.694 138.547V144H204.335V138.875C204.335 138.115 204.173 137.552 203.85 137.188C203.533 136.818 203.038 136.633 202.366 136.633C201.918 136.633 201.53 136.729 201.202 136.922C200.874 137.115 200.619 137.388 200.436 137.742C200.259 138.096 200.171 138.521 200.171 139.016V144H198.811ZM210.837 144.062C209.973 144.062 209.345 143.888 208.954 143.539C208.569 143.19 208.376 142.615 208.376 141.812V136.703H207.048V135.578H208.376V133.398H209.783V135.578H211.626V136.703H209.783V141.469C209.783 141.964 209.876 142.32 210.064 142.539C210.251 142.753 210.564 142.859 211.001 142.859C211.121 142.859 211.223 142.857 211.306 142.852C211.394 142.846 211.501 142.839 211.626 142.828V143.984C211.496 144.005 211.366 144.023 211.236 144.039C211.105 144.055 210.973 144.062 210.837 144.062ZM213.379 144V135.578H214.738V144H213.379ZM214.066 133.953C213.811 133.953 213.59 133.862 213.402 133.68C213.22 133.492 213.129 133.271 213.129 133.016C213.129 132.755 213.22 132.534 213.402 132.352C213.59 132.169 213.811 132.078 214.066 132.078C214.327 132.078 214.548 132.169 214.73 132.352C214.913 132.534 215.004 132.755 215.004 133.016C215.004 133.271 214.913 133.492 214.73 133.68C214.548 133.862 214.327 133.953 214.066 133.953ZM216.991 144V135.578H218.35V136.844H218.475C218.689 136.396 218.996 136.049 219.397 135.805C219.798 135.555 220.308 135.43 220.928 135.43C221.876 135.43 222.603 135.701 223.108 136.242C223.618 136.779 223.873 137.547 223.873 138.547V144H222.514V138.875C222.514 138.115 222.353 137.552 222.03 137.188C221.712 136.818 221.217 136.633 220.545 136.633C220.097 136.633 219.709 136.729 219.381 136.922C219.053 137.115 218.798 137.388 218.616 137.742C218.439 138.096 218.35 138.521 218.35 139.016V144H216.991ZM228.845 144.148C228.209 144.148 227.675 144.029 227.243 143.789C226.811 143.544 226.485 143.19 226.267 142.727C226.053 142.258 225.946 141.693 225.946 141.031V135.578H227.306V140.703C227.306 141.458 227.451 142.021 227.743 142.391C228.04 142.76 228.524 142.945 229.196 142.945C229.566 142.945 229.892 142.891 230.173 142.781C230.459 142.672 230.699 142.516 230.892 142.312C231.084 142.104 231.228 141.854 231.321 141.562C231.42 141.266 231.47 140.932 231.47 140.562V135.578H232.829V144H231.47V142.742H231.345C231.209 143.039 231.024 143.294 230.79 143.508C230.556 143.716 230.274 143.875 229.946 143.984C229.623 144.094 229.256 144.148 228.845 144.148ZM238.496 144.148C237.694 144.148 237.003 143.971 236.425 143.617C235.852 143.263 235.41 142.763 235.097 142.117C234.79 141.466 234.636 140.701 234.636 139.82V139.812C234.636 138.943 234.79 138.18 235.097 137.523C235.41 136.867 235.85 136.354 236.418 135.984C236.985 135.615 237.649 135.43 238.41 135.43C239.175 135.43 239.832 135.607 240.378 135.961C240.931 136.315 241.352 136.81 241.644 137.445C241.941 138.076 242.089 138.81 242.089 139.648V140.18H235.339V139.094H241.394L240.722 140.086V139.547C240.722 138.885 240.623 138.341 240.425 137.914C240.227 137.487 239.954 137.169 239.605 136.961C239.256 136.747 238.855 136.641 238.402 136.641C237.949 136.641 237.543 136.753 237.183 136.977C236.829 137.195 236.548 137.521 236.339 137.953C236.131 138.385 236.027 138.917 236.027 139.547V140.086C236.027 140.685 236.128 141.198 236.332 141.625C236.535 142.047 236.824 142.372 237.199 142.602C237.574 142.826 238.016 142.938 238.527 142.938C238.907 142.938 239.238 142.885 239.519 142.781C239.8 142.677 240.032 142.544 240.214 142.383C240.397 142.221 240.524 142.057 240.597 141.891L240.628 141.82H241.988L241.972 141.883C241.899 142.169 241.769 142.448 241.582 142.719C241.399 142.984 241.162 143.227 240.871 143.445C240.579 143.659 240.233 143.831 239.832 143.961C239.436 144.086 238.99 144.148 238.496 144.148Z" fill="white"/>
<rect x="24" y="173" width="308" height="48" rx="8" fill="#FFFBFF"/>
<rect x="24.5" y="173.5" width="307" height="47" rx="7.5" stroke="#007AFF" stroke-opacity="0.15"/>
<path d="M38 190L46.1649 195.715C46.8261 196.178 47.1567 196.41 47.5163 196.499C47.8339 196.578 48.1661 196.578 48.4837 196.499C48.8433 196.41 49.1739 196.178 49.8351 195.715L58 190M42.8 203H53.2C54.8802 203 55.7202 203 56.362 202.673C56.9265 202.385 57.3854 201.926 57.673 201.362C58 200.72 58 199.88 58 198.2V191.8C58 190.12 58 189.28 57.673 188.638C57.3854 188.074 56.9265 187.615 56.362 187.327C55.7202 187 54.8802 187 53.2 187H42.8C41.1198 187 40.2798 187 39.638 187.327C39.0735 187.615 38.6146 188.074 38.327 188.638C38 189.28 38 190.12 38 191.8V198.2C38 199.88 38 200.72 38.327 201.362C38.6146 201.926 39.0735 202.385 39.638 202.673C40.2798 203 41.1198 203 42.8 203Z" stroke="#007AFF" stroke-width="2" stroke-linecap="round" stroke-linejoin="round"/>
<path d="M64.7188 191V185.363H68.2109V185.996H65.4219V187.805H68.0664V188.43H65.4219V190.367H68.2109V191H64.7188ZM69.3184 191V186.789H69.9981V187.43H70.0606C70.1544 187.203 70.2976 187.027 70.4903 186.902C70.6856 186.777 70.9213 186.715 71.1973 186.715C71.3874 186.715 71.558 186.746 71.7091 186.809C71.8601 186.871 71.9903 186.958 72.0997 187.07C72.2091 187.18 72.2963 187.307 72.3614 187.453H72.4239C72.4994 187.305 72.601 187.176 72.7286 187.066C72.8562 186.954 73.0033 186.868 73.17 186.809C73.3393 186.746 73.5203 186.715 73.713 186.715C73.9994 186.715 74.2416 186.768 74.4395 186.875C74.6401 186.982 74.7924 187.138 74.8966 187.344C75.0007 187.547 75.0528 187.796 75.0528 188.09V191H74.3731V188.246C74.3731 188.038 74.3406 187.866 74.2755 187.73C74.213 187.592 74.1166 187.49 73.9864 187.422C73.8562 187.352 73.6921 187.316 73.4942 187.316C73.2989 187.316 73.1283 187.361 72.9825 187.449C72.8367 187.538 72.7234 187.656 72.6427 187.805C72.5619 187.951 72.5216 188.113 72.5216 188.293V191H71.8419V188.141C71.8419 187.974 71.8054 187.829 71.7325 187.707C71.6622 187.582 71.5606 187.486 71.4278 187.418C71.2976 187.35 71.144 187.316 70.9669 187.316C70.7846 187.316 70.6192 187.365 70.4708 187.461C70.3249 187.557 70.2091 187.688 70.1231 187.852C70.0398 188.013 69.9981 188.193 69.9981 188.391V191H69.3184ZM77.3556 191.074C77.09 191.074 76.8504 191.023 76.6369 190.922C76.4259 190.82 76.258 190.676 76.133 190.488C76.0106 190.301 75.9494 190.079 75.9494 189.824V189.816C75.9494 189.566 76.0093 189.353 76.1291 189.176C76.2489 188.996 76.4233 188.855 76.6525 188.754C76.8817 188.652 77.159 188.592 77.4845 188.574L79.0314 188.48V189.023L77.5666 189.117C77.2463 189.135 77.0119 189.202 76.8634 189.316C76.7176 189.431 76.6447 189.592 76.6447 189.801V189.809C76.6447 190.022 76.7254 190.189 76.8869 190.309C77.0483 190.426 77.2515 190.484 77.4963 190.484C77.728 190.484 77.9338 190.439 78.1134 190.348C78.2931 190.254 78.4338 190.128 78.5353 189.969C78.6395 189.81 78.6916 189.63 78.6916 189.43V188.117C78.6916 187.857 78.6121 187.659 78.4533 187.523C78.297 187.385 78.0614 187.316 77.7463 187.316C77.4936 187.316 77.2866 187.362 77.1252 187.453C76.9637 187.542 76.8556 187.668 76.8009 187.832L76.797 187.844H76.1173L76.1213 187.82C76.1577 187.599 76.2489 187.406 76.3947 187.242C76.5431 187.076 76.7345 186.947 76.9689 186.855C77.2033 186.762 77.4702 186.715 77.7697 186.715C78.1134 186.715 78.4038 186.771 78.6408 186.883C78.8804 186.995 79.0614 187.156 79.1838 187.367C79.3088 187.576 79.3713 187.826 79.3713 188.117V191H78.6916V190.379H78.6291C78.5405 190.527 78.4324 190.654 78.3048 190.758C78.1798 190.862 78.0379 190.941 77.8791 190.996C77.7202 191.048 77.5457 191.074 77.3556 191.074ZM80.5491 191V186.789H81.2288V191H80.5491ZM80.8928 185.977C80.7652 185.977 80.6545 185.931 80.5608 185.84C80.4696 185.746 80.4241 185.635 80.4241 185.508C80.4241 185.378 80.4696 185.267 80.5608 185.176C80.6545 185.085 80.7652 185.039 80.8928 185.039C81.023 185.039 81.1337 185.085 81.2248 185.176C81.316 185.267 81.3616 185.378 81.3616 185.508C81.3616 185.635 81.316 185.746 81.2248 185.84C81.1337 185.931 81.023 185.977 80.8928 185.977ZM82.4691 191V185.117H83.1488V191H82.4691ZM86.1802 191L88.2583 185.363H88.7973V186.273H88.5747L86.9184 191H86.1802ZM87.1216 189.387L87.3403 188.789H89.8872L90.1059 189.387H87.1216ZM90.2934 191L88.6372 186.273V185.363H88.9536L91.0317 191H90.2934ZM93.1744 191.074C92.8202 191.074 92.5103 190.984 92.2447 190.805C91.9791 190.625 91.7733 190.372 91.6275 190.047C91.4817 189.719 91.4088 189.336 91.4088 188.898V188.891C91.4088 188.451 91.4817 188.068 91.6275 187.742C91.7733 187.417 91.9778 187.164 92.2408 186.984C92.5064 186.805 92.8176 186.715 93.1744 186.715C93.3671 186.715 93.5481 186.746 93.7173 186.809C93.8892 186.868 94.0416 186.953 94.1744 187.062C94.3072 187.172 94.4114 187.302 94.4869 187.453H94.5494V185.117H95.2291V191H94.5494V190.328H94.4869C94.4009 190.484 94.2929 190.618 94.1627 190.73C94.0324 190.84 93.884 190.924 93.7173 190.984C93.5507 191.044 93.3697 191.074 93.1744 191.074ZM93.3306 190.473C93.5858 190.473 93.8059 190.409 93.9908 190.281C94.1757 190.154 94.3176 189.973 94.4166 189.738C94.5155 189.501 94.565 189.221 94.565 188.898V188.891C94.565 188.565 94.5155 188.285 94.4166 188.051C94.3176 187.816 94.1757 187.635 93.9908 187.508C93.8059 187.38 93.5858 187.316 93.3306 187.316C93.0754 187.316 92.8554 187.38 92.6705 187.508C92.4882 187.633 92.3476 187.812 92.2486 188.047C92.1522 188.281 92.1041 188.562 92.1041 188.891V188.898C92.1041 189.224 92.1522 189.505 92.2486 189.742C92.3476 189.977 92.4882 190.158 92.6705 190.285C92.8554 190.41 93.0754 190.473 93.3306 190.473ZM98.0084 191.074C97.6543 191.074 97.3444 190.984 97.0788 190.805C96.8131 190.625 96.6074 190.372 96.4616 190.047C96.3157 189.719 96.2428 189.336 96.2428 188.898V188.891C96.2428 188.451 96.3157 188.068 96.4616 187.742C96.6074 187.417 96.8118 187.164 97.0748 186.984C97.3405 186.805 97.6517 186.715 98.0084 186.715C98.2011 186.715 98.3821 186.746 98.5514 186.809C98.7233 186.868 98.8756 186.953 99.0084 187.062C99.1413 187.172 99.2454 187.302 99.3209 187.453H99.3834V185.117H100.063V191H99.3834V190.328H99.3209C99.235 190.484 99.1269 190.618 98.9967 190.73C98.8665 190.84 98.7181 190.924 98.5514 190.984C98.3847 191.044 98.2038 191.074 98.0084 191.074ZM98.1647 190.473C98.4199 190.473 98.6399 190.409 98.8248 190.281C99.0097 190.154 99.1517 189.973 99.2506 189.738C99.3496 189.501 99.3991 189.221 99.3991 188.898V188.891C99.3991 188.565 99.3496 188.285 99.2506 188.051C99.1517 187.816 99.0097 187.635 98.8248 187.508C98.6399 187.38 98.4199 187.316 98.1647 187.316C97.9095 187.316 97.6894 187.38 97.5045 187.508C97.3222 187.633 97.1816 187.812 97.0827 188.047C96.9863 188.281 96.9381 188.562 96.9381 188.891V188.898C96.9381 189.224 96.9863 189.505 97.0827 189.742C97.1816 189.977 97.3222 190.158 97.5045 190.285C97.6894 190.41 97.9095 190.473 98.1647 190.473ZM101.288 191V186.789H101.967V187.414H102.03C102.111 187.193 102.247 187.021 102.44 186.898C102.633 186.776 102.871 186.715 103.155 186.715C103.22 186.715 103.284 186.719 103.346 186.727C103.412 186.732 103.461 186.737 103.495 186.742V187.402C103.425 187.389 103.356 187.38 103.288 187.375C103.223 187.367 103.152 187.363 103.077 187.363C102.861 187.363 102.669 187.406 102.503 187.492C102.336 187.578 102.204 187.698 102.108 187.852C102.014 188.005 101.967 188.185 101.967 188.391V191H101.288ZM105.856 191.074C105.455 191.074 105.11 190.986 104.821 190.809C104.535 190.632 104.313 190.382 104.157 190.059C104.003 189.733 103.927 189.35 103.927 188.91V188.906C103.927 188.471 104.003 188.09 104.157 187.762C104.313 187.434 104.533 187.177 104.817 186.992C105.101 186.807 105.433 186.715 105.813 186.715C106.196 186.715 106.524 186.803 106.798 186.98C107.074 187.158 107.285 187.405 107.43 187.723C107.579 188.038 107.653 188.405 107.653 188.824V189.09H104.278V188.547H107.305L106.97 189.043V188.773C106.97 188.443 106.92 188.171 106.821 187.957C106.722 187.743 106.585 187.585 106.411 187.48C106.236 187.374 106.036 187.32 105.809 187.32C105.583 187.32 105.38 187.376 105.2 187.488C105.023 187.598 104.882 187.76 104.778 187.977C104.674 188.193 104.622 188.458 104.622 188.773V189.043C104.622 189.342 104.673 189.599 104.774 189.812C104.876 190.023 105.02 190.186 105.208 190.301C105.395 190.413 105.617 190.469 105.872 190.469C106.062 190.469 106.227 190.443 106.368 190.391C106.509 190.339 106.624 190.272 106.716 190.191C106.807 190.111 106.871 190.029 106.907 189.945L106.923 189.91H107.602L107.595 189.941C107.558 190.085 107.493 190.224 107.399 190.359C107.308 190.492 107.19 190.613 107.044 190.723C106.898 190.829 106.725 190.915 106.524 190.98C106.326 191.043 106.104 191.074 105.856 191.074ZM110.073 191.074C109.761 191.074 109.485 191.027 109.245 190.934C109.005 190.837 108.813 190.703 108.667 190.531C108.524 190.359 108.439 190.158 108.413 189.926H109.108C109.166 190.1 109.278 190.241 109.444 190.348C109.611 190.454 109.828 190.508 110.097 190.508C110.287 190.508 110.453 190.48 110.597 190.426C110.742 190.368 110.857 190.292 110.94 190.195C111.024 190.096 111.065 189.983 111.065 189.855V189.848C111.065 189.704 111.008 189.583 110.893 189.484C110.779 189.383 110.591 189.301 110.331 189.238L109.679 189.082C109.416 189.02 109.199 188.939 109.03 188.84C108.861 188.738 108.736 188.615 108.655 188.469C108.574 188.32 108.534 188.146 108.534 187.945V187.941C108.534 187.707 108.602 187.497 108.737 187.312C108.875 187.128 109.063 186.982 109.3 186.875C109.537 186.768 109.804 186.715 110.1 186.715C110.395 186.715 110.655 186.762 110.882 186.855C111.111 186.947 111.294 187.077 111.432 187.246C111.573 187.415 111.659 187.615 111.69 187.844H111.022C110.978 187.677 110.877 187.542 110.718 187.438C110.559 187.333 110.352 187.281 110.097 187.281C109.93 187.281 109.781 187.309 109.651 187.363C109.521 187.415 109.418 187.488 109.343 187.582C109.267 187.676 109.229 187.785 109.229 187.91V187.918C109.229 188.012 109.254 188.095 109.304 188.168C109.353 188.241 109.43 188.305 109.534 188.359C109.638 188.414 109.772 188.462 109.936 188.504L110.585 188.66C110.981 188.757 111.275 188.895 111.468 189.074C111.663 189.254 111.761 189.495 111.761 189.797V189.805C111.761 190.055 111.686 190.276 111.538 190.469C111.39 190.659 111.188 190.807 110.932 190.914C110.68 191.021 110.393 191.074 110.073 191.074ZM114.103 191.074C113.79 191.074 113.514 191.027 113.274 190.934C113.035 190.837 112.842 190.703 112.696 190.531C112.553 190.359 112.468 190.158 112.442 189.926H113.138C113.195 190.1 113.307 190.241 113.474 190.348C113.64 190.454 113.858 190.508 114.126 190.508C114.316 190.508 114.483 190.48 114.626 190.426C114.772 190.368 114.886 190.292 114.97 190.195C115.053 190.096 115.095 189.983 115.095 189.855V189.848C115.095 189.704 115.037 189.583 114.923 189.484C114.808 189.383 114.621 189.301 114.36 189.238L113.708 189.082C113.445 189.02 113.229 188.939 113.06 188.84C112.89 188.738 112.765 188.615 112.685 188.469C112.604 188.32 112.563 188.146 112.563 187.945V187.941C112.563 187.707 112.631 187.497 112.767 187.312C112.905 187.128 113.092 186.982 113.329 186.875C113.566 186.768 113.833 186.715 114.13 186.715C114.424 186.715 114.685 186.762 114.911 186.855C115.14 186.947 115.324 187.077 115.462 187.246C115.603 187.415 115.688 187.615 115.72 187.844H115.052C115.007 187.677 114.906 187.542 114.747 187.438C114.588 187.333 114.381 187.281 114.126 187.281C113.959 187.281 113.811 187.309 113.681 187.363C113.55 187.415 113.448 187.488 113.372 187.582C113.297 187.676 113.259 187.785 113.259 187.91V187.918C113.259 188.012 113.283 188.095 113.333 188.168C113.382 188.241 113.459 188.305 113.563 188.359C113.668 188.414 113.802 188.462 113.966 188.504L114.614 188.66C115.01 188.757 115.304 188.895 115.497 189.074C115.692 189.254 115.79 189.495 115.79 189.797V189.805C115.79 190.055 115.716 190.276 115.567 190.469C115.419 190.659 115.217 190.807 114.962 190.914C114.709 191.021 114.423 191.074 114.103 191.074Z" fill="#007AFF"/>
<path d="M67.5273 208.111C66.9258 208.111 66.4082 207.979 65.9746 207.713C65.5449 207.447 65.2129 207.072 64.9785 206.588C64.748 206.1 64.6328 205.525 64.6328 204.865V204.859C64.6328 204.207 64.748 203.635 64.9785 203.143C65.2129 202.65 65.543 202.266 65.9688 201.988C66.3945 201.711 66.8926 201.572 67.4629 201.572C68.0371 201.572 68.5293 201.705 68.9395 201.971C69.3535 202.236 69.6699 202.607 69.8887 203.084C70.1113 203.557 70.2227 204.107 70.2227 204.736V205.135H65.1602V204.32H69.7012L69.1973 205.064V204.66C69.1973 204.164 69.123 203.756 68.9746 203.436C68.8262 203.115 68.6211 202.877 68.3594 202.721C68.0977 202.561 67.7969 202.48 67.457 202.48C67.1172 202.48 66.8125 202.564 66.543 202.732C66.2773 202.896 66.0664 203.141 65.9102 203.465C65.7539 203.789 65.6758 204.188 65.6758 204.66V205.064C65.6758 205.514 65.752 205.898 65.9043 206.219C66.0566 206.535 66.2734 206.779 66.5547 206.951C66.8359 207.119 67.168 207.203 67.5508 207.203C67.8359 207.203 68.084 207.164 68.2949 207.086C68.5059 207.008 68.6797 206.908 68.8164 206.787C68.9531 206.666 69.0488 206.543 69.1035 206.418L69.127 206.365H70.1465L70.1348 206.412C70.0801 206.627 69.9824 206.836 69.8418 207.039C69.7051 207.238 69.5273 207.42 69.3086 207.584C69.0898 207.744 68.8301 207.873 68.5293 207.971C68.2324 208.064 67.8984 208.111 67.5273 208.111ZM70.9864 208L73.1485 204.842L70.963 201.684H72.1641L73.6641 204.033H73.7579L75.2403 201.684H76.3829L74.2384 204.801L76.4122 208H75.2169L73.7227 205.615H73.629L72.129 208H70.9864ZM79.4377 208.111C79.0392 208.111 78.6798 208.035 78.3595 207.883C78.0431 207.73 77.7912 207.514 77.6037 207.232C77.4201 206.951 77.3283 206.619 77.3283 206.236V206.225C77.3283 205.85 77.4181 205.529 77.5978 205.264C77.7775 204.994 78.0392 204.783 78.383 204.631C78.7267 204.479 79.1427 204.389 79.631 204.361L81.9513 204.221V205.035L79.7541 205.176C79.2736 205.203 78.922 205.303 78.6994 205.475C78.4806 205.646 78.3713 205.889 78.3713 206.201V206.213C78.3713 206.533 78.4923 206.783 78.7345 206.963C78.9767 207.139 79.2814 207.227 79.6486 207.227C79.9963 207.227 80.3048 207.158 80.5744 207.021C80.8439 206.881 81.0548 206.691 81.2072 206.453C81.3634 206.215 81.4416 205.945 81.4416 205.645V203.676C81.4416 203.285 81.3224 202.988 81.0841 202.785C80.8498 202.578 80.4963 202.475 80.0236 202.475C79.6447 202.475 79.3341 202.543 79.092 202.68C78.8498 202.812 78.6877 203.002 78.6056 203.248L78.5998 203.266H77.5802L77.5861 203.23C77.6408 202.898 77.7775 202.609 77.9963 202.363C78.2189 202.113 78.506 201.92 78.8576 201.783C79.2091 201.643 79.6095 201.572 80.0588 201.572C80.5744 201.572 81.0099 201.656 81.3654 201.824C81.7248 201.992 81.9963 202.234 82.1798 202.551C82.3673 202.863 82.4611 203.238 82.4611 203.676V208H81.4416V207.068H81.3478C81.215 207.291 81.0529 207.48 80.8615 207.637C80.674 207.793 80.4611 207.912 80.2228 207.994C79.9845 208.072 79.7228 208.111 79.4377 208.111ZM84.2444 208V201.684H85.2639V202.645H85.3577C85.4983 202.305 85.7131 202.041 86.0022 201.854C86.2952 201.666 86.6487 201.572 87.0627 201.572C87.3479 201.572 87.6038 201.619 87.8303 201.713C88.0569 201.807 88.2522 201.938 88.4163 202.105C88.5803 202.27 88.7112 202.461 88.8088 202.68H88.9026C89.0159 202.457 89.1682 202.264 89.3596 202.1C89.551 201.932 89.7717 201.803 90.0217 201.713C90.2756 201.619 90.5471 201.572 90.8362 201.572C91.2659 201.572 91.6291 201.652 91.926 201.812C92.2268 201.973 92.4553 202.207 92.6116 202.516C92.7678 202.82 92.8459 203.193 92.8459 203.635V208H91.8264V203.869C91.8264 203.557 91.7776 203.299 91.6799 203.096C91.5862 202.889 91.4416 202.734 91.2463 202.633C91.051 202.527 90.8049 202.475 90.508 202.475C90.2151 202.475 89.9592 202.541 89.7405 202.674C89.5217 202.807 89.3518 202.984 89.2307 203.207C89.1096 203.426 89.0491 203.67 89.0491 203.939V208H88.0295V203.711C88.0295 203.461 87.9748 203.244 87.8655 203.061C87.76 202.873 87.6077 202.729 87.4084 202.627C87.2131 202.525 86.9827 202.475 86.717 202.475C86.4436 202.475 86.1955 202.547 85.9729 202.691C85.7541 202.836 85.5803 203.031 85.4514 203.277C85.3264 203.52 85.2639 203.789 85.2639 204.086V208H84.2444ZM94.6058 210.109V201.684H95.6253V202.691H95.7191C95.848 202.457 96.0101 202.258 96.2054 202.094C96.4007 201.926 96.6234 201.797 96.8734 201.707C97.1234 201.617 97.3948 201.572 97.6878 201.572C98.223 201.572 98.6878 201.709 99.0823 201.982C99.4808 202.252 99.7894 202.631 100.008 203.119C100.227 203.607 100.336 204.18 100.336 204.836V204.848C100.336 205.508 100.227 206.082 100.008 206.57C99.7894 207.059 99.4808 207.438 99.0823 207.707C98.6878 207.977 98.223 208.111 97.6878 208.111C97.3988 208.111 97.1253 208.066 96.8675 207.977C96.6136 207.883 96.387 207.754 96.1878 207.59C95.9925 207.426 95.8363 207.23 95.7191 207.004H95.6253V210.109H94.6058ZM97.4534 207.209C97.8402 207.209 98.1702 207.115 98.4437 206.928C98.7171 206.736 98.9261 206.465 99.0706 206.113C99.2191 205.758 99.2933 205.336 99.2933 204.848V204.836C99.2933 204.344 99.2191 203.922 99.0706 203.57C98.9261 203.219 98.7171 202.949 98.4437 202.762C98.1702 202.57 97.8402 202.475 97.4534 202.475C97.0706 202.475 96.7405 202.57 96.4632 202.762C96.1859 202.953 95.973 203.225 95.8245 203.576C95.6761 203.928 95.6019 204.348 95.6019 204.836V204.848C95.6019 205.332 95.6761 205.752 95.8245 206.107C95.973 206.459 96.1859 206.73 96.4632 206.922C96.7405 207.113 97.0706 207.209 97.4534 207.209ZM101.909 208V199.176H102.928V208H101.909ZM107.383 208.111C106.782 208.111 106.264 207.979 105.831 207.713C105.401 207.447 105.069 207.072 104.834 206.588C104.604 206.1 104.489 205.525 104.489 204.865V204.859C104.489 204.207 104.604 203.635 104.834 203.143C105.069 202.65 105.399 202.266 105.825 201.988C106.25 201.711 106.749 201.572 107.319 201.572C107.893 201.572 108.385 201.705 108.795 201.971C109.209 202.236 109.526 202.607 109.745 203.084C109.967 203.557 110.079 204.107 110.079 204.736V205.135H105.016V204.32H109.557L109.053 205.064V204.66C109.053 204.164 108.979 203.756 108.831 203.436C108.682 203.115 108.477 202.877 108.215 202.721C107.954 202.561 107.653 202.48 107.313 202.48C106.973 202.48 106.668 202.564 106.399 202.732C106.133 202.896 105.922 203.141 105.766 203.465C105.61 203.789 105.532 204.188 105.532 204.66V205.064C105.532 205.514 105.608 205.898 105.76 206.219C105.913 206.535 106.129 206.779 106.411 206.951C106.692 207.119 107.024 207.203 107.407 207.203C107.692 207.203 107.94 207.164 108.151 207.086C108.362 207.008 108.536 206.908 108.672 206.787C108.809 206.666 108.905 206.543 108.959 206.418L108.983 206.365H110.002L109.991 206.412C109.936 206.627 109.838 206.836 109.698 207.039C109.561 207.238 109.383 207.42 109.165 207.584C108.946 207.744 108.686 207.873 108.385 207.971C108.088 208.064 107.754 208.111 107.383 208.111ZM113.749 208.111C113.28 208.111 112.866 208.041 112.506 207.9C112.147 207.756 111.858 207.555 111.639 207.297C111.424 207.039 111.297 206.736 111.258 206.389H112.301C112.387 206.65 112.555 206.861 112.805 207.021C113.055 207.182 113.381 207.262 113.784 207.262C114.069 207.262 114.319 207.221 114.534 207.139C114.752 207.053 114.924 206.938 115.049 206.793C115.174 206.645 115.237 206.475 115.237 206.283V206.271C115.237 206.057 115.151 205.875 114.979 205.727C114.807 205.574 114.526 205.451 114.135 205.357L113.157 205.123C112.762 205.029 112.438 204.908 112.184 204.76C111.93 204.607 111.743 204.422 111.622 204.203C111.501 203.98 111.44 203.719 111.44 203.418V203.412C111.44 203.061 111.542 202.746 111.745 202.469C111.952 202.191 112.233 201.973 112.588 201.812C112.944 201.652 113.344 201.572 113.79 201.572C114.231 201.572 114.622 201.643 114.961 201.783C115.305 201.92 115.581 202.115 115.788 202.369C115.999 202.623 116.127 202.922 116.174 203.266H115.172C115.106 203.016 114.954 202.812 114.715 202.656C114.477 202.5 114.167 202.422 113.784 202.422C113.534 202.422 113.311 202.463 113.116 202.545C112.92 202.623 112.766 202.732 112.653 202.873C112.54 203.014 112.483 203.178 112.483 203.365V203.377C112.483 203.518 112.52 203.643 112.594 203.752C112.669 203.861 112.784 203.957 112.94 204.039C113.096 204.121 113.297 204.193 113.544 204.256L114.516 204.49C115.11 204.635 115.551 204.842 115.84 205.111C116.133 205.381 116.28 205.742 116.28 206.195V206.207C116.28 206.582 116.169 206.914 115.946 207.203C115.723 207.488 115.42 207.711 115.038 207.871C114.659 208.031 114.229 208.111 113.749 208.111ZM122.61 209.371C121.856 209.371 121.174 209.258 120.565 209.031C119.956 208.805 119.436 208.477 119.006 208.047C118.577 207.621 118.247 207.107 118.016 206.506C117.786 205.904 117.671 205.23 117.671 204.484V204.473C117.671 203.75 117.786 203.09 118.016 202.492C118.251 201.895 118.583 201.379 119.012 200.945C119.442 200.512 119.952 200.178 120.542 199.943C121.135 199.709 121.792 199.592 122.51 199.592C123.436 199.592 124.251 199.775 124.954 200.143C125.661 200.506 126.214 201.012 126.612 201.66C127.01 202.305 127.21 203.051 127.21 203.898V203.91C127.21 204.543 127.12 205.094 126.94 205.562C126.76 206.027 126.505 206.389 126.173 206.646C125.844 206.9 125.456 207.027 125.006 207.027C124.671 207.027 124.383 206.941 124.145 206.77C123.911 206.594 123.77 206.363 123.723 206.078L123.717 206.043H123.624C123.499 206.34 123.309 206.57 123.055 206.734C122.801 206.895 122.503 206.975 122.159 206.975C121.753 206.975 121.395 206.871 121.087 206.664C120.782 206.453 120.544 206.162 120.372 205.791C120.204 205.42 120.12 204.986 120.12 204.49V204.479C120.12 204.006 120.206 203.588 120.378 203.225C120.553 202.861 120.794 202.578 121.098 202.375C121.407 202.168 121.76 202.064 122.159 202.064C122.467 202.064 122.745 202.139 122.991 202.287C123.237 202.436 123.417 202.637 123.53 202.891H123.624V202.176H124.508V205.615C124.508 205.818 124.565 205.979 124.678 206.096C124.796 206.209 124.96 206.266 125.171 206.266C125.417 206.266 125.63 206.168 125.809 205.973C125.993 205.777 126.133 205.502 126.231 205.146C126.333 204.791 126.383 204.375 126.383 203.898V203.887C126.383 203.184 126.217 202.564 125.885 202.029C125.553 201.494 125.09 201.078 124.497 200.781C123.903 200.48 123.215 200.33 122.434 200.33C121.86 200.33 121.333 200.434 120.852 200.641C120.376 200.844 119.96 201.133 119.604 201.508C119.253 201.883 118.979 202.324 118.784 202.832C118.592 203.34 118.497 203.898 118.497 204.508V204.52C118.497 205.352 118.667 206.076 119.006 206.693C119.346 207.307 119.825 207.781 120.442 208.117C121.059 208.457 121.786 208.627 122.622 208.627C122.891 208.627 123.151 208.615 123.401 208.592C123.655 208.568 123.885 208.535 124.092 208.492C124.299 208.449 124.464 208.4 124.585 208.346V209.084C124.323 209.174 124.02 209.244 123.676 209.295C123.337 209.346 122.981 209.371 122.61 209.371ZM122.294 206.148C122.696 206.148 123.016 206 123.255 205.703C123.493 205.406 123.612 205.01 123.612 204.514V204.502C123.612 204.002 123.493 203.605 123.255 203.312C123.02 203.02 122.704 202.873 122.305 202.873C122.044 202.873 121.819 202.938 121.631 203.066C121.448 203.195 121.305 203.383 121.204 203.629C121.106 203.871 121.057 204.162 121.057 204.502V204.514C121.057 204.85 121.106 205.141 121.204 205.387C121.305 205.633 121.448 205.822 121.631 205.955C121.819 206.084 122.04 206.148 122.294 206.148ZM131.319 210.227C130.811 210.227 130.368 210.154 129.989 210.01C129.61 209.869 129.307 209.668 129.081 209.406C128.858 209.148 128.719 208.848 128.665 208.504L128.676 208.498H129.731L129.737 208.504C129.792 208.742 129.956 208.938 130.229 209.09C130.503 209.246 130.866 209.324 131.319 209.324C131.885 209.324 132.327 209.195 132.643 208.938C132.964 208.684 133.124 208.324 133.124 207.859V206.582H133.03C132.897 206.812 132.731 207.01 132.532 207.174C132.333 207.338 132.108 207.463 131.858 207.549C131.608 207.631 131.339 207.672 131.05 207.672C130.507 207.672 130.036 207.543 129.637 207.285C129.243 207.023 128.938 206.664 128.723 206.207C128.509 205.75 128.401 205.227 128.401 204.637V204.625C128.401 204.035 128.509 203.512 128.723 203.055C128.942 202.594 129.251 202.232 129.649 201.971C130.048 201.705 130.522 201.572 131.073 201.572C131.37 201.572 131.643 201.619 131.893 201.713C132.143 201.807 132.364 201.939 132.555 202.111C132.751 202.283 132.913 202.488 133.042 202.727H133.112V201.684H134.132V207.912C134.132 208.381 134.016 208.789 133.786 209.137C133.559 209.484 133.235 209.752 132.813 209.939C132.391 210.131 131.893 210.227 131.319 210.227ZM131.272 206.77C131.663 206.77 131.997 206.68 132.274 206.5C132.555 206.316 132.77 206.064 132.919 205.744C133.071 205.424 133.147 205.055 133.147 204.637V204.625C133.147 204.207 133.071 203.836 132.919 203.512C132.77 203.188 132.555 202.934 132.274 202.75C131.997 202.566 131.663 202.475 131.272 202.475C130.882 202.475 130.55 202.566 130.276 202.75C130.007 202.934 129.8 203.188 129.655 203.512C129.514 203.836 129.444 204.207 129.444 204.625V204.637C129.444 205.055 129.514 205.424 129.655 205.744C129.8 206.064 130.007 206.316 130.276 206.5C130.55 206.68 130.882 206.77 131.272 206.77ZM135.95 208V201.684H136.97V202.645H137.063C137.204 202.305 137.419 202.041 137.708 201.854C138.001 201.666 138.354 201.572 138.768 201.572C139.054 201.572 139.309 201.619 139.536 201.713C139.762 201.807 139.958 201.938 140.122 202.105C140.286 202.27 140.417 202.461 140.514 202.68H140.608C140.721 202.457 140.874 202.264 141.065 202.1C141.257 201.932 141.477 201.803 141.727 201.713C141.981 201.619 142.253 201.572 142.542 201.572C142.971 201.572 143.335 201.652 143.632 201.812C143.932 201.973 144.161 202.207 144.317 202.516C144.473 202.82 144.552 203.193 144.552 203.635V208H143.532V203.869C143.532 203.557 143.483 203.299 143.386 203.096C143.292 202.889 143.147 202.734 142.952 202.633C142.757 202.527 142.511 202.475 142.214 202.475C141.921 202.475 141.665 202.541 141.446 202.674C141.227 202.807 141.057 202.984 140.936 203.207C140.815 203.426 140.755 203.67 140.755 203.939V208H139.735V203.711C139.735 203.461 139.68 203.244 139.571 203.061C139.466 202.873 139.313 202.729 139.114 202.627C138.919 202.525 138.688 202.475 138.423 202.475C138.149 202.475 137.901 202.547 137.679 202.691C137.46 202.836 137.286 203.031 137.157 203.277C137.032 203.52 136.97 203.789 136.97 204.086V208H135.95ZM148.046 208.111C147.647 208.111 147.288 208.035 146.968 207.883C146.651 207.73 146.399 207.514 146.212 207.232C146.028 206.951 145.936 206.619 145.936 206.236V206.225C145.936 205.85 146.026 205.529 146.206 205.264C146.386 204.994 146.647 204.783 146.991 204.631C147.335 204.479 147.751 204.389 148.239 204.361L150.559 204.221V205.035L148.362 205.176C147.882 205.203 147.53 205.303 147.308 205.475C147.089 205.646 146.979 205.889 146.979 206.201V206.213C146.979 206.533 147.1 206.783 147.343 206.963C147.585 207.139 147.89 207.227 148.257 207.227C148.604 207.227 148.913 207.158 149.183 207.021C149.452 206.881 149.663 206.691 149.815 206.453C149.972 206.215 150.05 205.945 150.05 205.645V203.676C150.05 203.285 149.931 202.988 149.692 202.785C149.458 202.578 149.104 202.475 148.632 202.475C148.253 202.475 147.942 202.543 147.7 202.68C147.458 202.812 147.296 203.002 147.214 203.248L147.208 203.266H146.188L146.194 203.23C146.249 202.898 146.386 202.609 146.604 202.363C146.827 202.113 147.114 201.92 147.466 201.783C147.817 201.643 148.218 201.572 148.667 201.572C149.183 201.572 149.618 201.656 149.974 201.824C150.333 201.992 150.604 202.234 150.788 202.551C150.975 202.863 151.069 203.238 151.069 203.676V208H150.05V207.068H149.956C149.823 207.291 149.661 207.48 149.47 207.637C149.282 207.793 149.069 207.912 148.831 207.994C148.593 208.072 148.331 208.111 148.046 208.111ZM152.876 208V201.684H153.895V208H152.876ZM153.392 200.465C153.2 200.465 153.034 200.396 152.894 200.26C152.757 200.119 152.688 199.953 152.688 199.762C152.688 199.566 152.757 199.4 152.894 199.264C153.034 199.127 153.2 199.059 153.392 199.059C153.587 199.059 153.753 199.127 153.89 199.264C154.026 199.4 154.095 199.566 154.095 199.762C154.095 199.953 154.026 200.119 153.89 200.26C153.753 200.396 153.587 200.465 153.392 200.465ZM155.796 208V199.176H156.815V208H155.796ZM164.571 208.111C163.982 208.111 163.47 207.977 163.036 207.707C162.603 207.438 162.267 207.057 162.029 206.564C161.79 206.072 161.671 205.492 161.671 204.824V204.812C161.671 204.156 161.788 203.586 162.023 203.102C162.261 202.617 162.597 202.242 163.03 201.977C163.464 201.707 163.976 201.572 164.566 201.572C165.077 201.572 165.519 201.662 165.89 201.842C166.261 202.021 166.558 202.264 166.78 202.568C167.003 202.869 167.146 203.207 167.208 203.582L167.214 203.617H166.2L166.195 203.6C166.116 203.287 165.939 203.021 165.661 202.803C165.384 202.584 165.019 202.475 164.566 202.475C164.187 202.475 163.859 202.57 163.581 202.762C163.304 202.953 163.089 203.225 162.937 203.576C162.788 203.924 162.714 204.336 162.714 204.812V204.824C162.714 205.309 162.79 205.73 162.943 206.09C163.095 206.445 163.31 206.721 163.587 206.916C163.864 207.111 164.191 207.209 164.566 207.209C164.991 207.209 165.339 207.117 165.609 206.934C165.878 206.75 166.071 206.482 166.189 206.131L166.2 206.096L167.208 206.09L167.196 206.154C167.111 206.533 166.958 206.871 166.739 207.168C166.521 207.461 166.232 207.691 165.872 207.859C165.513 208.027 165.079 208.111 164.571 208.111ZM171.218 208.111C170.62 208.111 170.103 207.98 169.665 207.719C169.232 207.453 168.896 207.076 168.658 206.588C168.423 206.1 168.306 205.52 168.306 204.848V204.836C168.306 204.16 168.423 203.578 168.658 203.09C168.896 202.602 169.232 202.227 169.665 201.965C170.103 201.703 170.62 201.572 171.218 201.572C171.82 201.572 172.337 201.703 172.771 201.965C173.204 202.227 173.538 202.602 173.773 203.09C174.011 203.578 174.13 204.16 174.13 204.836V204.848C174.13 205.52 174.011 206.1 173.773 206.588C173.538 207.076 173.204 207.453 172.771 207.719C172.337 207.98 171.82 208.111 171.218 208.111ZM171.218 207.209C171.616 207.209 171.954 207.115 172.232 206.928C172.509 206.74 172.72 206.471 172.865 206.119C173.013 205.768 173.087 205.344 173.087 204.848V204.836C173.087 204.336 173.013 203.91 172.865 203.559C172.72 203.207 172.509 202.939 172.232 202.756C171.954 202.568 171.616 202.475 171.218 202.475C170.82 202.475 170.482 202.568 170.204 202.756C169.927 202.939 169.714 203.207 169.566 203.559C169.421 203.91 169.349 204.336 169.349 204.836V204.848C169.349 205.344 169.421 205.768 169.566 206.119C169.714 206.471 169.927 206.74 170.204 206.928C170.482 207.115 170.82 207.209 171.218 207.209ZM175.632 208V201.684H176.652V202.645H176.745C176.886 202.305 177.101 202.041 177.39 201.854C177.683 201.666 178.036 201.572 178.451 201.572C178.736 201.572 178.992 201.619 179.218 201.713C179.445 201.807 179.64 201.938 179.804 202.105C179.968 202.27 180.099 202.461 180.197 202.68H180.29C180.404 202.457 180.556 202.264 180.747 202.1C180.939 201.932 181.16 201.803 181.41 201.713C181.663 201.619 181.935 201.572 182.224 201.572C182.654 201.572 183.017 201.652 183.314 201.812C183.615 201.973 183.843 202.207 183.999 202.516C184.156 202.82 184.234 203.193 184.234 203.635V208H183.214V203.869C183.214 203.557 183.165 203.299 183.068 203.096C182.974 202.889 182.829 202.734 182.634 202.633C182.439 202.527 182.193 202.475 181.896 202.475C181.603 202.475 181.347 202.541 181.128 202.674C180.91 202.807 180.74 202.984 180.619 203.207C180.497 203.426 180.437 203.67 180.437 203.939V208H179.417V203.711C179.417 203.461 179.363 203.244 179.253 203.061C179.148 202.873 178.995 202.729 178.796 202.627C178.601 202.525 178.37 202.475 178.105 202.475C177.831 202.475 177.583 202.547 177.361 202.691C177.142 202.836 176.968 203.031 176.839 203.277C176.714 203.52 176.652 203.789 176.652 204.086V208H175.632Z" fill="#007AFF"/>
<path d="M306.743 190.092C307.149 190.032 307.569 190 308 190C313.105 190 316.455 194.505 317.581 196.287C317.717 196.503 317.785 196.61 317.823 196.777C317.852 196.902 317.852 197.099 317.823 197.224C317.785 197.39 317.716 197.498 317.579 197.716C317.279 198.19 316.822 198.857 316.216 199.58M302.724 191.715C300.562 193.182 299.094 195.219 298.421 196.285C298.284 196.502 298.216 196.61 298.178 196.776C298.149 196.901 298.149 197.098 298.178 197.223C298.216 197.39 298.284 197.498 298.42 197.713C299.546 199.495 302.895 204 308 204C310.059 204 311.832 203.268 313.289 202.277M299 188L317 206M305.879 194.879C305.336 195.422 305 196.172 305 197C305 198.657 306.344 200 308 200C308.829 200 309.579 199.664 310.122 199.121" stroke="#252329" stroke-width="2" stroke-linecap="round" stroke-linejoin="round"/>
<rect x="24" y="229" width="308" height="48" rx="8" fill="#FFFBFF"/>
<rect x="24.5" y="229.5" width="307" height="47" rx="7.5" stroke="#007AFF" stroke-opacity="0.15"/>
<path d="M43 249V247C43 244.239 45.2386 242 48 242C50.0503 242 51.8124 243.234 52.584 245M48 253.5V255.5M44.8 260H51.2C52.8802 260 53.7202 260 54.362 259.673C54.9265 259.385 55.3854 258.926 55.673 258.362C56 257.72 56 256.88 56 255.2V253.8C56 252.12 56 251.28 55.673 250.638C55.3854 250.074 54.9265 249.615 54.362 249.327C53.7202 249 52.8802 249 51.2 249H44.8C43.1198 249 42.2798 249 41.638 249.327C41.0735 249.615 40.6146 250.074 40.327 250.638C40 251.28 40 252.12 40 253.8V255.2C40 256.88 40 257.72 40.327 258.362C40.6146 258.926 41.0735 259.385 41.638 259.673C42.2798 260 43.1198 260 44.8 260Z" stroke="#007AFF" stroke-width="2" stroke-linecap="round" stroke-linejoin="round"/>
<path d="M65.0703 244.988V244.363H66.6641C67.0677 244.363 67.3802 244.259 67.6016 244.051C67.8229 243.84 67.9336 243.549 67.9336 243.18V243.172C67.9336 242.799 67.8229 242.509 67.6016 242.301C67.3802 242.092 67.0677 241.988 66.6641 241.988H65.0703V241.363H66.8438C67.1979 241.363 67.5104 241.439 67.7812 241.59C68.0521 241.741 68.2643 241.952 68.418 242.223C68.5742 242.493 68.6523 242.807 68.6523 243.164V243.172C68.6523 243.529 68.5742 243.844 68.418 244.117C68.2643 244.391 68.0521 244.604 67.7812 244.758C67.5104 244.911 67.1979 244.988 66.8438 244.988H65.0703ZM64.7188 247V241.363H65.4219V247H64.7188ZM70.6388 247.074C70.3731 247.074 70.1335 247.023 69.92 246.922C69.7091 246.82 69.5411 246.676 69.4161 246.488C69.2937 246.301 69.2325 246.079 69.2325 245.824V245.816C69.2325 245.566 69.2924 245.353 69.4122 245.176C69.532 244.996 69.7065 244.855 69.9356 244.754C70.1648 244.652 70.4421 244.592 70.7677 244.574L72.3145 244.48V245.023L70.8497 245.117C70.5294 245.135 70.295 245.202 70.1466 245.316C70.0007 245.431 69.9278 245.592 69.9278 245.801V245.809C69.9278 246.022 70.0085 246.189 70.17 246.309C70.3315 246.426 70.5346 246.484 70.7794 246.484C71.0111 246.484 71.2169 246.439 71.3966 246.348C71.5763 246.254 71.7169 246.128 71.8184 245.969C71.9226 245.81 71.9747 245.63 71.9747 245.43V244.117C71.9747 243.857 71.8953 243.659 71.7364 243.523C71.5802 243.385 71.3445 243.316 71.0294 243.316C70.7768 243.316 70.5697 243.362 70.4083 243.453C70.2468 243.542 70.1388 243.668 70.0841 243.832L70.0802 243.844H69.4005L69.4044 243.82C69.4408 243.599 69.532 243.406 69.6778 243.242C69.8263 243.076 70.0177 242.947 70.252 242.855C70.4864 242.762 70.7533 242.715 71.0528 242.715C71.3966 242.715 71.6869 242.771 71.9239 242.883C72.1635 242.995 72.3445 243.156 72.4669 243.367C72.5919 243.576 72.6544 243.826 72.6544 244.117V247H71.9747V246.379H71.9122C71.8236 246.527 71.7156 246.654 71.588 246.758C71.463 246.862 71.321 246.941 71.1622 246.996C71.0033 247.048 70.8289 247.074 70.6388 247.074ZM75.2619 247.074C74.9494 247.074 74.6733 247.027 74.4338 246.934C74.1942 246.837 74.0015 246.703 73.8556 246.531C73.7124 246.359 73.6278 246.158 73.6017 245.926H74.297C74.3543 246.1 74.4663 246.241 74.633 246.348C74.7996 246.454 75.0171 246.508 75.2853 246.508C75.4754 246.508 75.6421 246.48 75.7853 246.426C75.9311 246.368 76.0457 246.292 76.1291 246.195C76.2124 246.096 76.2541 245.983 76.2541 245.855V245.848C76.2541 245.704 76.1968 245.583 76.0822 245.484C75.9676 245.383 75.7801 245.301 75.5197 245.238L74.8673 245.082C74.6043 245.02 74.3882 244.939 74.2189 244.84C74.0496 244.738 73.9246 244.615 73.8439 244.469C73.7632 244.32 73.7228 244.146 73.7228 243.945V243.941C73.7228 243.707 73.7905 243.497 73.9259 243.312C74.064 243.128 74.2515 242.982 74.4884 242.875C74.7254 242.768 74.9923 242.715 75.2892 242.715C75.5835 242.715 75.8439 242.762 76.0705 242.855C76.2996 242.947 76.4832 243.077 76.6213 243.246C76.7619 243.415 76.8478 243.615 76.8791 243.844H76.2111C76.1668 243.677 76.0653 243.542 75.9064 243.438C75.7476 243.333 75.5405 243.281 75.2853 243.281C75.1186 243.281 74.9702 243.309 74.84 243.363C74.7098 243.415 74.6069 243.488 74.5314 243.582C74.4559 243.676 74.4181 243.785 74.4181 243.91V243.918C74.4181 244.012 74.4429 244.095 74.4923 244.168C74.5418 244.241 74.6186 244.305 74.7228 244.359C74.827 244.414 74.9611 244.462 75.1252 244.504L75.7736 244.66C76.1694 244.757 76.4637 244.895 76.6564 245.074C76.8517 245.254 76.9494 245.495 76.9494 245.797V245.805C76.9494 246.055 76.8752 246.276 76.7267 246.469C76.5783 246.659 76.3765 246.807 76.1213 246.914C75.8686 247.021 75.5822 247.074 75.2619 247.074ZM79.2913 247.074C78.9788 247.074 78.7027 247.027 78.4631 246.934C78.2235 246.837 78.0308 246.703 77.885 246.531C77.7418 246.359 77.6571 246.158 77.6311 245.926H78.3264C78.3837 246.1 78.4957 246.241 78.6623 246.348C78.829 246.454 79.0465 246.508 79.3147 246.508C79.5048 246.508 79.6715 246.48 79.8147 246.426C79.9605 246.368 80.0751 246.292 80.1584 246.195C80.2418 246.096 80.2834 245.983 80.2834 245.855V245.848C80.2834 245.704 80.2261 245.583 80.1116 245.484C79.997 245.383 79.8095 245.301 79.5491 245.238L78.8967 245.082C78.6337 245.02 78.4176 244.939 78.2483 244.84C78.079 244.738 77.954 244.615 77.8733 244.469C77.7926 244.32 77.7522 244.146 77.7522 243.945V243.941C77.7522 243.707 77.8199 243.497 77.9553 243.312C78.0933 243.128 78.2808 242.982 78.5178 242.875C78.7548 242.768 79.0217 242.715 79.3186 242.715C79.6129 242.715 79.8733 242.762 80.0998 242.855C80.329 242.947 80.5126 243.077 80.6506 243.246C80.7913 243.415 80.8772 243.615 80.9084 243.844H80.2405C80.1962 243.677 80.0946 243.542 79.9358 243.438C79.7769 243.333 79.5699 243.281 79.3147 243.281C79.148 243.281 78.9996 243.309 78.8694 243.363C78.7392 243.415 78.6363 243.488 78.5608 243.582C78.4853 243.676 78.4475 243.785 78.4475 243.91V243.918C78.4475 244.012 78.4722 244.095 78.5217 244.168C78.5712 244.241 78.648 244.305 78.7522 244.359C78.8564 244.414 78.9905 244.462 79.1545 244.504L79.803 244.66C80.1988 244.757 80.4931 244.895 80.6858 245.074C80.8811 245.254 80.9788 245.495 80.9788 245.797V245.805C80.9788 246.055 80.9045 246.276 80.7561 246.469C80.6077 246.659 80.4058 246.807 80.1506 246.914C79.898 247.021 79.6116 247.074 79.2913 247.074ZM82.6488 247L81.4691 242.789H82.1488L82.9769 246.156H83.0394L83.9808 242.789H84.6253L85.5667 246.156H85.6292L86.4573 242.789H87.1331L85.9534 247H85.2698L84.3284 243.742H84.2659L83.3284 247H82.6488ZM89.5258 247.074C89.1273 247.074 88.7823 246.987 88.4906 246.812C88.2016 246.635 87.9776 246.384 87.8188 246.059C87.6625 245.733 87.5844 245.346 87.5844 244.898V244.891C87.5844 244.44 87.6625 244.052 87.8188 243.727C87.9776 243.401 88.2016 243.151 88.4906 242.977C88.7823 242.802 89.1273 242.715 89.5258 242.715C89.9268 242.715 90.2719 242.802 90.5609 242.977C90.85 243.151 91.0727 243.401 91.2289 243.727C91.3878 244.052 91.4672 244.44 91.4672 244.891V244.898C91.4672 245.346 91.3878 245.733 91.2289 246.059C91.0727 246.384 90.85 246.635 90.5609 246.812C90.2719 246.987 89.9268 247.074 89.5258 247.074ZM89.5258 246.473C89.7914 246.473 90.0167 246.41 90.2016 246.285C90.3865 246.16 90.5271 245.98 90.6234 245.746C90.7224 245.512 90.7719 245.229 90.7719 244.898V244.891C90.7719 244.557 90.7224 244.273 90.6234 244.039C90.5271 243.805 90.3865 243.626 90.2016 243.504C90.0167 243.379 89.7914 243.316 89.5258 243.316C89.2602 243.316 89.0349 243.379 88.85 243.504C88.6651 243.626 88.5232 243.805 88.4242 244.039C88.3279 244.273 88.2797 244.557 88.2797 244.891V244.898C88.2797 245.229 88.3279 245.512 88.4242 245.746C88.5232 245.98 88.6651 246.16 88.85 246.285C89.0349 246.41 89.2602 246.473 89.5258 246.473ZM92.4419 247V242.789H93.1216V243.414H93.1841C93.2648 243.193 93.4015 243.021 93.5942 242.898C93.7869 242.776 94.0252 242.715 94.3091 242.715C94.3742 242.715 94.438 242.719 94.5005 242.727C94.5656 242.732 94.6151 242.737 94.6489 242.742V243.402C94.5786 243.389 94.5096 243.38 94.4419 243.375C94.3768 243.367 94.3065 243.363 94.2309 243.363C94.0148 243.363 93.8234 243.406 93.6567 243.492C93.4901 243.578 93.3585 243.698 93.2622 243.852C93.1684 244.005 93.1216 244.185 93.1216 244.391V247H92.4419ZM96.8463 247.074C96.4921 247.074 96.1822 246.984 95.9166 246.805C95.6509 246.625 95.4452 246.372 95.2994 246.047C95.1535 245.719 95.0806 245.336 95.0806 244.898V244.891C95.0806 244.451 95.1535 244.068 95.2994 243.742C95.4452 243.417 95.6496 243.164 95.9127 242.984C96.1783 242.805 96.4895 242.715 96.8463 242.715C97.039 242.715 97.2199 242.746 97.3892 242.809C97.5611 242.868 97.7134 242.953 97.8463 243.062C97.9791 243.172 98.0832 243.302 98.1588 243.453H98.2213V241.117H98.9009V247H98.2213V246.328H98.1588C98.0728 246.484 97.9647 246.618 97.8345 246.73C97.7043 246.84 97.5559 246.924 97.3892 246.984C97.2226 247.044 97.0416 247.074 96.8463 247.074ZM97.0025 246.473C97.2577 246.473 97.4778 246.409 97.6627 246.281C97.8476 246.154 97.9895 245.973 98.0884 245.738C98.1874 245.501 98.2369 245.221 98.2369 244.898V244.891C98.2369 244.565 98.1874 244.285 98.0884 244.051C97.9895 243.816 97.8476 243.635 97.6627 243.508C97.4778 243.38 97.2577 243.316 97.0025 243.316C96.7473 243.316 96.5272 243.38 96.3423 243.508C96.1601 243.633 96.0194 243.812 95.9205 244.047C95.8241 244.281 95.7759 244.562 95.7759 244.891V244.898C95.7759 245.224 95.8241 245.505 95.9205 245.742C96.0194 245.977 96.1601 246.158 96.3423 246.285C96.5272 246.41 96.7473 246.473 97.0025 246.473Z" fill="#007AFF"/>
<path d="M66.4316 255.65H67.2344L67.1465 257.707H66.5195L66.4316 255.65ZM66.4316 259.758L66.5195 257.707H67.1465L67.2344 259.758H66.4316ZM64.8555 256.986L65.2539 256.365L66.9883 257.461L66.6719 257.947L64.8555 256.986ZM68.8047 256.986L66.9883 257.947L66.6719 257.461L68.4062 256.365L68.8047 256.986ZM68.8047 258.422L68.4062 259.043L66.6719 257.947L66.9883 257.461L68.8047 258.422ZM64.8555 258.422L66.6719 257.461L66.9883 257.947L65.2539 259.043L64.8555 258.422ZM72.0118 255.65H72.8145L72.7266 257.707H72.0997L72.0118 255.65ZM72.0118 259.758L72.0997 257.707H72.7266L72.8145 259.758H72.0118ZM70.4356 256.986L70.8341 256.365L72.5684 257.461L72.252 257.947L70.4356 256.986ZM74.3848 256.986L72.5684 257.947L72.252 257.461L73.9864 256.365L74.3848 256.986ZM74.3848 258.422L73.9864 259.043L72.252 257.947L72.5684 257.461L74.3848 258.422ZM70.4356 258.422L72.252 257.461L72.5684 257.947L70.8341 259.043L70.4356 258.422ZM77.592 255.65H78.3947L78.3068 257.707H77.6798L77.592 255.65ZM77.592 259.758L77.6798 257.707H78.3068L78.3947 259.758H77.592ZM76.0158 256.986L76.4142 256.365L78.1486 257.461L77.8322 257.947L76.0158 256.986ZM79.965 256.986L78.1486 257.947L77.8322 257.461L79.5666 256.365L79.965 256.986ZM79.965 258.422L79.5666 259.043L77.8322 257.947L78.1486 257.461L79.965 258.422ZM76.0158 258.422L77.8322 257.461L78.1486 257.947L76.4142 259.043L76.0158 258.422ZM83.1721 255.65H83.9748L83.887 257.707H83.26L83.1721 255.65ZM83.1721 259.758L83.26 257.707H83.887L83.9748 259.758H83.1721ZM81.5959 256.986L81.9944 256.365L83.7288 257.461L83.4123 257.947L81.5959 256.986ZM85.5452 256.986L83.7288 257.947L83.4123 257.461L85.1467 256.365L85.5452 256.986ZM85.5452 258.422L85.1467 259.043L83.4123 257.947L83.7288 257.461L85.5452 258.422ZM81.5959 258.422L83.4123 257.461L83.7288 257.947L81.9944 259.043L81.5959 258.422ZM88.7523 255.65H89.555L89.4671 257.707H88.8402L88.7523 255.65ZM88.7523 259.758L88.8402 257.707H89.4671L89.555 259.758H88.7523ZM87.1761 256.986L87.5745 256.365L89.3089 257.461L88.9925 257.947L87.1761 256.986ZM91.1253 256.986L89.3089 257.947L88.9925 257.461L90.7269 256.365L91.1253 256.986ZM91.1253 258.422L90.7269 259.043L88.9925 257.947L89.3089 257.461L91.1253 258.422ZM87.1761 258.422L88.9925 257.461L89.3089 257.947L87.5745 259.043L87.1761 258.422ZM94.3324 255.65H95.1352L95.0473 257.707H94.4203L94.3324 255.65ZM94.3324 259.758L94.4203 257.707H95.0473L95.1352 259.758H94.3324ZM92.7563 256.986L93.1547 256.365L94.8891 257.461L94.5727 257.947L92.7563 256.986ZM96.7055 256.986L94.8891 257.947L94.5727 257.461L96.307 256.365L96.7055 256.986ZM96.7055 258.422L96.307 259.043L94.5727 257.947L94.8891 257.461L96.7055 258.422ZM92.7563 258.422L94.5727 257.461L94.8891 257.947L93.1547 259.043L92.7563 258.422ZM99.9126 255.65H100.715L100.627 257.707H100L99.9126 255.65ZM99.9126 259.758L100 257.707H100.627L100.715 259.758H99.9126ZM98.3364 256.986L98.7348 256.365L100.469 257.461L100.153 257.947L98.3364 256.986ZM102.286 256.986L100.469 257.947L100.153 257.461L101.887 256.365L102.286 256.986ZM102.286 258.422L101.887 259.043L100.153 257.947L100.469 257.461L102.286 258.422ZM98.3364 258.422L100.153 257.461L100.469 257.947L98.7348 259.043L98.3364 258.422ZM105.493 255.65H106.295L106.208 257.707H105.581L105.493 255.65ZM105.493 259.758L105.581 257.707H106.208L106.295 259.758H105.493ZM103.917 256.986L104.315 256.365L106.049 257.461L105.733 257.947L103.917 256.986ZM107.866 256.986L106.049 257.947L105.733 257.461L107.467 256.365L107.866 256.986ZM107.866 258.422L107.467 259.043L105.733 257.947L106.049 257.461L107.866 258.422ZM103.917 258.422L105.733 257.461L106.049 257.947L104.315 259.043L103.917 258.422ZM111.073 255.65H111.876L111.788 257.707H111.161L111.073 255.65ZM111.073 259.758L111.161 257.707H111.788L111.876 259.758H111.073ZM109.497 256.986L109.895 256.365L111.63 257.461L111.313 257.947L109.497 256.986ZM113.446 256.986L111.63 257.947L111.313 257.461L113.048 256.365L113.446 256.986ZM113.446 258.422L113.048 259.043L111.313 257.947L111.63 257.461L113.446 258.422ZM109.497 258.422L111.313 257.461L111.63 257.947L109.895 259.043L109.497 258.422ZM116.653 255.65H117.456L117.368 257.707H116.741L116.653 255.65ZM116.653 259.758L116.741 257.707H117.368L117.456 259.758H116.653ZM115.077 256.986L115.475 256.365L117.21 257.461L116.893 257.947L115.077 256.986ZM119.026 256.986L117.21 257.947L116.893 257.461L118.628 256.365L119.026 256.986ZM119.026 258.422L118.628 259.043L116.893 257.947L117.21 257.461L119.026 258.422ZM115.077 258.422L116.893 257.461L117.21 257.947L115.475 259.043L115.077 258.422Z" fill="#007AFF"/>
<path d="M306.743 246.092C307.149 246.032 307.569 246 308 246C313.105 246 316.455 250.505 317.581 252.287C317.717 252.503 317.785 252.61 317.823 252.777C317.852 252.902 317.852 253.099 317.823 253.224C317.785 253.39 317.716 253.498 317.579 253.716C317.279 254.19 316.822 254.857 316.216 255.58M302.724 247.715C300.562 249.182 299.094 251.219 298.421 252.285C298.284 252.502 298.216 252.61 298.178 252.776C298.149 252.901 298.149 253.098 298.178 253.223C298.216 253.39 298.284 253.498 298.42 253.713C299.546 255.495 302.895 260 308 260C310.059 260 311.832 259.268 313.289 258.277M299 244L317 262M305.879 250.879C305.336 251.422 305 252.172 305 253C305 254.657 306.344 256 308 256C308.829 256 309.579 255.664 310.122 255.121" stroke="#252329" stroke-width="2" stroke-linecap="round" stroke-linejoin="round"/>
<path d="M24.8984 295V287.954H29.1758V288.745H25.7773V291.167H28.8975V291.948H25.7773V295H24.8984ZM32.5968 295.093C32.0987 295.093 31.6674 294.984 31.3028 294.766C30.9415 294.544 30.6615 294.23 30.463 293.823C30.2677 293.416 30.17 292.933 30.17 292.373V292.363C30.17 291.8 30.2677 291.315 30.463 290.908C30.6615 290.501 30.9415 290.189 31.3028 289.971C31.6674 289.753 32.0987 289.644 32.5968 289.644C33.0981 289.644 33.5294 289.753 33.8907 289.971C34.252 290.189 34.5304 290.501 34.7257 290.908C34.9242 291.315 35.0235 291.8 35.0235 292.363V292.373C35.0235 292.933 34.9242 293.416 34.7257 293.823C34.5304 294.23 34.252 294.544 33.8907 294.766C33.5294 294.984 33.0981 295.093 32.5968 295.093ZM32.5968 294.341C32.9288 294.341 33.2104 294.263 33.4415 294.106C33.6726 293.95 33.8484 293.726 33.9688 293.433C34.0925 293.14 34.1544 292.786 34.1544 292.373V292.363C34.1544 291.947 34.0925 291.592 33.9688 291.299C33.8484 291.006 33.6726 290.783 33.4415 290.63C33.2104 290.474 32.9288 290.396 32.5968 290.396C32.2647 290.396 31.9832 290.474 31.752 290.63C31.5209 290.783 31.3435 291.006 31.2198 291.299C31.0994 291.592 31.0391 291.947 31.0391 292.363V292.373C31.0391 292.786 31.0994 293.14 31.2198 293.433C31.3435 293.726 31.5209 293.95 31.752 294.106C31.9832 294.263 32.2647 294.341 32.5968 294.341ZM36.2619 295V289.736H37.1115V290.518H37.1896C37.2905 290.241 37.4614 290.026 37.7023 289.873C37.9432 289.72 38.241 289.644 38.5959 289.644C38.6772 289.644 38.757 289.648 38.8351 289.658C38.9165 289.665 38.9783 289.671 39.0207 289.678V290.503C38.9328 290.487 38.8465 290.475 38.7619 290.469C38.6805 290.459 38.5926 290.454 38.4982 290.454C38.228 290.454 37.9888 290.508 37.7804 290.615C37.5721 290.723 37.4077 290.872 37.2873 291.064C37.1701 291.257 37.1115 291.481 37.1115 291.738V295H36.2619ZM42.012 296.855C41.5888 296.855 41.2193 296.795 40.9036 296.675C40.5878 296.558 40.3355 296.39 40.1467 296.172C39.9612 295.957 39.8456 295.706 39.8 295.42L39.8098 295.415H40.6887L40.6936 295.42C40.7392 295.618 40.8759 295.781 41.1038 295.908C41.3316 296.038 41.6343 296.104 42.012 296.104C42.484 296.104 42.8518 295.996 43.1155 295.781C43.3824 295.57 43.5159 295.27 43.5159 294.883V293.818H43.4377C43.3271 294.01 43.1887 294.175 43.0227 294.312C42.8567 294.448 42.6695 294.552 42.4612 294.624C42.2528 294.692 42.0282 294.727 41.7873 294.727C41.3349 294.727 40.9426 294.619 40.6106 294.404C40.2818 294.186 40.0279 293.887 39.8489 293.506C39.6698 293.125 39.5803 292.689 39.5803 292.197V292.188C39.5803 291.696 39.6698 291.26 39.8489 290.879C40.0312 290.495 40.2883 290.194 40.6204 289.976C40.9524 289.754 41.3479 289.644 41.8069 289.644C42.0543 289.644 42.2821 289.683 42.4905 289.761C42.6988 289.839 42.8827 289.95 43.0422 290.093C43.205 290.236 43.3401 290.407 43.4475 290.605H43.5061V289.736H44.3557V294.927C44.3557 295.317 44.2597 295.658 44.0676 295.947C43.8788 296.237 43.6086 296.46 43.2571 296.616C42.9055 296.776 42.4905 296.855 42.012 296.855ZM41.9729 293.975C42.2984 293.975 42.5767 293.9 42.8079 293.75C43.0422 293.597 43.2213 293.387 43.345 293.12C43.4719 292.853 43.5354 292.546 43.5354 292.197V292.188C43.5354 291.839 43.4719 291.53 43.345 291.26C43.2213 290.99 43.0422 290.778 42.8079 290.625C42.5767 290.472 42.2984 290.396 41.9729 290.396C41.6474 290.396 41.3707 290.472 41.1428 290.625C40.9182 290.778 40.7457 290.99 40.6252 291.26C40.508 291.53 40.4495 291.839 40.4495 292.188V292.197C40.4495 292.546 40.508 292.853 40.6252 293.12C40.7457 293.387 40.9182 293.597 41.1428 293.75C41.3707 293.9 41.6474 293.975 41.9729 293.975ZM48.0208 295.093C47.5228 295.093 47.0915 294.984 46.7269 294.766C46.3655 294.544 46.0856 294.23 45.887 293.823C45.6917 293.416 45.5941 292.933 45.5941 292.373V292.363C45.5941 291.8 45.6917 291.315 45.887 290.908C46.0856 290.501 46.3655 290.189 46.7269 289.971C47.0915 289.753 47.5228 289.644 48.0208 289.644C48.5221 289.644 48.9534 289.753 49.3148 289.971C49.6761 290.189 49.9544 290.501 50.1497 290.908C50.3483 291.315 50.4476 291.8 50.4476 292.363V292.373C50.4476 292.933 50.3483 293.416 50.1497 293.823C49.9544 294.23 49.6761 294.544 49.3148 294.766C48.9534 294.984 48.5221 295.093 48.0208 295.093ZM48.0208 294.341C48.3529 294.341 48.6344 294.263 48.8655 294.106C49.0967 293.95 49.2724 293.726 49.3929 293.433C49.5166 293.14 49.5784 292.786 49.5784 292.373V292.363C49.5784 291.947 49.5166 291.592 49.3929 291.299C49.2724 291.006 49.0967 290.783 48.8655 290.63C48.6344 290.474 48.3529 290.396 48.0208 290.396C47.6888 290.396 47.4072 290.474 47.1761 290.63C46.945 290.783 46.7676 291.006 46.6439 291.299C46.5234 291.592 46.4632 291.947 46.4632 292.363V292.373C46.4632 292.786 46.5234 293.14 46.6439 293.433C46.7676 293.726 46.945 293.95 47.1761 294.106C47.4072 294.263 47.6888 294.341 48.0208 294.341ZM53.5561 295.039C53.0157 295.039 52.6234 294.93 52.3793 294.712C52.1384 294.494 52.018 294.134 52.018 293.633V290.439H51.1879V289.736H52.018V288.374H52.8969V289.736H54.0492V290.439H52.8969V293.418C52.8969 293.727 52.9555 293.95 53.0727 294.087C53.1898 294.22 53.3852 294.287 53.6586 294.287C53.7335 294.287 53.7969 294.285 53.849 294.282C53.9044 294.279 53.9711 294.274 54.0492 294.268V294.99C53.9678 295.003 53.8865 295.015 53.8051 295.024C53.7237 295.034 53.6407 295.039 53.5561 295.039ZM57.9712 296.758V289.736H58.8209V290.576H58.899C59.0064 290.381 59.1415 290.215 59.3043 290.078C59.467 289.938 59.6526 289.831 59.8609 289.756C60.0692 289.681 60.2955 289.644 60.5396 289.644C60.9856 289.644 61.3729 289.757 61.7017 289.985C62.0337 290.21 62.2909 290.526 62.4732 290.933C62.6555 291.34 62.7466 291.816 62.7466 292.363V292.373C62.7466 292.923 62.6555 293.402 62.4732 293.809C62.2909 294.215 62.0337 294.531 61.7017 294.756C61.3729 294.98 60.9856 295.093 60.5396 295.093C60.2987 295.093 60.0709 295.055 59.856 294.98C59.6444 294.902 59.4556 294.795 59.2896 294.658C59.1268 294.521 58.9966 294.359 58.899 294.17H58.8209V296.758H57.9712ZM60.3443 294.341C60.6666 294.341 60.9416 294.263 61.1695 294.106C61.3974 293.947 61.5715 293.721 61.692 293.428C61.8156 293.132 61.8775 292.78 61.8775 292.373V292.363C61.8775 291.953 61.8156 291.602 61.692 291.309C61.5715 291.016 61.3974 290.791 61.1695 290.635C60.9416 290.475 60.6666 290.396 60.3443 290.396C60.0253 290.396 59.7502 290.475 59.5191 290.635C59.288 290.794 59.1106 291.021 58.9869 291.313C58.8632 291.606 58.8013 291.956 58.8013 292.363V292.373C58.8013 292.777 58.8632 293.127 58.9869 293.423C59.1106 293.716 59.288 293.942 59.5191 294.102C59.7502 294.261 60.0253 294.341 60.3443 294.341ZM65.4401 295.093C65.108 295.093 64.8086 295.029 64.5416 294.902C64.278 294.775 64.068 294.595 63.9118 294.36C63.7588 294.126 63.6823 293.849 63.6823 293.53V293.521C63.6823 293.208 63.7571 292.941 63.9069 292.72C64.0566 292.495 64.2747 292.319 64.5612 292.192C64.8476 292.065 65.1943 291.991 65.6012 291.968L67.5348 291.851V292.529L65.7038 292.646C65.3034 292.669 65.0104 292.752 64.8248 292.896C64.6426 293.039 64.5514 293.241 64.5514 293.501V293.511C64.5514 293.778 64.6523 293.986 64.8541 294.136C65.056 294.282 65.3099 294.355 65.6159 294.355C65.9056 294.355 66.1627 294.299 66.3873 294.185C66.612 294.067 66.7877 293.91 66.9147 293.711C67.0449 293.512 67.11 293.288 67.11 293.037V291.396C67.11 291.071 67.0107 290.824 66.8121 290.654C66.6168 290.482 66.3222 290.396 65.9284 290.396C65.6126 290.396 65.3538 290.452 65.152 290.566C64.9502 290.677 64.8151 290.835 64.7467 291.04L64.7418 291.055H63.8922L63.8971 291.025C63.9427 290.749 64.0566 290.508 64.2389 290.303C64.4245 290.094 64.6637 289.933 64.9567 289.819C65.2496 289.702 65.5833 289.644 65.9577 289.644C66.3873 289.644 66.7503 289.714 67.0465 289.854C67.346 289.993 67.5722 290.195 67.7252 290.459C67.8815 290.719 67.9596 291.032 67.9596 291.396V295H67.11V294.224H67.0319C66.9212 294.409 66.7861 294.567 66.6266 294.697C66.4704 294.827 66.2929 294.927 66.0944 294.995C65.8958 295.06 65.6777 295.093 65.4401 295.093ZM71.239 295.093C70.8484 295.093 70.5033 295.034 70.2038 294.917C69.9043 294.797 69.6635 294.629 69.4812 294.414C69.3021 294.199 69.1963 293.947 69.1638 293.657H70.0329C70.1045 293.875 70.2445 294.051 70.4529 294.185C70.6612 294.318 70.933 294.385 71.2683 294.385C71.5059 294.385 71.7142 294.351 71.8933 294.282C72.0756 294.211 72.2188 294.115 72.323 293.994C72.4271 293.87 72.4792 293.729 72.4792 293.569V293.56C72.4792 293.381 72.4076 293.229 72.2644 293.105C72.1211 292.979 71.8868 292.876 71.5612 292.798L70.7458 292.603C70.417 292.524 70.1469 292.424 69.9353 292.3C69.7237 292.173 69.5674 292.018 69.4665 291.836C69.3656 291.65 69.3152 291.432 69.3152 291.182V291.177C69.3152 290.884 69.3998 290.622 69.5691 290.391C69.7416 290.16 69.976 289.977 70.2722 289.844C70.5684 289.71 70.9021 289.644 71.2732 289.644C71.641 289.644 71.9665 289.702 72.2497 289.819C72.5362 289.933 72.7657 290.096 72.9382 290.308C73.114 290.519 73.2214 290.768 73.2605 291.055H72.4255C72.3702 290.846 72.2432 290.677 72.0446 290.547C71.8461 290.417 71.5873 290.352 71.2683 290.352C71.0599 290.352 70.8744 290.386 70.7116 290.454C70.5489 290.519 70.4203 290.61 70.3259 290.728C70.2315 290.845 70.1843 290.981 70.1843 291.138V291.147C70.1843 291.265 70.2152 291.369 70.2771 291.46C70.3389 291.551 70.4349 291.631 70.5652 291.699C70.6954 291.768 70.863 291.828 71.0681 291.88L71.8786 292.075C72.3734 292.196 72.7413 292.368 72.9821 292.593C73.2263 292.817 73.3484 293.118 73.3484 293.496V293.506C73.3484 293.818 73.2556 294.095 73.07 294.336C72.8845 294.574 72.6322 294.759 72.3132 294.893C71.9974 295.026 71.6394 295.093 71.239 295.093ZM76.2957 295.093C75.9051 295.093 75.56 295.034 75.2605 294.917C74.9611 294.797 74.7202 294.629 74.5379 294.414C74.3589 294.199 74.2531 293.947 74.2205 293.657H75.0896C75.1613 293.875 75.3012 294.051 75.5096 294.185C75.7179 294.318 75.9897 294.385 76.325 294.385C76.5626 294.385 76.771 294.351 76.95 294.282C77.1323 294.211 77.2755 294.115 77.3797 293.994C77.4839 293.87 77.5359 293.729 77.5359 293.569V293.56C77.5359 293.381 77.4643 293.229 77.3211 293.105C77.1779 292.979 76.9435 292.876 76.618 292.798L75.8025 292.603C75.4738 292.524 75.2036 292.424 74.992 292.3C74.7804 292.173 74.6242 292.018 74.5232 291.836C74.4223 291.65 74.3719 291.432 74.3719 291.182V291.177C74.3719 290.884 74.4565 290.622 74.6258 290.391C74.7983 290.16 75.0327 289.977 75.3289 289.844C75.6251 289.71 75.9588 289.644 76.3299 289.644C76.6977 289.644 77.0232 289.702 77.3064 289.819C77.5929 289.933 77.8224 290.096 77.9949 290.308C78.1707 290.519 78.2781 290.768 78.3172 291.055H77.4822C77.4269 290.846 77.2999 290.677 77.1014 290.547C76.9028 290.417 76.644 290.352 76.325 290.352C76.1167 290.352 75.9311 290.386 75.7684 290.454C75.6056 290.519 75.477 290.61 75.3826 290.728C75.2882 290.845 75.241 290.981 75.241 291.138V291.147C75.241 291.265 75.2719 291.369 75.3338 291.46C75.3956 291.551 75.4917 291.631 75.6219 291.699C75.7521 291.768 75.9197 291.828 76.1248 291.88L76.9354 292.075C77.4301 292.196 77.798 292.368 78.0389 292.593C78.283 292.817 78.4051 293.118 78.4051 293.496V293.506C78.4051 293.818 78.3123 294.095 78.1268 294.336C77.9412 294.574 77.6889 294.759 77.3699 294.893C77.0542 295.026 76.6961 295.093 76.2957 295.093ZM80.5126 295L79.038 289.736H79.8876L80.9227 293.945H81.0009L82.1776 289.736H82.9833L84.16 293.945H84.2382L85.2733 289.736H86.118L84.6434 295H83.7889L82.6122 290.928H82.5341L81.3622 295H80.5126ZM89.1289 295.093C88.6308 295.093 88.1995 294.984 87.8349 294.766C87.4736 294.544 87.1936 294.23 86.9951 293.823C86.7998 293.416 86.7021 292.933 86.7021 292.373V292.363C86.7021 291.8 86.7998 291.315 86.9951 290.908C87.1936 290.501 87.4736 290.189 87.8349 289.971C88.1995 289.753 88.6308 289.644 89.1289 289.644C89.6302 289.644 90.0615 289.753 90.4228 289.971C90.7841 290.189 91.0625 290.501 91.2578 290.908C91.4563 291.315 91.5556 291.8 91.5556 292.363V292.373C91.5556 292.933 91.4563 293.416 91.2578 293.823C91.0625 294.23 90.7841 294.544 90.4228 294.766C90.0615 294.984 89.6302 295.093 89.1289 295.093ZM89.1289 294.341C89.4609 294.341 89.7425 294.263 89.9736 294.106C90.2047 293.95 90.3805 293.726 90.5009 293.433C90.6246 293.14 90.6865 292.786 90.6865 292.373V292.363C90.6865 291.947 90.6246 291.592 90.5009 291.299C90.3805 291.006 90.2047 290.783 89.9736 290.63C89.7425 290.474 89.4609 290.396 89.1289 290.396C88.7968 290.396 88.5153 290.474 88.2841 290.63C88.053 290.783 87.8756 291.006 87.7519 291.299C87.6315 291.592 87.5713 291.947 87.5713 292.363V292.373C87.5713 292.786 87.6315 293.14 87.7519 293.433C87.8756 293.726 88.053 293.95 88.2841 294.106C88.5153 294.263 88.7968 294.341 89.1289 294.341ZM92.794 295V289.736H93.6436V290.518H93.7217C93.8226 290.241 93.9935 290.026 94.2344 289.873C94.4753 289.72 94.7732 289.644 95.128 289.644C95.2093 289.644 95.2891 289.648 95.3672 289.658C95.4486 289.665 95.5105 289.671 95.5528 289.678V290.503C95.4649 290.487 95.3786 290.475 95.294 290.469C95.2126 290.459 95.1247 290.454 95.0303 290.454C94.7601 290.454 94.5209 290.508 94.3125 290.615C94.1042 290.723 93.9398 290.872 93.8194 291.064C93.7022 291.257 93.6436 291.481 93.6436 291.738V295H92.794ZM98.3195 295.093C97.8767 295.093 97.4894 294.98 97.1573 294.756C96.8253 294.531 96.5681 294.215 96.3859 293.809C96.2036 293.398 96.1124 292.92 96.1124 292.373V292.363C96.1124 291.813 96.2036 291.335 96.3859 290.928C96.5681 290.521 96.8237 290.205 97.1525 289.98C97.4845 289.756 97.8735 289.644 98.3195 289.644C98.5603 289.644 98.7866 289.683 98.9982 289.761C99.213 289.836 99.4034 289.941 99.5695 290.078C99.7355 290.215 99.8657 290.378 99.9601 290.566H100.038V287.646H100.888V295H100.038V294.16H99.9601C99.8527 294.355 99.7176 294.523 99.5548 294.663C99.392 294.8 99.2065 294.906 98.9982 294.98C98.7898 295.055 98.5636 295.093 98.3195 295.093ZM98.5148 294.341C98.8338 294.341 99.1088 294.261 99.34 294.102C99.5711 293.942 99.7485 293.716 99.8722 293.423C99.9959 293.127 100.058 292.777 100.058 292.373V292.363C100.058 291.956 99.9959 291.606 99.8722 291.313C99.7485 291.021 99.5711 290.794 99.34 290.635C99.1088 290.475 98.8338 290.396 98.5148 290.396C98.1958 290.396 97.9207 290.475 97.6896 290.635C97.4617 290.791 97.2859 291.016 97.1622 291.309C97.0418 291.602 96.9816 291.953 96.9816 292.363V292.373C96.9816 292.78 97.0418 293.132 97.1622 293.428C97.2859 293.721 97.4617 293.947 97.6896 294.106C97.9207 294.263 98.1958 294.341 98.5148 294.341ZM103.567 292.822V292.373C103.567 292.158 103.601 291.965 103.669 291.792C103.738 291.616 103.845 291.455 103.991 291.309C104.138 291.162 104.322 291.022 104.543 290.889C104.732 290.771 104.883 290.658 104.997 290.547C105.114 290.433 105.199 290.309 105.251 290.176C105.303 290.042 105.329 289.889 105.329 289.717V289.707C105.329 289.505 105.28 289.326 105.183 289.17C105.085 289.014 104.947 288.89 104.768 288.799C104.589 288.708 104.377 288.662 104.133 288.662C103.889 288.662 103.676 288.708 103.493 288.799C103.311 288.89 103.166 289.02 103.059 289.189C102.955 289.359 102.894 289.559 102.878 289.79L102.868 289.795L102.038 289.8V289.79C102.058 289.442 102.149 289.124 102.312 288.838C102.474 288.551 102.71 288.324 103.02 288.154C103.329 287.985 103.711 287.9 104.167 287.9C104.577 287.9 104.937 287.979 105.246 288.135C105.559 288.288 105.801 288.498 105.974 288.765C106.15 289.028 106.238 289.328 106.238 289.663V289.673C106.238 289.927 106.195 290.158 106.111 290.366C106.029 290.571 105.912 290.755 105.759 290.918C105.606 291.081 105.425 291.226 105.217 291.353C105.012 291.473 104.851 291.589 104.734 291.699C104.62 291.81 104.538 291.929 104.489 292.056C104.444 292.183 104.421 292.332 104.421 292.505V292.822H103.567ZM104.06 295.088C103.861 295.088 103.698 295.024 103.571 294.897C103.445 294.771 103.381 294.608 103.381 294.409C103.381 294.207 103.445 294.043 103.571 293.916C103.698 293.789 103.861 293.726 104.06 293.726C104.258 293.726 104.419 293.789 104.543 293.916C104.67 294.043 104.734 294.207 104.734 294.409C104.734 294.608 104.67 294.771 104.543 294.897C104.419 295.024 104.258 295.088 104.06 295.088Z" fill="white"/>
<rect x="24" y="309" width="308" height="48" rx="8" fill="#007AFF"/>
<g clip-path="url(#clip0_3728_81909)">
<path d="M153.375 333.297H155.328C155.266 334.042 155.057 334.706 154.703 335.289C154.349 335.867 153.852 336.323 153.211 336.656C152.57 336.99 151.792 337.156 150.875 337.156C150.172 337.156 149.539 337.031 148.977 336.781C148.414 336.526 147.932 336.167 147.531 335.703C147.13 335.234 146.823 334.669 146.609 334.008C146.401 333.346 146.297 332.607 146.297 331.789V330.844C146.297 330.026 146.404 329.286 146.617 328.625C146.836 327.964 147.148 327.398 147.555 326.93C147.961 326.456 148.448 326.094 149.016 325.844C149.589 325.594 150.232 325.469 150.945 325.469C151.852 325.469 152.617 325.635 153.242 325.969C153.867 326.302 154.352 326.763 154.695 327.352C155.044 327.94 155.258 328.615 155.336 329.375H153.383C153.331 328.885 153.216 328.466 153.039 328.117C152.867 327.768 152.612 327.503 152.273 327.32C151.935 327.133 151.492 327.039 150.945 327.039C150.497 327.039 150.107 327.122 149.773 327.289C149.44 327.456 149.161 327.701 148.938 328.023C148.714 328.346 148.544 328.745 148.43 329.219C148.32 329.688 148.266 330.224 148.266 330.828V331.789C148.266 332.362 148.315 332.883 148.414 333.352C148.518 333.815 148.674 334.214 148.883 334.547C149.096 334.88 149.367 335.138 149.695 335.32C150.023 335.503 150.417 335.594 150.875 335.594C151.432 335.594 151.883 335.505 152.227 335.328C152.576 335.151 152.839 334.893 153.016 334.555C153.198 334.211 153.318 333.792 153.375 333.297ZM156.562 332.867V332.688C156.562 332.078 156.651 331.513 156.828 330.992C157.005 330.466 157.26 330.01 157.594 329.625C157.932 329.234 158.344 328.932 158.828 328.719C159.318 328.5 159.87 328.391 160.484 328.391C161.104 328.391 161.656 328.5 162.141 328.719C162.63 328.932 163.044 329.234 163.383 329.625C163.721 330.01 163.979 330.466 164.156 330.992C164.333 331.513 164.422 332.078 164.422 332.688V332.867C164.422 333.477 164.333 334.042 164.156 334.562C163.979 335.083 163.721 335.539 163.383 335.93C163.044 336.315 162.633 336.617 162.148 336.836C161.664 337.049 161.115 337.156 160.5 337.156C159.88 337.156 159.326 337.049 158.836 336.836C158.352 336.617 157.94 336.315 157.602 335.93C157.263 335.539 157.005 335.083 156.828 334.562C156.651 334.042 156.562 333.477 156.562 332.867ZM158.445 332.688V332.867C158.445 333.247 158.484 333.607 158.562 333.945C158.641 334.284 158.763 334.581 158.93 334.836C159.096 335.091 159.31 335.292 159.57 335.438C159.831 335.583 160.141 335.656 160.5 335.656C160.849 335.656 161.151 335.583 161.406 335.438C161.667 335.292 161.88 335.091 162.047 334.836C162.214 334.581 162.336 334.284 162.414 333.945C162.497 333.607 162.539 333.247 162.539 332.867V332.688C162.539 332.312 162.497 331.958 162.414 331.625C162.336 331.286 162.211 330.987 162.039 330.727C161.872 330.466 161.659 330.263 161.398 330.117C161.143 329.966 160.839 329.891 160.484 329.891C160.13 329.891 159.823 329.966 159.562 330.117C159.307 330.263 159.096 330.466 158.93 330.727C158.763 330.987 158.641 331.286 158.562 331.625C158.484 331.958 158.445 332.312 158.445 332.688ZM167.867 330.352V337H165.984V328.547H167.758L167.867 330.352ZM167.531 332.461L166.922 332.453C166.927 331.854 167.01 331.305 167.172 330.805C167.339 330.305 167.568 329.875 167.859 329.516C168.156 329.156 168.51 328.88 168.922 328.688C169.333 328.49 169.792 328.391 170.297 328.391C170.703 328.391 171.07 328.448 171.398 328.562C171.732 328.672 172.016 328.852 172.25 329.102C172.49 329.352 172.672 329.677 172.797 330.078C172.922 330.474 172.984 330.961 172.984 331.539V337H171.094V331.531C171.094 331.125 171.034 330.805 170.914 330.57C170.799 330.331 170.63 330.161 170.406 330.062C170.188 329.958 169.914 329.906 169.586 329.906C169.263 329.906 168.974 329.974 168.719 330.109C168.464 330.245 168.247 330.43 168.07 330.664C167.898 330.898 167.766 331.169 167.672 331.477C167.578 331.784 167.531 332.112 167.531 332.461ZM178.781 328.547V329.922H174.016V328.547H178.781ZM175.391 326.477H177.273V334.664C177.273 334.924 177.31 335.125 177.383 335.266C177.461 335.401 177.568 335.492 177.703 335.539C177.839 335.586 177.997 335.609 178.18 335.609C178.31 335.609 178.435 335.602 178.555 335.586C178.674 335.57 178.771 335.555 178.844 335.539L178.852 336.977C178.695 337.023 178.513 337.065 178.305 337.102C178.102 337.138 177.867 337.156 177.602 337.156C177.169 337.156 176.786 337.081 176.453 336.93C176.12 336.773 175.859 336.521 175.672 336.172C175.484 335.823 175.391 335.359 175.391 334.781V326.477ZM182.25 328.547V337H180.359V328.547H182.25ZM180.234 326.328C180.234 326.042 180.328 325.805 180.516 325.617C180.708 325.424 180.974 325.328 181.312 325.328C181.646 325.328 181.909 325.424 182.102 325.617C182.294 325.805 182.391 326.042 182.391 326.328C182.391 326.609 182.294 326.844 182.102 327.031C181.909 327.219 181.646 327.312 181.312 327.312C180.974 327.312 180.708 327.219 180.516 327.031C180.328 326.844 180.234 326.609 180.234 326.328ZM186.18 330.352V337H184.297V328.547H186.07L186.18 330.352ZM185.844 332.461L185.234 332.453C185.24 331.854 185.323 331.305 185.484 330.805C185.651 330.305 185.88 329.875 186.172 329.516C186.469 329.156 186.823 328.88 187.234 328.688C187.646 328.49 188.104 328.391 188.609 328.391C189.016 328.391 189.383 328.448 189.711 328.562C190.044 328.672 190.328 328.852 190.562 329.102C190.802 329.352 190.984 329.677 191.109 330.078C191.234 330.474 191.297 330.961 191.297 331.539V337H189.406V331.531C189.406 331.125 189.346 330.805 189.227 330.57C189.112 330.331 188.943 330.161 188.719 330.062C188.5 329.958 188.227 329.906 187.898 329.906C187.576 329.906 187.286 329.974 187.031 330.109C186.776 330.245 186.56 330.43 186.383 330.664C186.211 330.898 186.078 331.169 185.984 331.477C185.891 331.784 185.844 332.112 185.844 332.461ZM198.305 335.008V328.547H200.195V337H198.414L198.305 335.008ZM198.57 333.25L199.203 333.234C199.203 333.802 199.141 334.326 199.016 334.805C198.891 335.279 198.698 335.693 198.438 336.047C198.177 336.396 197.844 336.669 197.438 336.867C197.031 337.06 196.544 337.156 195.977 337.156C195.565 337.156 195.188 337.096 194.844 336.977C194.5 336.857 194.203 336.672 193.953 336.422C193.708 336.172 193.518 335.846 193.383 335.445C193.247 335.044 193.18 334.565 193.18 334.008V328.547H195.062V334.023C195.062 334.331 195.099 334.589 195.172 334.797C195.245 335 195.344 335.164 195.469 335.289C195.594 335.414 195.74 335.503 195.906 335.555C196.073 335.607 196.25 335.633 196.438 335.633C196.974 335.633 197.396 335.529 197.703 335.32C198.016 335.107 198.237 334.82 198.367 334.461C198.503 334.102 198.57 333.698 198.57 333.25ZM205.852 337.156C205.227 337.156 204.661 337.055 204.156 336.852C203.656 336.643 203.229 336.354 202.875 335.984C202.526 335.615 202.258 335.18 202.07 334.68C201.883 334.18 201.789 333.641 201.789 333.062V332.75C201.789 332.089 201.885 331.49 202.078 330.953C202.271 330.417 202.539 329.958 202.883 329.578C203.227 329.193 203.633 328.898 204.102 328.695C204.57 328.492 205.078 328.391 205.625 328.391C206.229 328.391 206.758 328.492 207.211 328.695C207.664 328.898 208.039 329.185 208.336 329.555C208.638 329.919 208.862 330.354 209.008 330.859C209.159 331.365 209.234 331.922 209.234 332.531V333.336H202.703V331.984H207.375V331.836C207.365 331.497 207.297 331.18 207.172 330.883C207.052 330.586 206.867 330.346 206.617 330.164C206.367 329.982 206.034 329.891 205.617 329.891C205.305 329.891 205.026 329.958 204.781 330.094C204.542 330.224 204.341 330.414 204.18 330.664C204.018 330.914 203.893 331.216 203.805 331.57C203.721 331.919 203.68 332.312 203.68 332.75V333.062C203.68 333.432 203.729 333.776 203.828 334.094C203.932 334.406 204.083 334.68 204.281 334.914C204.479 335.148 204.719 335.333 205 335.469C205.281 335.599 205.602 335.664 205.961 335.664C206.414 335.664 206.818 335.573 207.172 335.391C207.526 335.208 207.833 334.951 208.094 334.617L209.086 335.578C208.904 335.844 208.667 336.099 208.375 336.344C208.083 336.583 207.727 336.779 207.305 336.93C206.888 337.081 206.404 337.156 205.852 337.156Z" fill="white"/>
</g>
<defs>
<clipPath id="clip0_3728_81909">
<rect width="65" height="26" fill="white" transform="translate(145.5 320)"/>
</clipPath>
</defs>
</svg>
