<svg width="100" height="100" viewBox="0 0 100 100" fill="none" xmlns="http://www.w3.org/2000/svg">
<g clip-path="url(#clip0_3313_13822)">
<path d="M92.9688 66.4852V60.9375C92.9688 56.5863 91.2402 52.4133 88.1635 49.3365C85.0867 46.2598 80.9137 44.5313 76.5625 44.5312C72.2113 44.5313 68.0383 46.2598 64.9615 49.3365C61.8848 52.4133 60.1562 56.5863 60.1562 60.9375V66.4852C58.4422 66.6735 56.8575 67.4864 55.7046 68.7688C54.5518 70.0511 53.9116 71.7131 53.9062 73.4375V92.1875C53.9083 94.0517 54.6497 95.8389 55.9679 97.1571C57.2861 98.4753 59.0733 99.2167 60.9375 99.2188H92.1875C94.0517 99.2167 95.8389 98.4753 97.1571 97.1571C98.4753 95.8389 99.2167 94.0517 99.2188 92.1875V73.4375C99.2134 71.7131 98.5732 70.0511 97.4204 68.7688C96.2675 67.4864 94.6828 66.6735 92.9688 66.4852ZM64.8438 60.9375C64.8438 57.8295 66.0784 54.8488 68.2761 52.6511C70.4738 50.4534 73.4545 49.2188 76.5625 49.2188C79.6705 49.2188 82.6512 50.4534 84.8489 52.6511C87.0466 54.8488 88.2812 57.8295 88.2812 60.9375V66.4062H83.5938V60.9375C83.5938 59.0727 82.853 57.2843 81.5343 55.9657C80.2157 54.647 78.4273 53.9062 76.5625 53.9062C74.6977 53.9062 72.9093 54.647 71.5907 55.9657C70.272 57.2843 69.5312 59.0727 69.5312 60.9375V66.4062H64.8438V60.9375ZM78.9062 60.9375V66.4062H74.2188V60.9375C74.2188 60.3159 74.4657 59.7198 74.9052 59.2802C75.3448 58.8407 75.9409 58.5938 76.5625 58.5938C77.1841 58.5938 77.7802 58.8407 78.2198 59.2802C78.6593 59.7198 78.9062 60.3159 78.9062 60.9375ZM89.3951 74.8154L76.8951 92.0029C76.696 92.2768 76.4399 92.5043 76.1444 92.6697C75.8488 92.8352 75.521 92.9346 75.1834 92.9611C74.8457 92.9876 74.5064 92.9407 74.1887 92.8235C73.8709 92.7062 73.5824 92.5216 73.3429 92.2821L63.9679 82.9071C63.5284 82.4676 63.2815 81.8715 63.2815 81.25C63.2815 80.6285 63.5284 80.0324 63.9679 79.5929C64.4074 79.1534 65.0035 78.9065 65.625 78.9065C66.2465 78.9065 66.8426 79.1534 67.2821 79.5929L74.7177 87.0285L85.6049 72.0596C85.7858 71.8108 86.014 71.6 86.2764 71.4393C86.5388 71.2786 86.8303 71.1712 87.1342 71.1231C87.4382 71.0751 87.7486 71.0874 88.0477 71.1593C88.3469 71.2313 88.629 71.3614 88.8779 71.5424C89.1267 71.7233 89.3375 71.9515 89.4982 72.2139C89.6589 72.4763 89.7663 72.7678 89.8144 73.0717C89.8624 73.3757 89.8501 73.6861 89.7782 73.9852C89.7062 74.2844 89.5761 74.5665 89.3951 74.8154Z" fill="#1890FF"/>
<path d="M3.125 24.2188C3.74659 24.2187 4.34272 23.9718 4.78225 23.5322C5.22178 23.0927 5.46872 22.4966 5.46875 21.875V7.8125C5.46943 7.19111 5.71658 6.59536 6.15597 6.15597C6.59536 5.71658 7.19111 5.46943 7.8125 5.46875H21.875C22.4966 5.46875 23.0927 5.22182 23.5323 4.78228C23.9718 4.34274 24.2188 3.7466 24.2188 3.125C24.2188 2.5034 23.9718 1.90726 23.5323 1.46772C23.0927 1.02818 22.4966 0.78125 21.875 0.78125H7.8125C5.94832 0.783281 4.16107 1.52472 2.8429 2.8429C1.52472 4.16107 0.783281 5.94832 0.78125 7.8125V21.875C0.781279 22.4966 1.02822 23.0927 1.46775 23.5322C1.90728 23.9718 2.50341 24.2187 3.125 24.2188Z" fill="black"/>
<path d="M84.375 24.2188C84.9966 24.2187 85.5927 23.9718 86.0322 23.5322C86.4718 23.0927 86.7187 22.4966 86.7188 21.875V7.8125C86.7167 5.94832 85.9753 4.16107 84.6571 2.8429C83.3389 1.52472 81.5517 0.783281 79.6875 0.78125H65.625C65.0034 0.78125 64.4073 1.02818 63.9677 1.46772C63.5282 1.90726 63.2812 2.5034 63.2812 3.125C63.2812 3.7466 63.5282 4.34274 63.9677 4.78228C64.4073 5.22182 65.0034 5.46875 65.625 5.46875H79.6875C80.3089 5.46943 80.9046 5.71658 81.344 6.15597C81.7834 6.59536 82.0306 7.19111 82.0312 7.8125V21.875C82.0313 22.4966 82.2782 23.0927 82.7178 23.5322C83.1573 23.9718 83.7534 24.2187 84.375 24.2188Z" fill="black"/>
<path d="M21.875 47.6562C21.2534 47.6563 20.6573 47.9032 20.2178 48.3428C19.7782 48.7823 19.5313 49.3784 19.5312 50V71.875C19.5312 72.4966 19.7782 73.0927 20.2177 73.5323C20.6573 73.9718 21.2534 74.2188 21.875 74.2188C22.4966 74.2188 23.0927 73.9718 23.5323 73.5323C23.9718 73.0927 24.2188 72.4966 24.2188 71.875V50C24.2187 49.3784 23.9718 48.7823 23.5322 48.3428C23.0927 47.9032 22.4966 47.6563 21.875 47.6562Z" fill="black"/>
<path d="M65.7363 42.9764C66.3518 42.8888 66.9072 42.5604 67.2805 42.0633C67.6538 41.5663 67.8143 40.9413 67.7269 40.3259C66.9053 34.5765 64.0452 29.3138 59.6679 25.4968C55.2906 21.6799 49.6875 19.5628 43.8798 19.5316C38.0722 19.5004 32.4466 21.557 28.0285 25.3266C23.6103 29.0962 20.6938 34.3279 19.8104 40.0681C19.7178 40.6819 19.8724 41.3073 20.2403 41.8073C20.6081 42.3072 21.1593 42.6408 21.7728 42.735C22.3864 42.8291 23.0122 42.6761 23.513 42.3094C24.0139 41.9428 24.3489 41.3925 24.4445 40.7792C25.1573 36.1504 27.5093 31.9318 31.0721 28.8921C34.6349 25.8524 39.1712 24.1939 43.8545 24.2188C48.5377 24.2438 53.0561 25.9506 56.5862 29.0281C60.1164 32.1056 62.4234 36.3491 63.0867 40.9852C63.1299 41.2899 63.2328 41.5831 63.3893 41.8481C63.5459 42.1131 63.7531 42.3446 63.9991 42.5295C64.2452 42.7144 64.5252 42.8491 64.8233 42.9257C65.1214 43.0024 65.4316 43.0196 65.7363 42.9764Z" fill="black"/>
<path d="M74.8413 39.7965C75.143 39.7353 75.4297 39.6154 75.6851 39.4434C75.9404 39.2714 76.1594 39.0508 76.3294 38.7942C76.4995 38.5375 76.6173 38.2499 76.6761 37.9478C76.7349 37.6456 76.7337 37.3348 76.6724 37.0331C75.0069 28.8758 70.3721 21.6274 63.6664 16.6931C56.9606 11.7587 48.6617 9.48985 40.3783 10.3263C32.0948 11.1628 24.417 15.045 18.8332 21.2204C13.2493 27.3958 10.1572 35.4245 10.1562 43.75V50C10.1562 50.6216 10.4032 51.2178 10.8427 51.6573C11.2823 52.0968 11.8784 52.3438 12.5 52.3438C13.1216 52.3438 13.7177 52.0968 14.1573 51.6573C14.5968 51.2178 14.8438 50.6216 14.8438 50V43.75C14.8446 36.5864 17.505 29.6783 22.3093 24.3646C27.1137 19.051 33.7198 15.7103 40.847 14.9902C47.9743 14.27 55.1151 16.2217 60.8853 20.4668C66.6555 24.712 70.6441 30.9483 72.0779 37.9669C72.1392 38.2685 72.2593 38.5551 72.4313 38.8103C72.6034 39.0655 72.824 39.2843 73.0806 39.4541C73.3372 39.624 73.6248 39.7417 73.9269 39.8005C74.229 39.8592 74.5397 39.8578 74.8413 39.7965Z" fill="black"/>
<path d="M7.8125 86.7188H21.875C22.4966 86.7188 23.0927 86.4718 23.5323 86.0323C23.9718 85.5927 24.2188 84.9966 24.2188 84.375C24.2188 83.7534 23.9718 83.1573 23.5323 82.7177C23.0927 82.2782 22.4966 82.0312 21.875 82.0312H7.8125C7.19111 82.0306 6.59536 81.7834 6.15597 81.344C5.71658 80.9046 5.46943 80.3089 5.46875 79.6875V65.625C5.46875 65.0034 5.22182 64.4073 4.78228 63.9677C4.34274 63.5282 3.7466 63.2812 3.125 63.2812C2.5034 63.2812 1.90726 63.5282 1.46772 63.9677C1.02818 64.4073 0.78125 65.0034 0.78125 65.625V79.6875C0.783281 81.5517 1.52472 83.3389 2.8429 84.6571C4.16107 85.9753 5.94832 86.7167 7.8125 86.7188Z" fill="black"/>
<path d="M12.5 55.4688C11.8784 55.4688 11.2823 55.7157 10.8428 56.1553C10.4032 56.5948 10.1563 57.1909 10.1562 57.8125V68.75C10.1562 69.3716 10.4032 69.9677 10.8427 70.4073C11.2823 70.8468 11.8784 71.0938 12.5 71.0938C13.1216 71.0938 13.7177 70.8468 14.1573 70.4073C14.5968 69.9677 14.8438 69.3716 14.8438 68.75V57.8125C14.8437 57.1909 14.5968 56.5948 14.1572 56.1553C13.7177 55.7157 13.1216 55.4688 12.5 55.4688Z" fill="black"/>
<path d="M31.25 60.1562C30.6284 60.1563 30.0323 60.4032 29.5928 60.8428C29.1532 61.2823 28.9063 61.8784 28.9062 62.5V75C28.9062 75.6216 29.1532 76.2177 29.5927 76.6573C30.0323 77.0968 30.6284 77.3438 31.25 77.3438C31.8716 77.3438 32.4677 77.0968 32.9073 76.6573C33.3468 76.2177 33.5938 75.6216 33.5938 75V62.5C33.5937 61.8784 33.3468 61.2823 32.9072 60.8428C32.4677 60.4032 31.8716 60.1563 31.25 60.1562Z" fill="black"/>
<path d="M43.75 28.9062C39.8146 28.9107 36.0416 30.476 33.2588 33.2588C30.476 36.0416 28.9107 39.8146 28.9062 43.75V53.125C28.9062 53.7466 29.1532 54.3427 29.5927 54.7823C30.0323 55.2218 30.6284 55.4688 31.25 55.4688C31.8716 55.4688 32.4677 55.2218 32.9073 54.7823C33.3468 54.3427 33.5938 53.7466 33.5938 53.125V43.75C33.5969 41.0574 34.6679 38.4759 36.5719 36.5719C38.4759 34.6679 41.0574 33.5969 43.75 33.5938C44.3716 33.5938 44.9677 33.3468 45.4073 32.9073C45.8468 32.4677 46.0938 31.8716 46.0938 31.25C46.0938 30.6284 45.8468 30.0323 45.4073 29.5927C44.9677 29.1532 44.3716 28.9062 43.75 28.9062Z" fill="black"/>
<path d="M56.2499 55.4688C56.8715 55.4687 57.4676 55.2218 57.9072 54.7823C58.3467 54.3427 58.5936 53.7466 58.5937 53.125V43.75C58.5892 40.3758 57.4377 37.1033 55.3283 34.4696C54.939 33.985 54.3731 33.6749 53.7552 33.6075C53.1372 33.5401 52.5178 33.721 52.0332 34.1103C51.5486 34.4996 51.2384 35.0655 51.171 35.6834C51.1037 36.3014 51.2845 36.9208 51.6738 37.4054C53.1257 39.2005 53.9142 41.4413 53.9062 43.75V53.125C53.9062 53.7466 54.1531 54.3427 54.5927 54.7823C55.0322 55.2218 55.6283 55.4687 56.2499 55.4688Z" fill="black"/>
<path d="M43.75 41.4062C43.1284 41.4063 42.5323 41.6532 42.0928 42.0928C41.6532 42.5323 41.4063 43.1284 41.4062 43.75V75C41.4062 75.6216 41.6532 76.2177 42.0927 76.6573C42.5323 77.0968 43.1284 77.3438 43.75 77.3438C44.3716 77.3438 44.9677 77.0968 45.4073 76.6573C45.8468 76.2177 46.0938 75.6216 46.0938 75V43.75C46.0937 43.1284 45.8468 42.5323 45.4072 42.0928C44.9677 41.6532 44.3716 41.4063 43.75 41.4062Z" fill="black"/>
</g>
<defs>
<clipPath id="clip0_3313_13822">
<rect width="100" height="100" fill="white"/>
</clipPath>
</defs>
</svg>
