<svg width="100" height="100" viewBox="0 0 100 100" fill="none" xmlns="http://www.w3.org/2000/svg">
<g clip-path="url(#clip0_3313_13845)">
<path d="M96.875 58.5938C95.4251 58.592 94.0352 58.0153 93.0099 56.9901C91.9847 55.9648 91.408 54.5749 91.4062 53.125C91.4062 52.5034 91.1593 51.9073 90.7197 51.4678C90.2802 51.0282 89.6841 50.7813 89.0625 50.7812H60.9375C60.3159 50.7813 59.7198 51.0282 59.2803 51.4678C58.8407 51.9073 58.5938 52.5034 58.5938 53.125C58.592 54.5749 58.0153 55.9648 56.9901 56.9901C55.9648 58.0153 54.5749 58.592 53.125 58.5938C52.5034 58.5938 51.9073 58.8407 51.4678 59.2803C51.0282 59.7198 50.7813 60.3159 50.7812 60.9375C50.7812 95.047 74.3973 99.1531 74.6368 99.1905C74.8775 99.2282 75.1225 99.2282 75.3632 99.1905C75.6027 99.1531 99.2188 95.047 99.2188 60.9375C99.2187 60.3159 98.9718 59.7198 98.5322 59.2803C98.0927 58.8407 97.4966 58.5938 96.875 58.5938ZM89.3951 65.4411L76.8951 82.6286C76.6959 82.9025 76.4398 83.1299 76.1442 83.2953C75.8487 83.4606 75.5208 83.56 75.1832 83.5864C74.8456 83.6129 74.5062 83.5659 74.1885 83.4486C73.8708 83.3313 73.5823 83.1466 73.3429 82.9071L63.9679 73.5321C63.5284 73.0926 63.2815 72.4965 63.2815 71.875C63.2815 71.2535 63.5284 70.6574 63.9679 70.2179C64.4074 69.7784 65.0035 69.5315 65.625 69.5315C66.2465 69.5315 66.8426 69.7784 67.2821 70.2179L74.7177 77.6535L85.6049 62.6839C85.9705 62.1813 86.5208 61.8445 87.1348 61.7476C87.7487 61.6507 88.376 61.8017 88.8786 62.1674C89.3812 62.533 89.718 63.0833 89.8149 63.6973C89.9118 64.3112 89.7608 64.9385 89.3951 65.4411Z" fill="#1890FF"/>
<path d="M7.8125 99.2188H58.873C59.4946 99.2188 60.0907 98.9718 60.5303 98.5323C60.9698 98.0927 61.2167 97.4966 61.2167 96.875C61.2167 96.2534 60.9698 95.6573 60.5303 95.2177C60.0907 94.7782 59.4946 94.5312 58.873 94.5312H7.8125C7.19111 94.5306 6.59536 94.2834 6.15597 93.844C5.71658 93.4046 5.46943 92.8089 5.46875 92.1875V72.1352H44.9814C45.603 72.1352 46.1991 71.8882 46.6387 71.4487C47.0782 71.0091 47.3251 70.413 47.3251 69.7914C47.3251 69.1698 47.0782 68.5737 46.6387 68.1341C46.1991 67.6946 45.603 67.4477 44.9814 67.4477H5.46875V45.0523H84.375C84.9966 45.0523 85.5927 44.8054 86.0322 44.3658C86.4718 43.9263 86.7187 43.3302 86.7188 42.7086V20.3125C86.7167 18.4483 85.9753 16.6611 84.6571 15.3429C83.3389 14.0247 81.5517 13.2833 79.6875 13.2812H46.0938V5.46875H62.5C63.1216 5.46875 63.7177 5.22182 64.1573 4.78228C64.5968 4.34274 64.8438 3.7466 64.8438 3.125C64.8438 2.5034 64.5968 1.90726 64.1573 1.46772C63.7177 1.02818 63.1216 0.78125 62.5 0.78125H25C24.3784 0.78125 23.7823 1.02818 23.3427 1.46772C22.9032 1.90726 22.6562 2.5034 22.6562 3.125C22.6562 3.7466 22.9032 4.34274 23.3427 4.78228C23.7823 5.22182 24.3784 5.46875 25 5.46875H41.4062V13.2812H7.8125C5.94832 13.2833 4.16107 14.0247 2.8429 15.3429C1.52472 16.6611 0.783281 18.4483 0.78125 20.3125V92.1875C0.783281 94.0517 1.52472 95.8389 2.8429 97.1571C4.16107 98.4753 5.94832 99.2167 7.8125 99.2188ZM7.8125 17.9688H79.6875C80.3089 17.9694 80.9046 18.2166 81.344 18.656C81.7834 19.0954 82.0306 19.6911 82.0312 20.3125V40.3648H5.46875V20.3125C5.46943 19.6911 5.71658 19.0954 6.15597 18.656C6.59536 18.2166 7.19111 17.9694 7.8125 17.9688Z" fill="black"/>
<path d="M15.625 32.0312H20.3125C20.9341 32.0312 21.5302 31.7843 21.9698 31.3448C22.4093 30.9052 22.6562 30.3091 22.6562 29.6875C22.6562 29.0659 22.4093 28.4698 21.9698 28.0302C21.5302 27.5907 20.9341 27.3438 20.3125 27.3438H15.625C15.0034 27.3438 14.4073 27.5907 13.9677 28.0302C13.5282 28.4698 13.2813 29.0659 13.2812 29.6875C13.2813 30.3091 13.5282 30.9052 13.9677 31.3448C14.4073 31.7843 15.0034 32.0312 15.625 32.0312Z" fill="black"/>
<path d="M31.25 32.0312H71.875C72.4966 32.0312 73.0927 31.7843 73.5323 31.3448C73.9718 30.9052 74.2188 30.3091 74.2188 29.6875C74.2188 29.0659 73.9718 28.4698 73.5323 28.0302C73.0927 27.5907 72.4966 27.3438 71.875 27.3438H31.25C30.6284 27.3438 30.0323 27.5907 29.5927 28.0302C29.1532 28.4698 28.9062 29.0659 28.9062 29.6875C28.9062 30.3091 29.1532 30.9052 29.5927 31.3448C30.0323 31.7843 30.6284 32.0312 31.25 32.0312Z" fill="black"/>
<path d="M15.625 53.9062C15.0034 53.9062 14.4073 54.1532 13.9677 54.5927C13.5282 55.0323 13.2813 55.6284 13.2812 56.25C13.2813 56.8716 13.5282 57.4677 13.9677 57.9073C14.4073 58.3468 15.0034 58.5938 15.625 58.5938H20.3125C20.9341 58.5938 21.5302 58.3468 21.9698 57.9073C22.4093 57.4677 22.6562 56.8716 22.6562 56.25C22.6562 55.6284 22.4093 55.0323 21.9698 54.5927C21.5302 54.1532 20.9341 53.9062 20.3125 53.9062H15.625Z" fill="black"/>
<path d="M31.25 53.9062C30.6284 53.9062 30.0323 54.1532 29.5927 54.5927C29.1532 55.0323 28.9062 55.6284 28.9062 56.25C28.9062 56.8716 29.1532 57.4677 29.5927 57.9073C30.0323 58.3468 30.6284 58.5938 31.25 58.5938H43.75C44.3716 58.5938 44.9677 58.3468 45.4073 57.9073C45.8468 57.4677 46.0938 56.8716 46.0938 56.25C46.0938 55.6284 45.8468 55.0323 45.4073 54.5927C44.9677 54.1532 44.3716 53.9062 43.75 53.9062H31.25Z" fill="black"/>
<path d="M15.625 80.4688C15.0034 80.4687 14.4073 80.7157 13.9677 81.1552C13.5282 81.5948 13.2813 82.1909 13.2812 82.8125C13.2813 83.4341 13.5282 84.0302 13.9677 84.4698C14.4073 84.9093 15.0034 85.1562 15.625 85.1562H20.3125C20.9341 85.1562 21.5302 84.9093 21.9698 84.4698C22.4093 84.0302 22.6562 83.4341 22.6562 82.8125C22.6562 82.1909 22.4093 81.5948 21.9698 81.1552C21.5302 80.7157 20.9341 80.4688 20.3125 80.4688H15.625Z" fill="black"/>
<path d="M31.25 80.4688C30.6284 80.4687 30.0323 80.7157 29.5927 81.1552C29.1532 81.5948 28.9062 82.1909 28.9062 82.8125C28.9062 83.4341 29.1532 84.0302 29.5927 84.4698C30.0323 84.9093 30.6284 85.1562 31.25 85.1562H43.75C44.3716 85.1562 44.9677 84.9093 45.4073 84.4698C45.8468 84.0302 46.0938 83.4341 46.0938 82.8125C46.0938 82.1909 45.8468 81.5948 45.4073 81.1552C44.9677 80.7157 44.3716 80.4688 43.75 80.4688H31.25Z" fill="black"/>
</g>
<defs>
<clipPath id="clip0_3313_13845">
<rect width="100" height="100" fill="white"/>
</clipPath>
</defs>
</svg>
