<svg width="64" height="64" viewBox="0 0 64 64" fill="none" xmlns="http://www.w3.org/2000/svg">
<path d="M57.2077 44.3777C55.8291 47.4297 55.1691 48.795 53.3984 51.4924C50.9251 55.259 47.4317 59.9604 43.1131 59.9924C39.2717 60.0244 38.2811 57.4857 33.0677 57.5284C27.8544 57.5537 26.7691 60.039 22.9237 60.0004C18.6051 59.9617 15.2997 55.7257 12.8237 51.9657C5.89975 41.4177 5.16908 29.0564 9.44908 22.4777C12.4757 17.8137 17.2677 15.075 21.7651 15.075C26.3464 15.075 29.2251 17.5924 33.0131 17.5924C36.6877 17.5924 38.9264 15.0684 44.2251 15.0684C48.2317 15.0684 52.4691 17.251 55.4971 21.019C45.5931 26.4457 47.2011 40.5924 57.2077 44.3777Z" fill="url(#paint0_linear_3728_81798)"/>
<path d="M39.735 10.8364C41.639 8.39235 43.083 4.94569 42.559 1.42969C39.4524 1.64169 35.8204 3.62435 33.699 6.19369C31.7777 8.53235 30.183 12.007 30.8044 15.3684C34.1924 15.4764 37.699 13.4577 39.735 10.8364Z" fill="url(#paint1_linear_3728_81798)"/>
<defs>
<linearGradient id="paint0_linear_3728_81798" x1="0.107749" y1="2.90169" x2="67.3157" y2="70.1097" gradientUnits="userSpaceOnUse">
<stop stop-color="#FAF3DF"/>
<stop offset="1" stop-color="#255B70"/>
</linearGradient>
<linearGradient id="paint1_linear_3728_81798" x1="22.9204" y1="-5.36231" x2="48.387" y2="20.1044" gradientUnits="userSpaceOnUse">
<stop stop-color="#FAF3DF"/>
<stop offset="1" stop-color="#255B70"/>
</linearGradient>
</defs>
</svg>
