<svg width="100" height="100" viewBox="0 0 100 100" fill="none" xmlns="http://www.w3.org/2000/svg">
<g clip-path="url(#clip0_3313_13837)">
<path d="M92.9688 66.4852V60.9375C92.9688 56.5863 91.2402 52.4133 88.1635 49.3365C85.0867 46.2598 80.9137 44.5313 76.5625 44.5312C72.2113 44.5313 68.0383 46.2598 64.9615 49.3365C61.8848 52.4133 60.1562 56.5863 60.1562 60.9375V66.4852C58.4422 66.6735 56.8575 67.4864 55.7046 68.7688C54.5518 70.0511 53.9116 71.7131 53.9062 73.4375V92.1875C53.9083 94.0517 54.6497 95.8389 55.9679 97.1571C57.2861 98.4753 59.0733 99.2167 60.9375 99.2188H92.1875C94.0517 99.2167 95.8389 98.4753 97.1571 97.1571C98.4753 95.8389 99.2167 94.0517 99.2188 92.1875V73.4375C99.2134 71.7131 98.5732 70.0511 97.4204 68.7688C96.2675 67.4864 94.6828 66.6735 92.9688 66.4852ZM64.8438 60.9375C64.8438 57.8295 66.0784 54.8488 68.2761 52.6511C70.4738 50.4534 73.4545 49.2188 76.5625 49.2188C79.6705 49.2188 82.6512 50.4534 84.8489 52.6511C87.0466 54.8488 88.2812 57.8295 88.2812 60.9375V66.4062H83.5938V60.9375C83.5938 59.0727 82.853 57.2843 81.5343 55.9657C80.2157 54.647 78.4273 53.9062 76.5625 53.9062C74.6977 53.9062 72.9093 54.647 71.5907 55.9657C70.272 57.2843 69.5312 59.0727 69.5312 60.9375V66.4062H64.8438V60.9375ZM78.9062 60.9375V66.4062H74.2188V60.9375C74.2188 60.3159 74.4657 59.7198 74.9052 59.2802C75.3448 58.8407 75.9409 58.5938 76.5625 58.5938C77.1841 58.5938 77.7802 58.8407 78.2198 59.2802C78.6593 59.7198 78.9062 60.3159 78.9062 60.9375ZM92.9688 90.625C92.9688 91.2466 92.7218 91.8427 92.2823 92.2823C91.8427 92.7218 91.2466 92.9688 90.625 92.9688C90.0034 92.9688 89.4073 92.7218 88.9677 92.2823C88.5282 91.8427 88.2812 91.2466 88.2812 90.625V85.1562H85.1562V90.625C85.1562 91.2466 84.9093 91.8427 84.4698 92.2823C84.0302 92.7218 83.4341 92.9688 82.8125 92.9688C82.1909 92.9688 81.5948 92.7218 81.1552 92.2823C80.7157 91.8427 80.4688 91.2466 80.4688 90.625V85.1562H77.0105C76.4448 87.1519 75.1764 88.8755 73.4394 90.0092C71.7024 91.1428 69.6139 91.61 67.5594 91.3244C65.5049 91.0388 63.623 90.0198 62.261 88.4554C60.899 86.891 60.1488 84.8867 60.1488 82.8125C60.1488 80.7383 60.899 78.734 62.261 77.1696C63.623 75.6052 65.5049 74.5862 67.5594 74.3006C69.6139 74.015 71.7024 74.4822 73.4394 75.6158C75.1764 76.7495 76.4448 78.4731 77.0105 80.4688H90.625C91.2466 80.4688 91.8427 80.7157 92.2822 81.1553C92.7218 81.5948 92.9687 82.1909 92.9688 82.8125V90.625Z" fill="#1890FF"/>
<path d="M68.75 86.7188C70.9074 86.7188 72.6562 84.9699 72.6562 82.8125C72.6562 80.6551 70.9074 78.9062 68.75 78.9062C66.5926 78.9062 64.8438 80.6551 64.8438 82.8125C64.8438 84.9699 66.5926 86.7188 68.75 86.7188Z" fill="#1890FF"/>
<path d="M49.8643 21.0938H18.8859C17.9327 21.0913 16.989 21.2831 16.1124 21.6574C15.2357 22.0318 14.4446 22.5808 13.7871 23.2711C13.1297 23.9613 12.6199 24.7783 12.2887 25.6721C11.9575 26.566 11.8119 27.5179 11.8608 28.4699C13.289 53.2845 25.2824 64.0701 30.3736 67.5568C31.5502 68.3689 32.9461 68.8037 34.3758 68.8034C35.8055 68.8031 37.2013 68.3678 38.3776 67.5552C43.4679 64.0701 55.4613 53.2852 56.8896 28.4698C56.9385 27.5179 56.7929 26.5659 56.4617 25.6721C56.1305 24.7782 55.6206 23.9613 54.9632 23.271C54.3058 22.5808 53.5146 22.0317 52.638 21.6574C51.7613 21.2831 50.8176 21.0913 49.8643 21.0938ZM52.2097 28.2006C52.0196 31.5899 51.5721 34.9598 50.8709 38.2813H36.7189V25.7813H49.8643C50.1794 25.7785 50.4917 25.8398 50.7824 25.9613C51.0731 26.0829 51.336 26.2622 51.5553 26.4884C51.7746 26.7146 51.9457 26.983 52.0582 27.2774C52.1706 27.5717 52.2222 27.8857 52.2097 28.2006ZM18.8859 25.7813H32.0314V38.2813H17.8794C17.1782 34.9599 16.7307 31.5901 16.5407 28.2008C16.5281 27.886 16.5796 27.5719 16.692 27.2775C16.8045 26.9832 16.9756 26.7148 17.1949 26.4885C17.4142 26.2623 17.6771 26.0829 17.9678 25.9614C18.2585 25.8398 18.5709 25.7785 18.8859 25.7813ZM19.0538 42.9688H32.0314V62.9712C28.4381 60.2431 22.4813 54.2672 19.0538 42.9688ZM36.7189 62.97V42.9688H49.6965C46.269 54.2672 40.3121 60.2427 36.7189 62.97Z" fill="black"/>
<path d="M7.8125 99.2188H47.6952C48.3168 99.2188 48.9129 98.9718 49.3524 98.5323C49.792 98.0927 50.0389 97.4966 50.0389 96.875C50.0389 96.2534 49.792 95.6573 49.3524 95.2177C48.9129 94.7782 48.3168 94.5312 47.6952 94.5312H7.8125C7.19111 94.5306 6.59536 94.2834 6.15597 93.844C5.71658 93.4046 5.46943 92.8089 5.46875 92.1875V89.8438H45.3125C45.9341 89.8438 46.5302 89.5968 46.9698 89.1573C47.4093 88.7177 47.6562 88.1216 47.6562 87.5C47.6562 86.8784 47.4093 86.2823 46.9698 85.8427C46.5302 85.4032 45.9341 85.1562 45.3125 85.1562H5.46875V14.8438H63.2812V40.2245C63.2812 40.8461 63.5282 41.4422 63.9677 41.8817C64.4073 42.3213 65.0034 42.5682 65.625 42.5682C66.2466 42.5682 66.8427 42.3213 67.2823 41.8817C67.7218 41.4422 67.9688 40.8461 67.9688 40.2245V7.8125C67.9667 5.94832 67.2253 4.16107 65.9071 2.8429C64.5889 1.52472 62.8017 0.783281 60.9375 0.78125H7.8125C5.94832 0.783281 4.16107 1.52472 2.8429 2.8429C1.52472 4.16107 0.783281 5.94832 0.78125 7.8125V92.1875C0.783281 94.0517 1.52472 95.8389 2.8429 97.1571C4.16107 98.4753 5.94832 99.2167 7.8125 99.2188ZM7.8125 5.46875H60.9375C61.5589 5.46943 62.1546 5.71658 62.594 6.15597C63.0334 6.59536 63.2806 7.19111 63.2812 7.8125V10.1562H5.46875V7.8125C5.46943 7.19111 5.71658 6.59536 6.15597 6.15597C6.59536 5.71658 7.19111 5.46943 7.8125 5.46875Z" fill="black"/>
<path d="M20.3125 74.2188C19.6909 74.2188 19.0948 74.4657 18.6552 74.9052C18.2157 75.3448 17.9688 75.9409 17.9688 76.5625C17.9688 77.1841 18.2157 77.7802 18.6552 78.2198C19.0948 78.6593 19.6909 78.9062 20.3125 78.9062H45.3125C45.9341 78.9062 46.5302 78.6593 46.9698 78.2198C47.4093 77.7802 47.6562 77.1841 47.6562 76.5625C47.6562 75.9409 47.4093 75.3448 46.9698 74.9052C46.5302 74.4657 45.9341 74.2188 45.3125 74.2188H20.3125Z" fill="black"/>
</g>
<defs>
<clipPath id="clip0_3313_13837">
<rect width="100" height="100" fill="white"/>
</clipPath>
</defs>
</svg>
