<svg width="100" height="100" viewBox="0 0 100 100" fill="none" xmlns="http://www.w3.org/2000/svg">
<g clip-path="url(#clip0_3313_13812)">
<path d="M28.9062 71.0938H17.9688V82.0312H28.9062V71.0938Z" fill="#1890FF"/>
<path d="M43.75 78.9062C44.3716 78.9062 44.9677 78.6593 45.4073 78.2198C45.8468 77.7802 46.0938 77.1841 46.0938 76.5625C46.0938 75.9409 45.8468 75.3448 45.4073 74.9052C44.9677 74.4657 44.3716 74.2188 43.75 74.2188H41.4062V69.5312H43.75C44.3716 69.5312 44.9677 69.2843 45.4073 68.8448C45.8468 68.4052 46.0938 67.8091 46.0938 67.1875C46.0938 66.5659 45.8468 65.9698 45.4073 65.5302C44.9677 65.0907 44.3716 64.8438 43.75 64.8438H41.3273C41.1504 63.268 40.4433 61.7991 39.3221 60.6779C38.2009 59.5566 36.732 58.8496 35.1562 58.6727V56.25C35.1562 55.6284 34.9093 55.0323 34.4698 54.5927C34.0302 54.1532 33.4341 53.9062 32.8125 53.9062C32.1909 53.9062 31.5948 54.1532 31.1552 54.5927C30.7157 55.0323 30.4688 55.6284 30.4688 56.25V58.5938H25.7812V56.25C25.7812 55.6284 25.5343 55.0323 25.0948 54.5927C24.6552 54.1532 24.0591 53.9062 23.4375 53.9062C22.8159 53.9062 22.2198 54.1532 21.7802 54.5927C21.3407 55.0323 21.0938 55.6284 21.0938 56.25V58.5938H16.4062V56.25C16.4062 55.6284 16.1593 55.0323 15.7198 54.5927C15.2802 54.1532 14.6841 53.9062 14.0625 53.9062C13.4409 53.9062 12.8448 54.1532 12.4052 54.5927C11.9657 55.0323 11.7188 55.6284 11.7188 56.25V58.6727C10.143 58.8496 8.6741 59.5566 7.55288 60.6779C6.43165 61.7991 5.72463 63.268 5.54772 64.8438H3.125C2.5034 64.8438 1.90726 65.0907 1.46772 65.5302C1.02818 65.9698 0.78125 66.5659 0.78125 67.1875C0.78125 67.8091 1.02818 68.4052 1.46772 68.8448C1.90726 69.2843 2.5034 69.5312 3.125 69.5312H5.46875V74.2188H3.125C2.5034 74.2188 1.90726 74.4657 1.46772 74.9052C1.02818 75.3448 0.78125 75.9409 0.78125 76.5625C0.78125 77.1841 1.02818 77.7802 1.46772 78.2198C1.90726 78.6593 2.5034 78.9062 3.125 78.9062H5.46875V83.5938H3.125C2.5034 83.5938 1.90726 83.8407 1.46772 84.2802C1.02818 84.7198 0.78125 85.3159 0.78125 85.9375C0.78125 86.5591 1.02818 87.1552 1.46772 87.5948C1.90726 88.0343 2.5034 88.2812 3.125 88.2812H5.54772C5.72463 89.857 6.43165 91.3259 7.55288 92.4471C8.6741 93.5684 10.143 94.2754 11.7188 94.4523V96.875C11.7188 97.4966 11.9657 98.0927 12.4052 98.5323C12.8448 98.9718 13.4409 99.2188 14.0625 99.2188C14.6841 99.2188 15.2802 98.9718 15.7198 98.5323C16.1593 98.0927 16.4062 97.4966 16.4062 96.875V94.5312H21.0938V96.875C21.0938 97.4966 21.3407 98.0927 21.7802 98.5323C22.2198 98.9718 22.8159 99.2188 23.4375 99.2188C24.0591 99.2188 24.6552 98.9718 25.0948 98.5323C25.5343 98.0927 25.7812 97.4966 25.7812 96.875V94.5312H30.4688V96.875C30.4688 97.4966 30.7157 98.0927 31.1552 98.5323C31.5948 98.9718 32.1909 99.2188 32.8125 99.2188C33.4341 99.2188 34.0302 98.9718 34.4698 98.5323C34.9093 98.0927 35.1562 97.4966 35.1562 96.875V94.4523C36.732 94.2754 38.2009 93.5684 39.3221 92.4471C40.4433 91.3259 41.1504 89.857 41.3273 88.2812H43.75C44.3716 88.2812 44.9677 88.0343 45.4073 87.5948C45.8468 87.1552 46.0938 86.5591 46.0938 85.9375C46.0938 85.3159 45.8468 84.7198 45.4073 84.2802C44.9677 83.8407 44.3716 83.5938 43.75 83.5938H41.4062V78.9062H43.75ZM33.5938 84.375C33.5938 84.6828 33.5332 84.9876 33.4154 85.272C33.2977 85.5564 33.125 85.8147 32.9074 86.0324C32.6897 86.25 32.4313 86.4227 32.147 86.5404C31.8626 86.6582 31.5578 86.7188 31.25 86.7188H15.625C15.3172 86.7188 15.0124 86.6582 14.728 86.5404C14.4437 86.4227 14.1853 86.25 13.9676 86.0324C13.75 85.8147 13.5773 85.5564 13.4596 85.272C13.3418 84.9876 13.2812 84.6828 13.2812 84.375V68.75C13.2812 68.4422 13.3418 68.1374 13.4596 67.853C13.5773 67.5686 13.75 67.3103 13.9676 67.0926C14.1853 66.875 14.4437 66.7023 14.728 66.5846C15.0124 66.4668 15.3172 66.4062 15.625 66.4062H31.25C31.5578 66.4062 31.8626 66.4668 32.147 66.5846C32.4313 66.7023 32.6897 66.875 32.9074 67.0926C33.125 67.3103 33.2977 67.5686 33.4154 67.853C33.5332 68.1374 33.5938 68.4422 33.5938 68.75V84.375Z" fill="#1890FF"/>
<path d="M92.1875 38.2812H86.7188V34.375C86.7188 25.4654 83.1794 16.9207 76.8794 10.6206C70.5793 4.32058 62.0346 0.78125 53.125 0.78125C44.2154 0.78125 35.6707 4.32058 29.3706 10.6206C23.0706 16.9207 19.5312 25.4654 19.5312 34.375V38.2812H14.0625C12.1983 38.2833 10.4111 39.0247 9.0929 40.3429C7.77472 41.6611 7.03328 43.4483 7.03125 45.3125V48.4375C7.03125 49.0591 7.27818 49.6552 7.71772 50.0948C8.15726 50.5343 8.7534 50.7812 9.375 50.7812C9.9966 50.7812 10.5927 50.5343 11.0323 50.0948C11.4718 49.6552 11.7188 49.0591 11.7188 48.4375V45.3125C11.7194 44.6911 11.9666 44.0954 12.406 43.656C12.8454 43.2166 13.4411 42.9694 14.0625 42.9688H92.1875C92.8089 42.9694 93.4046 43.2166 93.844 43.656C94.2834 44.0954 94.5306 44.6911 94.5312 45.3125V92.1875C94.5306 92.8089 94.2834 93.4046 93.844 93.844C93.4046 94.2834 92.8089 94.5306 92.1875 94.5312H43.75C43.1284 94.5312 42.5323 94.7782 42.0927 95.2177C41.6532 95.6573 41.4062 96.2534 41.4062 96.875C41.4062 97.4966 41.6532 98.0927 42.0927 98.5323C42.5323 98.9718 43.1284 99.2188 43.75 99.2188H92.1875C94.0517 99.2167 95.8389 98.4753 97.1571 97.1571C98.4753 95.8389 99.2167 94.0517 99.2188 92.1875V45.3125C99.2167 43.4483 98.4753 41.6611 97.1571 40.3429C95.8389 39.0247 94.0517 38.2833 92.1875 38.2812ZM24.2188 34.375C24.2188 26.7086 27.2642 19.3562 32.6852 13.9352C38.1062 8.51422 45.4586 5.46875 53.125 5.46875C60.7914 5.46875 68.1438 8.51422 73.5648 13.9352C78.9858 19.3562 82.0312 26.7086 82.0312 34.375V38.2812H77.3438V34.375C77.3438 27.9518 74.7921 21.7917 70.2502 17.2498C65.7083 12.7079 59.5482 10.1562 53.125 10.1562C46.7018 10.1562 40.5417 12.7079 35.9998 17.2498C31.4579 21.7917 28.9062 27.9518 28.9062 34.375V38.2812H24.2188V34.375ZM72.6562 38.2812H33.5938V34.375C33.5938 29.195 35.6515 24.2271 39.3143 20.5643C42.9771 16.9015 47.945 14.8438 53.125 14.8438C58.305 14.8438 63.2729 16.9015 66.9357 20.5643C70.5985 24.2271 72.6562 29.195 72.6562 34.375V38.2812Z" fill="black"/>
<path d="M53.125 89.8438H82.8125C84.6767 89.8417 86.4639 89.1003 87.7821 87.7821C89.1003 86.4639 89.8417 84.6767 89.8438 82.8125V54.6875C89.8417 52.8233 89.1003 51.0361 87.7821 49.7179C86.4639 48.3997 84.6767 47.6583 82.8125 47.6562H40.625C40.0034 47.6562 39.4073 47.9032 38.9677 48.3427C38.5282 48.7823 38.2812 49.3784 38.2812 50C38.2812 50.6216 38.5282 51.2177 38.9677 51.6573C39.4073 52.0968 40.0034 52.3438 40.625 52.3438H82.8125C83.4339 52.3444 84.0296 52.5916 84.469 53.031C84.9084 53.4704 85.1556 54.0661 85.1562 54.6875V82.8125C85.1556 83.4339 84.9084 84.0296 84.469 84.469C84.0296 84.9084 83.4339 85.1556 82.8125 85.1562H53.125C52.5034 85.1562 51.9073 85.4032 51.4677 85.8427C51.0282 86.2823 50.7812 86.8784 50.7812 87.5C50.7812 88.1216 51.0282 88.7177 51.4677 89.1573C51.9073 89.5968 52.5034 89.8438 53.125 89.8438Z" fill="black"/>
<path d="M77.3438 75V62.5C77.3438 61.8784 77.0968 61.2823 76.6573 60.8427C76.2177 60.4032 75.6216 60.1562 75 60.1562C74.3784 60.1562 73.7823 60.4032 73.3427 60.8427C72.9032 61.2823 72.6562 61.8784 72.6562 62.5V75C72.6562 75.6216 72.9032 76.2177 73.3427 76.6573C73.7823 77.0968 74.3784 77.3438 75 77.3438C75.6216 77.3438 76.2177 77.0968 76.6573 76.6573C77.0968 76.2177 77.3438 75.6216 77.3438 75Z" fill="black"/>
<path d="M66.4062 75V62.5C66.4062 61.8784 66.1593 61.2823 65.7198 60.8427C65.2802 60.4032 64.6841 60.1562 64.0625 60.1562C63.4409 60.1562 62.8448 60.4032 62.4052 60.8427C61.9657 61.2823 61.7188 61.8784 61.7188 62.5V75C61.7188 75.6216 61.9657 76.2177 62.4052 76.6573C62.8448 77.0968 63.4409 77.3438 64.0625 77.3438C64.6841 77.3438 65.2802 77.0968 65.7198 76.6573C66.1593 76.2177 66.4062 75.6216 66.4062 75Z" fill="black"/>
<path d="M53.125 77.3438C53.4328 77.3438 53.7376 77.2832 54.022 77.1654C54.3064 77.0477 54.5647 76.875 54.7824 76.6574C55 76.4397 55.1727 76.1814 55.2904 75.897C55.4082 75.6126 55.4688 75.3078 55.4688 75V62.5C55.4688 61.8784 55.2218 61.2823 54.7823 60.8427C54.3427 60.4032 53.7466 60.1562 53.125 60.1562C52.5034 60.1562 51.9073 60.4032 51.4677 60.8427C51.0282 61.2823 50.7813 61.8784 50.7813 62.5V75C50.7812 75.3078 50.8418 75.6126 50.9596 75.897C51.0773 76.1814 51.25 76.4397 51.4676 76.6574C51.6853 76.875 51.9436 77.0477 52.228 77.1654C52.5124 77.2832 52.8172 77.3438 53.125 77.3438Z" fill="black"/>
</g>
<defs>
<clipPath id="clip0_3313_13812">
<rect width="100" height="100" fill="white"/>
</clipPath>
</defs>
</svg>
