<svg width="100" height="100" viewBox="0 0 100 100" fill="none" xmlns="http://www.w3.org/2000/svg">
<g clip-path="url(#clip0_3313_13856)">
<path d="M96.9696 63.9679L87.5946 54.5929C87.1551 54.1534 86.559 53.9064 85.9375 53.9062H64.0625C63.441 53.9064 62.8449 54.1534 62.4054 54.5929L53.0304 63.9679C52.5909 64.4074 52.3439 65.0035 52.3438 65.625V87.5C52.3439 88.1215 52.5909 88.7176 53.0304 89.1571L62.4054 98.5321C62.8449 98.9716 63.441 99.2186 64.0625 99.2188H85.9375C86.559 99.2186 87.1551 98.9716 87.5946 98.5321L96.9696 89.1571C97.4091 88.7176 97.6561 88.1215 97.6562 87.5V65.625C97.6561 65.0035 97.4091 64.4074 96.9696 63.9679ZM77.7344 68.75C77.7344 68.1284 77.9813 67.5323 78.4208 67.0927C78.8604 66.6532 79.4565 66.4062 80.0781 66.4062C80.6997 66.4062 81.2959 66.6532 81.7354 67.0927C82.1749 67.5323 82.4219 68.1284 82.4219 68.75V76.5625C82.4219 77.1841 82.1749 77.7802 81.7354 78.2198C81.2959 78.6593 80.6997 78.9062 80.0781 78.9062C79.4565 78.9062 78.8604 78.6593 78.4208 78.2198C77.9813 77.7802 77.7344 77.1841 77.7344 76.5625V68.75ZM67.5781 68.75C67.5781 68.1284 67.8251 67.5323 68.2646 67.0927C68.7041 66.6532 69.3003 66.4062 69.9219 66.4062C70.5435 66.4062 71.1396 66.6532 71.5792 67.0927C72.0187 67.5323 72.2656 68.1284 72.2656 68.75V76.5625C72.2656 77.1841 72.0187 77.7802 71.5792 78.2198C71.1396 78.6593 70.5435 78.9062 69.9219 78.9062C69.3003 78.9062 68.7041 78.6593 68.2646 78.2198C67.8251 77.7802 67.5781 77.1841 67.5781 76.5625V68.75ZM69.9219 87.1094C69.3811 87.1094 68.8524 86.949 68.4027 86.6485C67.9531 86.3481 67.6026 85.921 67.3956 85.4214C67.1887 84.9218 67.1345 84.372 67.24 83.8416C67.3455 83.3111 67.606 82.8239 67.9884 82.4415C68.3708 82.0591 68.858 81.7987 69.3884 81.6932C69.9188 81.5877 70.4686 81.6418 70.9683 81.8488C71.4679 82.0557 71.895 82.4062 72.1954 82.8559C72.4959 83.3055 72.6562 83.8342 72.6562 84.375C72.6562 85.1002 72.3682 85.7957 71.8554 86.3085C71.3426 86.8213 70.6471 87.1094 69.9219 87.1094ZM80.0781 87.1094C79.5373 87.1094 79.0087 86.949 78.559 86.6485C78.1093 86.3481 77.7588 85.921 77.5519 85.4214C77.3449 84.9218 77.2908 84.372 77.3963 83.8416C77.5018 83.3111 77.7622 82.8239 78.1446 82.4415C78.527 82.0591 79.0143 81.7987 79.5447 81.6932C80.0751 81.5877 80.6249 81.6418 81.1245 81.8488C81.6242 82.0557 82.0512 82.4062 82.3517 82.8559C82.6521 83.3055 82.8125 83.8342 82.8125 84.375C82.8125 85.1002 82.5244 85.7957 82.0116 86.3085C81.4988 86.8213 80.8033 87.1094 80.0781 87.1094Z" fill="#1890FF"/>
<path d="M42.9688 53.125C42.9687 52.5034 42.7218 51.9073 42.2822 51.4678C41.8427 51.0282 41.2466 50.7813 40.625 50.7812H25C24.3784 50.7812 23.7823 51.0282 23.3427 51.4677C22.9032 51.9073 22.6563 52.5034 22.6562 53.125C22.6563 53.7466 22.9032 54.3427 23.3427 54.7823C23.7823 55.2218 24.3784 55.4688 25 55.4688H40.625C41.2466 55.4687 41.8427 55.2218 42.2823 54.7822C42.7218 54.3427 42.9687 53.7466 42.9688 53.125Z" fill="black"/>
<path d="M25 60.1562C24.3784 60.1562 23.7823 60.4032 23.3427 60.8427C22.9032 61.2823 22.6563 61.8784 22.6562 62.5C22.6563 63.1216 22.9032 63.7177 23.3427 64.1573C23.7823 64.5968 24.3784 64.8438 25 64.8438H34.375C34.9966 64.8438 35.5927 64.5968 36.0323 64.1573C36.4718 63.7177 36.7188 63.1216 36.7188 62.5C36.7188 61.8784 36.4718 61.2823 36.0323 60.8427C35.5927 60.4032 34.9966 60.1562 34.375 60.1562H25Z" fill="black"/>
<path d="M92.1875 0.78125H20.3125C18.4483 0.783281 16.6611 1.52472 15.3429 2.8429C14.0247 4.16107 13.2833 5.94832 13.2812 7.8125V13.2812H7.8125C5.94832 13.2833 4.16107 14.0247 2.8429 15.3429C1.52472 16.6611 0.783281 18.4483 0.78125 20.3125V79.6875C0.783281 81.5517 1.52472 83.3389 2.8429 84.6571C4.16107 85.9753 5.94832 86.7167 7.8125 86.7188H45.3125C45.9341 86.7188 46.5302 86.4718 46.9698 86.0323C47.4093 85.5927 47.6562 84.9966 47.6562 84.375C47.6562 83.7534 47.4093 83.1573 46.9698 82.7177C46.5302 82.2782 45.9341 82.0312 45.3125 82.0312H7.8125C7.19111 82.0306 6.59536 81.7834 6.15597 81.344C5.71658 80.9046 5.46943 80.3089 5.46875 79.6875V33.4801L13.2812 37.3863V67.1875C13.2833 69.0517 14.0247 70.8389 15.3429 72.1571C16.6611 73.4753 18.4483 74.2167 20.3125 74.2188H45.3125C45.9341 74.2188 46.5302 73.9718 46.9698 73.5323C47.4093 73.0927 47.6562 72.4966 47.6562 71.875C47.6562 71.2534 47.4093 70.6573 46.9698 70.2177C46.5302 69.7782 45.9341 69.5312 45.3125 69.5312H20.3125C19.6911 69.5306 19.0954 69.2834 18.656 68.844C18.2166 68.4046 17.9694 67.8089 17.9688 67.1875V19.5483L52.9175 38.3682C53.9416 38.9203 55.0868 39.2092 56.2502 39.209C57.4136 39.2087 58.5587 38.9192 59.5825 38.3667L94.5312 19.5481V53.9291C94.5312 54.5507 94.7782 55.1469 95.2177 55.5864C95.6573 56.026 96.2534 56.2729 96.875 56.2729C97.4966 56.2729 98.0927 56.026 98.5323 55.5864C98.9718 55.1469 99.2188 54.5507 99.2188 53.9291V7.8125C99.2167 5.94832 98.4753 4.16107 97.1571 2.8429C95.8389 1.52472 94.0517 0.783281 92.1875 0.78125ZM5.46875 28.2387V20.3125C5.46943 19.6911 5.71658 19.0954 6.15597 18.656C6.59536 18.2166 7.19111 17.9694 7.8125 17.9688H13.2812V32.1449L5.46875 28.2387ZM57.3608 34.2392C57.0196 34.4235 56.638 34.5201 56.2502 34.5204C55.8624 34.5206 55.4806 34.4246 55.1392 34.2408L17.9688 14.2259V7.8125C17.9694 7.19111 18.2166 6.59536 18.656 6.15597C19.0954 5.71658 19.6911 5.46943 20.3125 5.46875H92.1875C92.8089 5.46943 93.4046 5.71658 93.844 6.15597C94.2834 6.59536 94.5306 7.19111 94.5312 7.8125V14.2259L57.3608 34.2392Z" fill="black"/>
</g>
<defs>
<clipPath id="clip0_3313_13856">
<rect width="100" height="100" fill="white"/>
</clipPath>
</defs>
</svg>
