<svg width="100" height="100" viewBox="0 0 100 100" fill="none" xmlns="http://www.w3.org/2000/svg">
<g clip-path="url(#clip0_3313_13801)">
<path d="M26.5625 89.8438C27.1841 89.8436 27.7801 89.5966 28.2196 89.1571C28.6591 88.7176 28.9061 88.1216 28.9062 87.5V84.375C28.9062 83.7534 28.6593 83.1573 28.2198 82.7177C27.7802 82.2782 27.1841 82.0312 26.5625 82.0312C25.9409 82.0312 25.3448 82.2782 24.9052 82.7177C24.4657 83.1573 24.2188 83.7534 24.2188 84.375V87.5C24.2189 88.1216 24.4659 88.7176 24.9054 89.1571C25.3449 89.5966 25.9409 89.8436 26.5625 89.8438Z" fill="black"/>
<path d="M89.45 29.95C89.2796 29.6936 89.0602 29.4733 88.8045 29.3018C88.5488 29.1303 88.2617 29.011 87.9598 28.9506C87.6579 28.8902 87.347 28.89 87.045 28.9499C86.743 29.0099 86.4558 29.1289 86.1999 29.3L80.4687 33.1207V26.5625C80.4687 25.9409 80.2218 25.3448 79.7822 24.9052C79.3427 24.4657 78.7465 24.2188 78.1249 24.2188C77.5033 24.2188 76.9072 24.4657 76.4676 24.9052C76.0281 25.3448 75.7812 25.9409 75.7812 26.5625V33.1207L70.0499 29.3C69.5327 28.9601 68.902 28.8385 68.2955 28.9619C67.689 29.0853 67.1559 29.4436 66.8126 29.9586C66.4693 30.4735 66.3436 31.1034 66.463 31.7107C66.5824 32.318 66.9371 32.8535 67.4498 33.2002L73.8998 37.5L67.4499 41.8C66.9372 42.1467 66.5825 42.6821 66.4631 43.2894C66.3437 43.8967 66.4694 44.5266 66.8127 45.0416C67.156 45.5566 67.6891 45.9149 68.2956 46.0382C68.9021 46.1616 69.5328 46.0401 70.05 45.7002L75.7812 41.8793V48.4375C75.7812 49.0591 76.0281 49.6552 76.4676 50.0948C76.9072 50.5343 77.5033 50.7812 78.1249 50.7812C78.7465 50.7812 79.3427 50.5343 79.7822 50.0948C80.2218 49.6552 80.4687 49.0591 80.4687 48.4375V41.8793L86.1999 45.7001C86.4559 45.8743 86.7439 45.9961 87.0473 46.0584C87.3507 46.1207 87.6634 46.1223 87.9673 46.063C88.2713 46.0037 88.5605 45.8848 88.8182 45.7131C89.076 45.5414 89.2971 45.3203 89.4689 45.0626C89.6407 44.805 89.7597 44.5158 89.819 44.2119C89.8784 43.9079 89.8769 43.5952 89.8147 43.2918C89.7525 42.9885 89.6308 42.7004 89.4566 42.4444C89.2825 42.1883 89.0593 41.9693 88.7999 41.8L82.3501 37.5L88.8 33.2C89.0561 33.0293 89.2761 32.8099 89.4475 32.5542C89.6188 32.2985 89.738 32.0115 89.7984 31.7097C89.8587 31.4079 89.859 31.0971 89.7993 30.7952C89.7395 30.4932 89.6208 30.206 89.45 29.95Z" fill="black"/>
<path d="M50.0001 50.7812C50.6216 50.7811 51.2177 50.5341 51.6572 50.0946C52.0967 49.6551 52.3437 49.0591 52.3438 48.4375V41.8793L58.0751 45.7001C58.3311 45.8743 58.6191 45.9961 58.9225 46.0584C59.2258 46.1207 59.5385 46.1223 59.8425 46.063C60.1464 46.0037 60.4356 45.8848 60.6934 45.7131C60.9511 45.5414 61.1722 45.3203 61.344 45.0626C61.5158 44.805 61.6348 44.5158 61.6942 44.2119C61.7536 43.9079 61.7521 43.5952 61.6899 43.2918C61.6277 42.9885 61.506 42.7004 61.3318 42.4444C61.1576 42.1883 60.9344 41.9693 60.6751 41.8L54.2252 37.5L60.6751 33.2C61.1852 32.8522 61.5374 32.3172 61.6553 31.7112C61.7732 31.1052 61.6472 30.4772 61.3048 29.9635C60.9623 29.4499 60.4311 29.0921 59.8263 28.9678C59.2216 28.8436 58.5923 28.963 58.0751 29.3L52.3438 33.1207V26.5625C52.3438 25.9409 52.0969 25.3448 51.6574 24.9052C51.2178 24.4657 50.6217 24.2188 50.0001 24.2188C49.3785 24.2188 48.7823 24.4657 48.3428 24.9052C47.9033 25.3448 47.6563 25.9409 47.6563 26.5625V33.1207L41.9251 29.3C41.4079 28.9601 40.7772 28.8385 40.1707 28.9619C39.5641 29.0853 39.0311 29.4436 38.6877 29.9586C38.3444 30.4735 38.2187 31.1034 38.3381 31.7107C38.4575 32.318 38.8123 32.8535 39.325 33.2002L45.7749 37.5L39.3251 41.8C39.0668 41.9698 38.8446 42.1889 38.6714 42.4449C38.4981 42.7008 38.3772 42.9885 38.3156 43.2914C38.254 43.5943 38.2529 43.9064 38.3124 44.2097C38.3718 44.513 38.4907 44.8015 38.6622 45.0587C38.8336 45.3159 39.0543 45.5366 39.3113 45.7082C39.5684 45.8797 39.8569 45.9987 40.1602 46.0584C40.4635 46.118 40.7756 46.117 41.0785 46.0555C41.3814 45.9941 41.6691 45.8733 41.9252 45.7002L47.6563 41.8793V48.4375C47.6565 49.0591 47.9035 49.6551 48.343 50.0946C48.7825 50.5341 49.3785 50.7811 50.0001 50.7812Z" fill="black"/>
<path d="M33.2003 29.95C33.0298 29.6936 32.8105 29.4734 32.5548 29.3019C32.299 29.1304 32.012 29.0111 31.7101 28.9507C31.4082 28.8903 31.0973 28.8901 30.7953 28.95C30.4933 29.01 30.2061 29.1289 29.9502 29.3L24.219 33.1207V26.5625C24.219 25.9409 23.9721 25.3448 23.5325 24.9052C23.093 24.4657 22.4968 24.2188 21.8752 24.2188C21.2536 24.2188 20.6575 24.4657 20.2179 24.9052C19.7784 25.3448 19.5315 25.9409 19.5315 26.5625V33.1207L13.8002 29.3C13.283 28.9624 12.6534 28.8425 12.0483 28.9666C11.4432 29.0907 10.9115 29.4486 10.5689 29.9625C10.2263 30.4765 10.1004 31.1049 10.2186 31.7112C10.3368 32.3174 10.6896 32.8525 11.2002 33.2001L17.6501 37.5L11.2002 41.8C10.6896 42.1476 10.3368 42.6827 10.2186 43.2889C10.1004 43.8952 10.2263 44.5236 10.5689 45.0376C10.9115 45.5515 11.4432 45.9094 12.0483 46.0335C12.6534 46.1575 13.283 46.0377 13.8002 45.7001L19.5315 41.8793V48.4375C19.5315 49.0591 19.7784 49.6552 20.2179 50.0948C20.6575 50.5343 21.2536 50.7812 21.8752 50.7812C22.4968 50.7812 23.093 50.5343 23.5325 50.0948C23.9721 49.6552 24.219 49.0591 24.219 48.4375V41.8793L29.9502 45.7001C30.2062 45.8743 30.4942 45.9961 30.7976 46.0584C31.101 46.1207 31.4137 46.1223 31.7176 46.063C32.0216 46.0037 32.3108 45.8848 32.5685 45.7131C32.8263 45.5414 33.0474 45.3203 33.2192 45.0626C33.391 44.805 33.51 44.5158 33.5693 44.2119C33.6287 43.9079 33.6272 43.5952 33.565 43.2918C33.5028 42.9885 33.3811 42.7004 33.2069 42.4444C33.0328 42.1883 32.8096 41.9693 32.5502 41.8L26.1004 37.5L32.5503 33.2C32.8064 33.0293 33.0264 32.8099 33.1978 32.5542C33.3691 32.2985 33.4883 32.0115 33.5487 31.7097C33.609 31.4079 33.6093 31.0971 33.5496 30.7952C33.4898 30.4932 33.3711 30.206 33.2003 29.95Z" fill="black"/>
<path d="M92.1875 0.78125H7.8125C5.94832 0.783281 4.16107 1.52472 2.8429 2.8429C1.52472 4.16107 0.783281 5.94832 0.78125 7.8125V79.6875C0.783281 81.5517 1.52472 83.3389 2.8429 84.6571C4.16107 85.9753 5.94832 86.7167 7.8125 86.7188H10.1562V92.1875C10.1583 94.0517 10.8997 95.8389 12.2179 97.1571C13.5361 98.4753 15.3233 99.2167 17.1875 99.2188H35.9375C37.8017 99.2167 39.5889 98.4753 40.9071 97.1571C42.2253 95.8389 42.9667 94.0517 42.9688 92.1875V86.7188H47.9523C48.5739 86.7188 49.17 86.4718 49.6095 86.0323C50.0491 85.5927 50.296 84.9966 50.296 84.375C50.296 83.7534 50.0491 83.1573 49.6095 82.7177C49.17 82.2782 48.5739 82.0312 47.9523 82.0312H42.9688V79.6875C42.9643 78.2382 42.5113 76.8257 41.672 75.6441C40.8327 74.4625 39.6483 73.5697 38.2812 73.0882V70.3125C38.2812 67.2045 37.0466 64.2238 34.8489 62.0261C32.6512 59.8284 29.6705 58.5938 26.5625 58.5938C23.4545 58.5938 20.4738 59.8284 18.2761 62.0261C16.0784 64.2238 14.8438 67.2045 14.8438 70.3125V73.0882C13.4767 73.5697 12.2923 74.4625 11.453 75.6441C10.6137 76.8257 10.1607 78.2382 10.1562 79.6875V82.0312H7.8125C7.19111 82.0306 6.59536 81.7834 6.15597 81.344C5.71658 80.9046 5.46943 80.3089 5.46875 79.6875V17.9688H94.5312V54.9713C94.5312 55.5929 94.7782 56.1891 95.2177 56.6286C95.6573 57.0681 96.2534 57.3151 96.875 57.3151C97.4966 57.3151 98.0927 57.0681 98.5323 56.6286C98.9718 56.1891 99.2188 55.5929 99.2188 54.9713V7.8125C99.2167 5.94832 98.4753 4.16107 97.1571 2.8429C95.8389 1.52472 94.0517 0.783281 92.1875 0.78125ZM26.5625 63.2812C28.4267 63.2833 30.2139 64.0247 31.5321 65.3429C32.8503 66.6611 33.5917 68.4483 33.5938 70.3125V72.6562H19.5312V70.3125C19.5333 68.4483 20.2747 66.6611 21.5929 65.3429C22.9111 64.0247 24.6983 63.2833 26.5625 63.2812ZM14.8438 79.6875C14.8444 79.0661 15.0916 78.4704 15.531 78.031C15.9704 77.5916 16.5661 77.3444 17.1875 77.3438H35.9375C36.5589 77.3444 37.1546 77.5916 37.594 78.031C38.0334 78.4704 38.2806 79.0661 38.2812 79.6875V92.1875C38.2806 92.8089 38.0334 93.4046 37.594 93.844C37.1546 94.2834 36.5589 94.5306 35.9375 94.5312H17.1875C16.5661 94.5306 15.9704 94.2834 15.531 93.844C15.0916 93.4046 14.8444 92.8089 14.8438 92.1875V79.6875ZM5.46875 13.2812V7.8125C5.46943 7.19111 5.71658 6.59536 6.15597 6.15597C6.59536 5.71658 7.19111 5.46943 7.8125 5.46875H92.1875C92.8089 5.46943 93.4046 5.71658 93.844 6.15597C94.2834 6.59536 94.5306 7.19111 94.5312 7.8125V13.2812H5.46875Z" fill="black"/>
<path d="M71.0939 76.5625C71.0923 75.7791 71.2598 75.0046 71.5852 74.292C71.9106 73.5793 72.3861 72.9454 72.9791 72.4335C73.5722 71.9217 74.2688 71.544 75.0214 71.3263C75.7739 71.1087 76.5646 71.0561 77.3394 71.1723L80.1431 66.9668C78.9849 66.5994 77.7777 66.4104 76.5627 66.4062C70.952 66.4062 65.8724 70.3644 63.4355 76.5625C64.53 79.4681 66.3865 82.0254 68.8103 83.9659L71.8855 79.3532C71.3725 78.5124 71.0988 77.5475 71.0939 76.5625Z" fill="#1890FF"/>
<path d="M84.3151 69.1592L81.2399 73.7718C81.7772 74.6539 82.0515 75.6711 82.0304 76.7037C82.0093 77.7363 81.6937 78.7414 81.1208 79.6008C80.5479 80.4602 79.7415 81.1381 78.7964 81.5547C77.8513 81.9714 76.8069 82.1095 75.786 81.9527L72.9824 86.1581C74.1405 86.5255 75.3477 86.7146 76.5627 86.7188C82.1734 86.7188 87.253 82.7607 89.6898 76.5626C88.5954 73.657 86.7389 71.0997 84.3151 69.1592Z" fill="#1890FF"/>
<path d="M76.5625 53.9062C72.0815 53.9063 67.7012 55.235 63.9754 57.7245C60.2496 60.214 57.3457 63.7524 55.6309 67.8923C53.9161 72.0322 53.4674 76.5876 54.3416 80.9825C55.2158 85.3774 57.3736 89.4144 60.5421 92.5829C63.7107 95.7514 67.7476 97.9092 72.1425 98.7834C76.5374 99.6576 81.0928 99.2089 85.2327 97.4941C89.3726 95.7793 92.911 92.8754 95.4005 89.1496C97.89 85.4238 99.2188 81.0435 99.2188 76.5625C99.2119 70.5558 96.8226 64.7971 92.5753 60.5497C88.3279 56.3024 82.5692 53.9132 76.5625 53.9062ZM76.5625 91.4062C74.4167 91.4007 72.2919 90.9831 70.3036 90.176L69.1376 91.925C68.79 92.4356 68.2549 92.7884 67.6487 92.9066C67.0424 93.0248 66.414 92.8989 65.9 92.5563C65.3861 92.2137 65.0282 91.682 64.9041 91.0769C64.78 90.4718 64.8999 89.8422 65.2375 89.325L66.2096 87.8669C62.7195 85.1802 60.1125 81.5113 58.7234 77.3315C58.551 76.8333 58.551 76.2917 58.7234 75.7935C61.6959 67.244 68.6981 61.7188 76.5625 61.7188C78.7083 61.7243 80.8331 62.1419 82.8214 62.949L83.9875 61.2C84.1573 60.9417 84.3764 60.7195 84.6324 60.5463C84.8883 60.373 85.1761 60.2521 85.4789 60.1905C85.7818 60.1289 86.0939 60.1278 86.3972 60.1873C86.7005 60.2468 86.989 60.3657 87.2462 60.5371C87.5034 60.7086 87.7241 60.9292 87.8957 61.1863C88.0672 61.4434 88.1863 61.7319 88.2459 62.0351C88.3055 62.3384 88.3045 62.6505 88.2431 62.9534C88.1816 63.2563 88.0608 63.5441 87.8877 63.8001L86.9156 65.2582C90.4056 67.9449 93.0126 71.6138 94.4016 75.7935C94.574 76.2917 94.574 76.8333 94.4016 77.3315C91.4291 85.8811 84.4269 91.4062 76.5625 91.4062Z" fill="#1890FF"/>
</g>
<defs>
<clipPath id="clip0_3313_13801">
<rect width="100" height="100" fill="white"/>
</clipPath>
</defs>
</svg>
