<svg width="137" height="231" viewBox="0 0 137 231" fill="none" xmlns="http://www.w3.org/2000/svg">
<g clip-path="url(#clip0_3400_36491)">
<path d="M45.1967 208.937L49.0872 210.739C49.3262 210.851 49.7253 210.87 49.9779 210.793C50.9476 210.49 51.9597 210.251 52.9988 210.076C53.2591 210.032 53.5116 209.789 53.5618 209.53L54.0476 206.966C54.0977 206.706 54.3522 206.496 54.6163 206.496H60.2592C60.5233 206.496 60.7778 206.706 60.8279 206.966L61.3157 209.53C61.3658 209.791 61.6164 210.032 61.8786 210.076C62.9158 210.251 63.9299 210.49 64.8977 210.793C65.1502 210.872 65.5474 210.851 65.7883 210.739L69.6788 208.937C69.9178 208.825 70.2996 208.842 70.529 208.975L74.3674 211.192C74.5968 211.325 74.6084 211.556 74.3924 211.711L71.3503 213.899C71.1363 214.053 71.1151 214.328 71.2943 214.523C71.7397 215.009 72.1002 215.514 72.3797 216.029C72.507 216.262 72.8077 216.472 73.0718 216.487L78.1865 216.811C78.4506 216.829 78.6646 217.056 78.6646 217.32V220.173C78.6646 220.437 78.4506 220.665 78.1865 220.682L73.0718 221.006C72.8077 221.023 72.507 221.233 72.3797 221.465C72.1002 221.981 71.7378 222.485 71.2943 222.97C71.1151 223.165 71.1363 223.441 71.3503 223.595L74.3924 225.783C74.6064 225.937 74.5949 226.17 74.3674 226.301L70.529 228.516C70.2996 228.649 69.9198 228.665 69.6788 228.555L65.7883 226.753C65.5474 226.641 65.1502 226.62 64.8977 226.699C63.9279 227.001 62.9158 227.24 61.8767 227.418C61.6164 227.462 61.3639 227.705 61.3138 227.963L60.8279 230.527C60.7778 230.787 60.5233 230.997 60.2592 230.997H54.6144C54.3503 230.997 54.0958 230.787 54.0457 230.527L53.5579 227.963C53.5078 227.703 53.2572 227.462 52.995 227.418C51.9559 227.242 50.9437 227.003 49.974 226.699C49.7214 226.62 49.3243 226.641 49.0833 226.753L45.1929 228.555C44.9538 228.667 44.5721 228.649 44.3427 228.516L40.5043 226.3C40.2749 226.167 40.2633 225.935 40.4792 225.781L43.5214 223.593C43.7354 223.439 43.7566 223.163 43.5773 222.968C43.132 222.483 42.7715 221.978 42.4919 221.463C42.3647 221.23 42.0659 221.021 41.8017 221.004L36.6871 220.68C36.423 220.663 36.209 220.435 36.209 220.171V217.318C36.209 217.054 36.423 216.827 36.6871 216.809L41.8017 216.486C42.0659 216.468 42.3666 216.26 42.4919 216.027C42.7715 215.51 43.1339 215.007 43.5773 214.519C43.7566 214.325 43.7354 214.049 43.5214 213.895L40.4792 211.707C40.2652 211.552 40.2768 211.319 40.5043 211.188L44.3427 208.971C44.5721 208.838 44.9519 208.823 45.1929 208.933L45.1967 208.937ZM50.9534 215.003C47.3714 217.072 47.3714 220.422 50.9534 222.49C54.5353 224.557 60.3421 224.559 63.9222 222.49C67.5042 220.424 67.5022 217.07 63.9222 215.003C60.3402 212.937 54.5353 212.937 50.9534 215.003Z" fill="#EBEBEB"/>
<path d="M28.8171 191.982L31.6993 193.318C31.8766 193.401 32.1716 193.416 32.3586 193.356C33.0758 193.133 33.8276 192.955 34.5969 192.824C34.7897 192.792 34.9767 192.612 35.0133 192.42L35.3738 190.521C35.4104 190.328 35.5994 190.172 35.7941 190.172H39.9756C40.1723 190.172 40.3593 190.328 40.3959 190.521L40.7564 192.42C40.7931 192.612 40.9801 192.792 41.1728 192.824C41.9421 192.955 42.692 193.131 43.4111 193.356C43.5981 193.414 43.8931 193.399 44.0704 193.318L46.9526 191.982C47.13 191.899 47.4114 191.913 47.5811 192.011L50.4247 193.653C50.5944 193.752 50.6021 193.923 50.444 194.039L48.1903 195.66C48.0303 195.774 48.0168 195.978 48.1479 196.123C48.4776 196.483 48.7455 196.857 48.9518 197.239C49.0463 197.41 49.268 197.567 49.4646 197.578L53.2548 197.817C53.4495 197.829 53.6096 197.998 53.6096 198.195V200.31C53.6096 200.506 53.4515 200.674 53.2548 200.688L49.4646 200.927C49.2699 200.938 49.0463 201.094 48.9518 201.266C48.7436 201.648 48.4756 202.022 48.1479 202.382C48.0149 202.527 48.0303 202.731 48.1903 202.845L50.444 204.466C50.604 204.58 50.5944 204.753 50.4247 204.851L47.5811 206.494C47.4114 206.592 47.13 206.604 46.9526 206.523L44.0704 205.187C43.8931 205.104 43.5981 205.089 43.4111 205.148C42.692 205.372 41.9421 205.549 41.1728 205.68C40.9801 205.713 40.7931 205.892 40.7564 206.085L40.3959 207.984C40.3593 208.177 40.1703 208.333 39.9756 208.333H35.7941C35.5974 208.333 35.4104 208.177 35.3738 207.984L35.0133 206.085C34.9767 205.892 34.7897 205.713 34.5969 205.68C33.8276 205.549 33.0777 205.372 32.3586 205.148C32.1716 205.09 31.8766 205.106 31.6993 205.187L28.8171 206.523C28.6397 206.606 28.3583 206.592 28.1886 206.494L25.345 204.851C25.1754 204.753 25.1657 204.582 25.3257 204.466L27.5794 202.845C27.7394 202.731 27.7529 202.527 27.6218 202.382C27.2922 202.022 27.0242 201.648 26.8179 201.266C26.7234 201.094 26.5017 200.938 26.3051 200.927L22.5149 200.688C22.3202 200.676 22.1602 200.506 22.1602 200.31V198.195C22.1602 197.998 22.3182 197.831 22.5149 197.817L26.3051 197.578C26.4998 197.567 26.7234 197.41 26.8179 197.239C27.0261 196.857 27.2941 196.483 27.6218 196.123C27.7548 195.978 27.7394 195.774 27.5794 195.66L25.3257 194.039C25.1676 193.925 25.1754 193.752 25.345 193.653L28.1886 192.011C28.3583 191.913 28.6397 191.901 28.8171 191.982ZM33.0816 196.477C30.4288 198.01 30.4288 200.493 33.0816 202.023C35.7343 203.556 40.0373 203.556 42.6901 202.023C45.3428 200.491 45.3428 198.008 42.6901 196.476C40.0373 194.943 35.7343 194.943 33.0816 196.476V196.477Z" fill="#EBEBEB"/>
<path d="M40.6367 169.985V7.48979C40.6367 3.30858 42.715 2.15581 44.558 1.09171C46.4011 0.0276106 49.4394 -0.618174 52.0613 0.895082L119.169 39.6344C121.791 41.1477 123.915 44.8277 123.915 47.8542V210.351C123.915 213.377 122.016 215.161 120.171 216.227C118.326 217.291 115.11 218.461 112.49 216.948L45.3831 178.206C42.7612 176.693 40.6386 174.202 40.6367 169.987V169.985Z" fill="#30BAFF"/>
<path d="M44.9046 171.523L113.911 211.359L113.89 48.1609L122.525 43.1758C123.383 44.664 123.915 46.3392 123.915 47.8524V210.349C123.915 213.376 122.016 215.159 120.171 216.225C118.326 217.289 115.11 218.459 112.49 216.946L45.3827 178.204C43.7459 177.26 42.1265 175.839 41.2744 173.62L41.5424 173.466L44.9065 171.523H44.9046Z" fill="#4EC4FE"/>
<path d="M45.5062 6.08436L112.804 44.9375C114.64 45.9938 116.138 48.5885 116.138 50.7013V211.878C116.138 215.126 113.83 216.456 111.015 214.827L45.5062 177.011C43.4318 175.812 41.7314 172.874 41.7314 170.474V8.26268C41.7314 5.8646 43.4299 4.88533 45.5062 6.08436Z" fill="white"/>
<path d="M45.0165 15.9657V166.63C45.0165 168.914 46.6283 171.71 48.6005 172.845L109.271 207.872C111.249 209.022 112.855 208.097 112.855 205.805V54.0342C112.855 52.1817 111.802 49.9957 110.339 48.6308C110.223 48.5267 110.113 48.4226 109.999 48.3243C109.764 48.1373 109.517 47.9677 109.271 47.8251L92.2051 37.9725C92.2051 37.9725 91.7058 37.6814 91.0927 37.3306C90.4797 36.9739 89.9803 37.2593 89.9803 37.9725C89.9803 38.6858 89.4482 38.9537 88.7908 38.5701L68.9029 27.0906C68.2513 26.7127 67.7134 25.8298 67.7134 25.1243C67.7134 24.4612 67.2758 23.6554 66.7167 23.2602C66.6781 23.2332 66.6396 23.2101 66.601 23.1889L49.9076 13.5561L49.5509 13.3479C47.0524 11.9059 45.0127 13.0857 45.0127 15.9676L45.0165 15.9657Z" fill="#007AFF"/>
<path d="M53.8075 168.821C51.8353 167.687 50.2236 164.892 50.2236 162.606V13.7363L66.6028 23.1879C66.6414 23.2091 66.68 23.2323 66.7185 23.2592C67.2776 23.6544 67.7152 24.4602 67.7152 25.1233C67.7152 25.8308 68.2531 26.7118 68.9047 27.0915L88.7927 38.5711C89.4501 38.9547 89.9822 38.681 89.9822 37.9735C89.9822 37.266 90.4815 36.9769 91.0945 37.3316C91.7076 37.6824 92.2069 37.9735 92.2069 37.9735L109.272 47.826C109.519 47.9687 109.766 48.1383 110.001 48.3253C110.117 48.4236 110.225 48.5277 110.34 48.6318C111.804 49.9966 112.856 52.1827 112.856 54.0352V202.911L53.8095 168.821H53.8075Z" fill="#4EC4FE"/>
<path d="M85.772 32.5046L76.6551 27.242C76.1114 26.9277 75.6699 27.1513 75.6699 27.7393C75.6699 28.3273 76.1114 29.0598 76.6551 29.374L85.772 34.6367C86.3156 34.9509 86.7571 34.7273 86.7571 34.1393C86.7571 33.5514 86.3156 32.8188 85.772 32.5046Z" fill="#4EC4FE"/>
<path d="M71.9776 24.1102C71.3646 23.7574 70.8691 24.0427 70.8672 24.7502C70.8672 25.4576 71.3646 26.3174 71.9757 26.6721C72.5888 27.0268 73.0842 26.7396 73.0842 26.0321C73.0842 25.3246 72.5869 24.4649 71.9757 24.1102H71.9776Z" fill="#4EC4FE"/>
<path d="M117.688 67.3482C117.688 66.1568 118.473 64.7361 119.443 64.1771C119.911 63.9072 120.334 63.8898 120.646 64.0788C120.866 64.2118 121.731 64.6937 121.961 64.8306C122.294 65.0311 122.502 65.4629 122.502 66.0759V79.3173C122.502 80.5106 121.718 81.9294 120.748 82.4884C120.301 82.7467 119.896 82.7737 119.589 82.6118C119.348 82.4846 118.463 81.9737 118.234 81.8369C117.899 81.6383 117.69 81.2046 117.69 80.5896V67.3482H117.688Z" fill="white"/>
<path d="M118.993 68.1023V81.3438C118.993 82.5351 119.778 83.0498 120.748 82.4908C121.717 81.9318 122.502 80.511 122.502 79.3197V66.0782C122.502 64.885 121.717 64.3722 120.748 64.9313C119.778 65.4903 118.993 66.911 118.993 68.1023Z" fill="#30BAFF"/>
<path d="M117.688 90.5239C117.688 89.3326 118.473 87.9119 119.443 87.3529C119.911 87.083 120.334 87.0656 120.646 87.2545C120.866 87.3876 121.731 87.8695 121.961 88.0064C122.294 88.2068 122.502 88.6386 122.502 89.2517V102.491C122.502 103.684 121.718 105.103 120.748 105.662C120.301 105.921 119.896 105.948 119.589 105.786C119.348 105.658 118.463 105.148 118.234 105.011C117.899 104.812 117.69 104.378 117.69 103.763V90.522L117.688 90.5239Z" fill="white"/>
<path d="M118.993 91.2762V104.518C118.993 105.711 119.778 106.224 120.748 105.665C121.717 105.106 122.502 103.685 122.502 102.494V89.2521C122.502 88.0588 121.717 87.546 120.748 88.1051C119.778 88.6641 118.993 90.0848 118.993 91.2762Z" fill="#30BAFF"/>
<path d="M36.7022 16.6471C37.562 16.1536 38.7438 16.223 40.049 16.9748L40.4211 17.1926L57.8953 27.2765C57.9358 27.2997 57.9763 27.3228 58.0148 27.3517C58.6009 27.7642 59.0597 28.6086 59.0597 29.3025C59.0597 30.0428 59.6227 30.9662 60.3051 31.3613L81.1242 43.3787C81.1397 43.3884 81.1551 43.3922 81.1705 43.3999C81.1821 43.0529 81.3093 42.8081 81.5098 42.6925C81.72 42.571 82.4988 42.118 82.7109 41.9966C82.921 41.8751 83.2121 41.8944 83.5341 42.0814C84.1761 42.4476 84.6985 42.7522 84.6985 42.7522L102.562 53.0655C102.821 53.2139 103.079 53.3932 103.326 53.5879C103.445 53.692 103.561 53.7999 103.68 53.9098C105.213 55.3383 106.314 57.6265 106.314 59.5657V217.426C106.314 218.622 105.896 219.458 105.219 219.849C105.014 219.967 104.209 220.432 104.006 220.549C103.328 220.941 102.393 220.885 101.359 220.283L37.8473 183.616C35.7826 182.429 34.0957 179.502 34.0957 177.112V20.41C34.0957 18.9045 34.6278 17.8461 35.4838 17.3488C35.6881 17.2312 36.4978 16.7647 36.7003 16.6471H36.7022Z" fill="#69C0FF"/>
<path opacity="0.3" d="M101.005 219.769V220.079L101.363 220.284C102.395 220.883 103.332 220.941 104.01 220.552C104.211 220.436 105.021 219.968 105.221 219.852C105.9 219.457 106.316 218.62 106.316 217.427V59.5663C106.316 58.267 105.817 56.8097 105.023 55.5586L103.592 56.3837C104.371 57.6097 104.849 59.0343 104.849 60.2603V218.121C104.849 218.878 104.67 219.505 104.334 219.931C104.018 220.326 103.571 220.536 103.045 220.536C102.576 220.536 102.04 220.369 101.498 220.052L101.009 219.769H101.005Z" fill="#007AFF"/>
<path opacity="0.3" d="M57.1553 28.7801C57.4232 29.154 57.5929 29.6051 57.5929 29.9945C57.5929 30.4475 57.7722 30.9526 58.0556 31.3883L59.4976 30.5574C59.2354 30.1622 59.06 29.7054 59.06 29.3005C59.06 28.863 58.8769 28.3637 58.5915 27.9492L57.1553 28.7801Z" fill="#007AFF"/>
<path d="M103.04 220.536C103.568 220.536 104.014 220.328 104.328 219.932C104.665 219.506 104.844 218.882 104.844 218.122V60.2598C104.844 58.4439 103.798 56.1981 102.296 54.7986L102.182 54.6945C102.105 54.6232 102.028 54.5518 101.949 54.4844C101.714 54.2993 101.467 54.1297 101.226 53.9909L83.3621 43.6776C83.3621 43.6776 82.8397 43.373 82.1996 43.0068C82.057 42.9239 81.9239 42.8815 81.8102 42.8815C81.4709 42.8815 81.4362 43.2766 81.4362 43.4463C81.4362 44.0882 81.0641 44.5219 80.5108 44.5219C80.2814 44.5219 80.0385 44.4487 79.7898 44.3041L58.9726 32.2867C58.1995 31.8376 57.5942 30.8313 57.5942 29.9966C57.5942 29.3932 57.1855 28.6318 56.663 28.2655C56.6302 28.2405 56.5975 28.2231 56.5647 28.2058L39.0885 18.12L38.7145 17.9002C38.0263 17.5031 37.3419 17.293 36.7365 17.293C35.2752 17.293 34.3652 18.4882 34.3652 20.412V177.114C34.3652 179.425 35.9885 182.24 37.9839 183.387L101.496 220.054C102.037 220.37 102.573 220.536 103.042 220.536H103.04Z" fill="#FAFAFA"/>
<path d="M36.7326 17.291C37.338 17.291 38.0224 17.5011 38.7106 17.8982L39.0846 18.118L56.5608 28.2038C56.5936 28.2212 56.6244 28.2404 56.6591 28.2636C57.1816 28.6318 57.5903 29.3932 57.5903 29.9947C57.5903 30.8313 58.1956 31.8376 58.9687 32.2848L79.7859 44.3022C80.0346 44.4467 80.2756 44.52 80.5069 44.52C81.0602 44.52 81.4323 44.0882 81.4323 43.4443C81.4323 43.2747 81.4689 42.8795 81.8063 42.8795C81.92 42.8795 82.055 42.9219 82.1957 43.0048C82.8358 43.3711 83.3582 43.6737 83.3582 43.6756L101.222 53.9889C101.463 54.1277 101.708 54.2954 101.945 54.4824C102.024 54.5499 102.101 54.6212 102.178 54.6925L102.292 54.7966C103.792 56.1962 104.841 58.4419 104.841 60.2578V69.7075L34.3633 29.0115V20.4101C34.3633 18.4862 35.2713 17.291 36.7346 17.291H36.7326Z" fill="#69C0FF"/>
<g opacity="0.3">
<path d="M36.7326 17.291C37.338 17.291 38.0224 17.5011 38.7106 17.8982L39.0846 18.118L56.5608 28.2038C56.5936 28.2212 56.6244 28.2404 56.6591 28.2636C57.1816 28.6318 57.5903 29.3932 57.5903 29.9947C57.5903 30.8313 58.1956 31.8376 58.9687 32.2848L79.7859 44.3022C80.0346 44.4467 80.2756 44.52 80.5069 44.52C81.0602 44.52 81.4323 44.0882 81.4323 43.4443C81.4323 43.2747 81.4689 42.8795 81.8063 42.8795C81.92 42.8795 82.055 42.9219 82.1957 43.0048C82.8358 43.3711 83.3582 43.6737 83.3582 43.6756L101.222 53.9889C101.463 54.1277 101.708 54.2954 101.945 54.4824C102.024 54.5499 102.101 54.6212 102.178 54.6925L102.292 54.7966C103.792 56.1962 104.841 58.4419 104.841 60.2578V69.7075L34.3633 29.0115V20.4101C34.3633 18.4862 35.2713 17.291 36.7346 17.291H36.7326Z" fill="white"/>
</g>
<path d="M98.3008 61.8444L98.8714 62.2068L98.9196 61.0656L98.349 60.7051L98.3008 61.8444Z" fill="#FAFAFA"/>
<path d="M97.3984 61.2714L97.9691 61.6339L98.0366 60.0011L97.4678 59.6387L97.3984 61.2714Z" fill="#FAFAFA"/>
<path d="M96.4961 60.6989L97.0648 61.0593L97.1612 58.8097L96.5925 58.4492L96.4961 60.6989Z" fill="#FAFAFA"/>
<path d="M95.5938 60.1246L96.1625 60.487L96.2839 57.6398L95.7152 57.2793L95.5938 60.1246Z" fill="#69C0FF"/>
<path d="M91.7542 54.6847C92.3402 55.0568 92.8588 55.718 93.2251 56.4775L92.8261 56.7667C92.5504 56.1884 92.1629 55.6987 91.7233 55.4211C91.278 55.1397 90.8712 55.13 90.5627 55.3286L90.208 54.5614C90.6225 54.2953 91.1681 54.3127 91.7542 54.6847ZM92.6699 56.8804L92.3036 57.1464C92.1455 56.8187 91.9257 56.5392 91.6809 56.3831C91.4303 56.2231 91.1931 56.2134 91.0235 56.331L90.6996 55.6255C90.9695 55.4462 91.3242 55.4578 91.7117 55.7026C92.0935 55.9455 92.4308 56.3715 92.6718 56.8766L92.6699 56.8804ZM92.132 57.2737L91.6269 57.6438L91.1739 56.6587C91.3069 56.5739 91.4785 56.5797 91.6655 56.6992C91.8544 56.8187 92.0164 57.025 92.1301 57.2737H92.132Z" fill="#FAFAFA"/>
<path d="M84.8828 50.3978C84.6785 50.2686 84.5049 50.39 84.4934 50.6676L84.4163 52.5047C84.4047 52.7843 84.5609 53.1139 84.7633 53.2431L87.9636 55.2749C88.1679 55.404 88.3414 55.2826 88.3549 55.005L88.432 53.1679C88.4436 52.8884 88.2874 52.5587 88.085 52.4296L84.8847 50.3978M84.8886 50.2416L88.0889 52.2734C88.3568 52.4431 88.5612 52.8787 88.5458 53.2431L88.4687 55.0802C88.4532 55.4445 88.2238 55.6045 87.9558 55.4349L84.7556 53.4031C84.4895 53.2334 84.2832 52.7978 84.2987 52.4334L84.3758 50.5963C84.3912 50.232 84.6206 50.072 84.8886 50.2416Z" fill="#69C0FF"/>
<path d="M86.0764 53.6107L87.879 54.7558C87.9619 54.8078 88.0332 54.7596 88.0371 54.6459L88.1007 53.123C88.1046 53.0093 88.0429 52.8762 87.96 52.8242L86.1574 51.6791C86.0745 51.6271 86.0032 51.6753 85.9993 51.789L85.9357 53.3119C85.9319 53.4256 85.9936 53.5586 86.0764 53.6107Z" fill="#FAFAFA"/>
<path d="M83.9728 51.7943L84.1017 51.8752L84.144 50.8824C84.144 50.8824 84.0863 50.8458 84.0151 50.8015C83.9439 50.7571 83.8765 50.9422 83.865 51.2159C83.8534 51.4897 83.9016 51.7499 83.9728 51.7943Z" fill="#69C0FF"/>
<path d="M36.733 17.5594C35.4163 17.5594 34.6297 18.6254 34.6297 20.4124V177.114C34.6297 179.304 36.226 182.071 38.1153 183.158L101.629 219.825C102.13 220.116 102.618 220.27 103.04 220.27C104.002 220.27 104.579 219.468 104.579 218.125V60.2602C104.579 58.5117 103.567 56.3469 102.121 54.9994L101.999 54.8876C101.924 54.8202 101.851 54.7527 101.793 54.7007C101.56 54.5156 101.324 54.3556 101.093 54.2226L83.2275 43.9074C83.2275 43.9074 82.707 43.6047 82.0631 43.2365C81.9262 43.1575 81.8395 43.1479 81.8086 43.1479C81.7026 43.1479 81.7007 43.4158 81.7007 43.4447C81.7007 44.2351 81.211 44.7864 80.5073 44.7864C80.2297 44.7864 79.9425 44.7016 79.6533 44.532L58.8342 32.5146C57.9878 32.023 57.3227 30.9165 57.3227 29.9931C57.3227 29.4765 56.9564 28.7979 56.5034 28.4779C56.4783 28.4606 56.4532 28.4471 56.4263 28.4317L38.9501 18.3459L38.5799 18.13C37.9302 17.756 37.2921 17.5574 36.733 17.5574M36.735 17.0254C37.3712 17.0254 38.0903 17.2317 38.8479 17.6693L39.22 17.8871L56.6942 27.971C56.7347 27.9941 56.7752 28.0172 56.8138 28.0461C57.3998 28.4587 57.8587 29.303 57.8587 29.997C57.8587 30.7372 58.4216 31.6606 59.1041 32.0558L79.9232 44.0732C80.1352 44.1965 80.3338 44.2544 80.5092 44.2544C80.9006 44.2544 81.1686 43.9594 81.1686 43.4467C81.1686 42.9339 81.4308 42.6158 81.8106 42.6158C81.9667 42.6158 82.1441 42.6679 82.333 42.7758C82.975 43.1421 83.4975 43.4467 83.4975 43.4467L101.361 53.7599C101.619 53.9084 101.878 54.0876 102.125 54.2823C102.244 54.3864 102.36 54.4944 102.479 54.6043C104.012 56.0327 105.113 58.3209 105.113 60.2602V218.121C105.113 219.819 104.268 220.8 103.04 220.8C102.535 220.8 101.965 220.634 101.359 220.282L37.8473 183.615C35.7826 182.427 34.0957 179.501 34.0957 177.111V20.4105C34.0957 18.2668 35.1715 17.0235 36.733 17.0254H36.735Z" fill="#69C0FF"/>
<path d="M42.1082 58.0063L97.1008 89.7538C97.5616 90.0198 97.9356 89.7384 97.9356 89.1234V88.9576C97.9356 88.3427 97.5616 87.6294 97.1008 87.3634L42.1082 55.6159C41.6474 55.3499 41.2734 55.6313 41.2734 56.2462V56.412C41.2734 57.027 41.6474 57.7402 42.1082 58.0063Z" fill="#E0E0E0"/>
<path d="M42.1082 75.4008L97.1008 107.148C97.5616 107.414 97.9356 107.133 97.9356 106.518V106.352C97.9356 105.737 97.5616 105.024 97.1008 104.758L42.1082 73.0104C41.6474 72.7444 41.2734 73.0258 41.2734 73.6408V73.8066C41.2734 74.4215 41.6474 75.1348 42.1082 75.4008Z" fill="#E0E0E0"/>
<path d="M42.1082 82.9984L97.1008 114.746C97.5616 115.012 97.9356 114.731 97.9356 114.116V113.95C97.9356 113.335 97.5616 112.622 97.1008 112.356L42.1082 80.6081C41.6474 80.342 41.2734 80.6235 41.2734 81.2384V81.4042C41.2734 82.0192 41.6474 82.7324 42.1082 82.9984Z" fill="#E0E0E0"/>
<path d="M42.1082 152.463L97.1008 184.211C97.5616 184.477 97.9356 184.195 97.9356 183.58V183.415C97.9356 182.8 97.5616 182.086 97.1008 181.82L42.1082 150.073C41.6474 149.807 41.2734 150.088 41.2734 150.703V150.869C41.2734 151.484 41.6474 152.197 42.1082 152.463Z" fill="#E0E0E0"/>
<path d="M42.1082 160.061L97.1008 191.808C97.5616 192.075 97.9356 191.793 97.9356 191.178V191.012C97.9356 190.397 97.5616 189.684 97.1008 189.418L42.1082 157.671C41.6474 157.405 41.2734 157.686 41.2734 158.301V158.467C41.2734 159.082 41.6474 159.795 42.1082 160.061Z" fill="#E0E0E0"/>
<path d="M42.1082 90.598L97.1008 122.346C97.5616 122.612 97.9356 122.33 97.9356 121.715V121.549C97.9356 120.935 97.5616 120.221 97.1008 119.955L42.1082 88.2077C41.6474 87.9417 41.2734 88.2231 41.2734 88.838V89.0038C41.2734 89.6188 41.6474 90.332 42.1082 90.598Z" fill="#E0E0E0"/>
<path d="M47.4754 67.8871L91.7336 93.437C92.1943 93.7031 92.5683 93.4216 92.5683 92.8067V92.6409C92.5683 92.026 92.1943 91.3127 91.7336 91.0467L47.4754 65.4967C47.0146 65.2307 46.6406 65.5122 46.6406 66.1271V66.2929C46.6406 66.9078 47.0146 67.6211 47.4754 67.8871Z" fill="#E0E0E0"/>
<path d="M42.1082 108.366L97.1008 140.113C97.5616 140.379 97.9356 140.098 97.9356 139.483V139.317C97.9356 138.702 97.5616 137.989 97.1008 137.723L42.1082 105.975C41.6474 105.709 41.2734 105.991 41.2734 106.606V106.771C41.2734 107.386 41.6474 108.1 42.1082 108.366Z" fill="#E0E0E0"/>
<path d="M42.1082 116.131L97.1008 147.879C97.5616 148.145 97.9356 147.863 97.9356 147.248V147.083C97.9356 146.468 97.5616 145.754 97.1008 145.488L42.1082 113.741C41.6474 113.475 41.2734 113.756 41.2734 114.371V114.537C41.2734 115.152 41.6474 115.865 42.1082 116.131Z" fill="#E0E0E0"/>
<path d="M42.1082 100.659L93.4764 130.313C93.9371 130.579 94.3112 130.297 94.3112 129.682V129.516C94.3112 128.902 93.9371 128.188 93.4764 127.922L42.1082 98.2682C41.6474 98.0022 41.2734 98.2837 41.2734 98.8986V99.0644C41.2734 99.6793 41.6474 100.393 42.1082 100.659Z" fill="#E0E0E0"/>
<path d="M97.1627 132.431C97.5888 132.677 97.9358 132.415 97.9358 131.847V131.528C97.9358 130.96 97.5907 130.299 97.1627 130.054C96.7367 129.807 96.3896 130.069 96.3896 130.638V130.956C96.3896 131.525 96.7347 132.186 97.1627 132.431Z" fill="#69C0FF"/>
<path d="M42.1082 134.075L97.1008 165.822C97.5616 166.088 97.9356 165.807 97.9356 165.192V165.026C97.9356 164.411 97.5616 163.698 97.1008 163.432L42.1082 131.684C41.6474 131.418 41.2734 131.7 41.2734 132.315V132.48C41.2734 133.095 41.6474 133.809 42.1082 134.075Z" fill="#E0E0E0"/>
<path d="M42.1082 141.842L97.1008 173.59C97.5616 173.856 97.9356 173.574 97.9356 172.959V172.794C97.9356 172.179 97.5616 171.465 97.1008 171.199L42.1082 139.452C41.6474 139.186 41.2734 139.467 41.2734 140.082V140.248C41.2734 140.863 41.6474 141.576 42.1082 141.842Z" fill="#E0E0E0"/>
<path d="M42.1082 126.37L93.4764 156.024C93.9371 156.29 94.3112 156.008 94.3112 155.393V155.227C94.3112 154.612 93.9371 153.899 93.4764 153.633L42.1082 123.979C41.6474 123.713 41.2734 123.995 41.2734 124.61V124.775C41.2734 125.39 41.6474 126.104 42.1082 126.37Z" fill="#E0E0E0"/>
<path d="M97.1627 158.14C97.5888 158.386 97.9358 158.124 97.9358 157.556V157.237C97.9358 156.669 97.5907 156.008 97.1627 155.763C96.7367 155.516 96.3896 155.778 96.3896 156.347V156.665C96.3896 157.234 96.7347 157.895 97.1627 158.14Z" fill="#69C0FF"/>
<path d="M97.8296 109.249C98.4503 108.898 99.0615 108.489 99.6456 108.027C99.447 107.537 99.2774 107.074 99.1328 106.633C97.9857 108.52 96.3316 110.055 94.583 111.124C95.4602 110.615 97.3129 109.542 97.8296 109.251V109.249Z" fill="#69C0FF"/>
<path opacity="0.1" d="M97.8296 109.249C98.4503 108.898 99.0615 108.489 99.6456 108.027C99.447 107.537 99.2774 107.074 99.1328 106.633C97.9857 108.52 96.3316 110.055 94.583 111.124C95.4602 110.615 97.3129 109.542 97.8296 109.251V109.249Z" fill="#007AFF"/>
<path d="M75.1423 113.815C75.0517 133.254 74.8955 159.467 96.96 180.641L97.4362 181.1L98.0878 181.225C99.4778 181.499 100.835 181.634 102.115 181.634C105.703 181.634 108.849 180.577 111.494 178.482C109.736 179.174 107.826 179.525 105.767 179.525C104.485 179.525 103.131 179.39 101.739 179.116L101.091 178.991L100.615 178.532C78.545 157.358 78.7031 131.145 78.7975 111.706C78.8014 110.663 78.8072 109.664 78.8072 108.708C78.8033 108.708 78.7975 108.704 78.7937 108.699L75.1558 105.83V110.464C75.1558 111.525 75.1519 112.645 75.1423 113.813V113.815Z" fill="#69C0FF"/>
<path opacity="0.2" d="M75.1423 113.815C75.0517 133.254 74.8955 159.467 96.96 180.641L97.4362 181.1L98.0878 181.225C99.4778 181.499 100.835 181.634 102.115 181.634C105.703 181.634 108.849 180.577 111.494 178.482C109.736 179.174 107.826 179.525 105.767 179.525C104.485 179.525 103.131 179.39 101.739 179.116L101.091 178.991L100.615 178.532C78.545 157.358 78.7031 131.145 78.7975 111.706C78.8014 110.663 78.8072 109.664 78.8072 108.708C78.8033 108.708 78.7975 108.704 78.7937 108.699L75.1558 105.83V110.464C75.1558 111.525 75.1519 112.645 75.1423 113.813V113.815Z" fill="#007AFF"/>
<path opacity="0.1" d="M97.4382 181.1L96.962 180.641C74.8956 159.467 75.0536 133.254 75.1443 113.815C75.1539 112.646 75.1577 111.526 75.1577 110.466V105.832L77.0625 107.334L78.7937 108.699L78.8072 108.741C78.8072 109.687 78.8034 110.674 78.7976 111.706C78.7031 131.145 78.545 157.358 100.615 178.532L101.091 178.991L97.4382 181.1Z" fill="#007AFF"/>
<path d="M89.296 110.592C90.5916 110.592 92.3749 110.072 94.4473 108.264C93.894 108.422 93.3908 108.48 92.9455 108.48C90.019 108.48 86.8708 107.217 83.8363 104.825L76.5567 99.0879L72.9053 101.197L80.1849 106.934C83.2194 109.326 86.3676 110.592 89.2941 110.592H89.296Z" fill="#69C0FF"/>
<path opacity="0.6" d="M89.296 110.592C90.5916 110.592 92.3749 110.072 94.4473 108.264C93.894 108.422 93.3908 108.48 92.9455 108.48C90.019 108.48 86.8708 107.217 83.8363 104.825L76.5567 99.0879L72.9053 101.197L80.1849 106.934C83.2194 109.326 86.3676 110.592 89.2941 110.592H89.296Z" fill="white"/>
<path d="M77.4043 110.464L81.0557 108.355C87.1883 113.188 93.1281 113.738 97.3906 112.234C97.8128 111.862 98.1906 111.463 98.5203 111.043L102.172 108.934C105.601 117.252 114.238 129.42 123.288 132.735C123.288 147.706 124.344 168.635 112.287 175.613C111.678 175.966 109.239 177.368 108.628 177.72C105.954 179.268 102.638 179.82 98.5184 179.018C75.8254 157.24 77.4024 128.753 77.4024 110.461L77.4043 110.464Z" fill="#4EC4FE"/>
<path d="M101.568 135.118L98.5205 111.046L102.172 108.938C105.6 117.256 114.238 129.423 123.288 132.739L119.637 134.848L101.568 135.118Z" fill="#30BAFF"/>
<path d="M102.118 178.49C105.549 178.49 108.352 177.349 110.687 175.003C118.913 166.739 118.813 152.098 118.747 138.224C118.744 137.268 118.738 136.346 118.738 135.463C109.565 131.741 101.643 120.113 98.2483 112.672C96.0371 114.767 92.7963 115.984 89.2953 115.984C85.6458 115.984 81.8749 114.694 78.3006 112.24C78.3006 112.759 78.2968 113.289 78.2929 113.829C78.2023 132.707 78.0539 157.939 98.952 178.187C100.053 178.388 101.119 178.49 102.12 178.49H102.118Z" fill="#FAFAFA"/>
<path d="M79.1915 113.881C79.1028 132.562 78.9717 157.376 99.3802 177.349C100.333 177.509 101.252 177.59 102.12 177.59C105.299 177.59 107.894 176.535 110.051 174.369C118.013 166.369 117.917 151.949 117.851 138.218C117.847 137.476 117.843 136.755 117.841 136.057C109.099 132.19 101.563 121.538 97.9381 114.114C95.6305 115.878 92.5632 116.882 89.2955 116.882C86.0277 116.882 82.4978 115.853 79.1934 113.879M77.4043 110.465C81.6187 113.786 85.7424 115.086 89.2935 115.086C93.3691 115.086 96.6889 113.374 98.5203 111.045C101.948 119.363 110.587 131.531 119.636 134.847C119.636 152.109 121.038 179.388 102.118 179.388C100.992 179.388 99.7966 179.269 98.5203 179.02C75.8273 157.243 77.4043 128.755 77.4043 110.463V110.465Z" fill="white"/>
<path d="M109.207 165.637L85.7773 152.112L86.1591 148.737C86.402 146.601 87.2541 145.111 88.4783 144.405C89.0277 144.089 91.185 142.842 91.7364 142.524C92.9548 141.822 94.5395 141.897 96.2553 142.888L105.239 148.076C108.68 150.061 111.595 155.12 112.079 159.941L112.461 163.758L109.203 165.639L109.207 165.637Z" fill="#69C0FF"/>
<path opacity="0.3" d="M109.207 165.637L85.7773 152.112L86.1591 148.737C86.402 146.601 87.2541 145.111 88.4783 144.405C89.0277 144.089 91.185 142.842 91.7364 142.524C92.9548 141.822 94.5395 141.897 96.2553 142.888L105.239 148.076C108.68 150.061 111.595 155.12 112.079 159.941L112.461 163.758L109.203 165.639L109.207 165.637Z" fill="#007AFF"/>
<path d="M108.825 161.822C108.341 157.002 105.426 151.944 101.985 149.956L93.0011 144.769C91.2853 143.778 89.7006 143.703 88.4822 144.405C87.258 145.11 86.4039 146.6 86.163 148.736L85.7812 152.112L109.209 165.637L108.827 161.82L108.825 161.822Z" fill="#69C0FF"/>
<path d="M92.4228 130.051C91.2699 130.716 90.5547 132.144 90.5547 134.178C90.5547 138.244 93.4099 143.186 96.9302 145.22C98.6903 146.236 100.285 146.332 101.438 145.667C102.137 145.263 103.938 144.223 104.638 143.819C105.791 143.154 106.506 141.723 106.506 139.691C106.506 135.626 103.651 130.683 100.13 128.649C98.3703 127.634 96.7759 127.537 95.6231 128.204C94.9232 128.609 93.1226 129.648 92.4228 130.053V130.051Z" fill="#69C0FF"/>
<path opacity="0.3" d="M92.4228 130.051C91.2699 130.716 90.5547 132.144 90.5547 134.178C90.5547 138.244 93.4099 143.186 96.9302 145.22C98.6903 146.236 100.285 146.332 101.438 145.667C102.137 145.263 103.938 144.223 104.638 143.819C105.791 143.154 106.506 141.723 106.506 139.691C106.506 135.626 103.651 130.683 100.13 128.649C98.3703 127.634 96.7759 127.537 95.6231 128.204C94.9232 128.609 93.1226 129.648 92.4228 130.053V130.051Z" fill="#007AFF"/>
<path d="M96.9301 145.219C98.6903 146.235 100.285 146.332 101.438 145.667C102.59 145 103.306 143.573 103.304 141.539C103.304 137.474 100.449 132.531 96.9282 130.497C95.1681 129.482 93.5737 129.385 92.4208 130.05C91.268 130.717 90.5527 132.144 90.5527 134.177C90.5527 138.243 93.4079 143.186 96.9282 145.219H96.9301Z" fill="#69C0FF"/>
<path d="M103.395 99.1875C105.613 109.285 116.96 125.63 124.835 128.516L127.785 129.599L124.13 131.708L121.184 130.625C113.307 127.739 101.955 111.394 99.7383 101.296L103.394 99.1875H103.395Z" fill="#69C0FF"/>
<path opacity="0.6" d="M103.395 99.1875C105.613 109.285 116.96 125.63 124.835 128.516L127.785 129.599L124.13 131.708L121.184 130.625C113.307 127.739 101.955 111.394 99.7383 101.296L103.394 99.1875H103.395Z" fill="white"/>
<path d="M114.514 178.808C124.319 168.954 124.217 152.967 124.143 138.199C124.14 137.025 124.13 135.907 124.13 134.845V131.707L127.785 129.598V132.736C127.785 133.796 127.789 134.916 127.795 136.09C127.866 150.858 127.97 166.845 118.165 176.699C117.051 177.823 115.84 178.758 114.546 179.51C114.003 179.824 112.052 180.954 111.161 181.465C112.356 180.736 113.477 179.855 114.516 178.808H114.514Z" fill="#69C0FF"/>
<path opacity="0.1" d="M114.514 178.808C124.319 168.954 124.217 152.967 124.143 138.199C124.14 137.025 124.13 135.907 124.13 134.845V131.707L127.785 129.598V132.736C127.785 133.796 127.789 134.916 127.795 136.09C127.866 150.858 127.97 166.845 118.165 176.699C117.051 177.823 115.84 178.758 114.546 179.51C114.003 179.824 112.052 180.954 111.161 181.465C112.356 180.736 113.477 179.855 114.516 178.808H114.514Z" fill="white"/>
<path d="M72.8967 113.805C72.9025 112.64 72.9083 111.526 72.9083 110.466V101.197L80.186 106.934C83.2205 109.326 86.3706 110.589 89.2952 110.589C91.6048 110.589 95.4798 108.935 99.7423 101.292C101.959 111.393 113.309 127.738 121.184 130.624L124.132 131.705V134.846C124.132 135.904 124.138 137.026 124.143 138.198C124.213 152.966 124.321 168.954 114.512 178.809C111.159 182.177 106.989 183.885 102.117 183.885C100.693 183.885 99.191 183.732 97.6583 183.434L96.3589 183.181L95.4046 182.265C72.6422 160.422 72.8003 133.608 72.8948 113.805H72.8967ZM96.9623 180.644L97.4385 181.103L98.0882 181.23C99.4801 181.502 100.835 181.639 102.117 181.639C106.37 181.639 110.002 180.155 112.919 177.224C122.067 168.033 121.965 152.607 121.896 138.209C121.89 137.033 121.884 135.91 121.884 134.847V133.276L120.409 132.737C111.865 129.606 101.626 114.209 99.1312 106.631C96.8043 110.466 92.3971 112.839 89.2952 112.839C85.8616 112.839 82.2315 111.406 78.796 108.7L75.1562 105.831V110.466C75.1562 111.528 75.1504 112.646 75.1446 113.814C75.0521 133.255 74.8959 159.466 96.9643 180.642L96.9623 180.644Z" fill="#69C0FF"/>
<path opacity="0.3" d="M72.8967 113.805C72.9025 112.64 72.9083 111.526 72.9083 110.466V101.197L80.186 106.934C83.2205 109.326 86.3706 110.589 89.2952 110.589C91.6048 110.589 95.4798 108.935 99.7423 101.292C101.959 111.393 113.309 127.738 121.184 130.624L124.132 131.705V134.846C124.132 135.904 124.138 137.026 124.143 138.198C124.213 152.966 124.321 168.954 114.512 178.809C111.159 182.177 106.989 183.885 102.117 183.885C100.693 183.885 99.191 183.732 97.6583 183.434L96.3589 183.181L95.4046 182.265C72.6422 160.422 72.8003 133.608 72.8948 113.805H72.8967ZM96.9623 180.644L97.4385 181.103L98.0882 181.23C99.4801 181.502 100.835 181.639 102.117 181.639C106.37 181.639 110.002 180.155 112.919 177.224C122.067 168.033 121.965 152.607 121.896 138.209C121.89 137.033 121.884 135.91 121.884 134.847V133.276L120.409 132.737C111.865 129.606 101.626 114.209 99.1312 106.631C96.8043 110.466 92.3971 112.839 89.2952 112.839C85.8616 112.839 82.2315 111.406 78.796 108.7L75.1562 105.831V110.466C75.1562 111.528 75.1504 112.646 75.1446 113.814C75.0521 133.255 74.8959 159.466 96.9643 180.642L96.9623 180.644Z" fill="white"/>
<path d="M17.859 47.1133L11.8691 50.5812L14.2481 55.9306C14.3002 56.0463 14.3812 56.1311 14.4756 56.1851C14.759 56.347 17.4407 57.8892 17.5332 57.9432C17.8186 58.107 18.2273 57.9914 18.3372 57.6232L20.9205 48.8733L17.859 47.1113V47.1133Z" fill="#69C0FF"/>
<path d="M22.2545 20.6772L3.7026 31.3856C3.43269 31.5418 3.21484 31.9196 3.21484 32.23L3.23219 55.2025C3.23219 55.5129 3.45197 55.8888 3.72187 56.043L6.46909 57.5929C6.74092 57.7452 7.17855 57.7433 7.44845 57.5871L26.0004 46.8787C26.2703 46.7225 26.4881 46.3447 26.4881 46.0343L26.4708 23.0617C26.4708 22.7514 26.251 22.3736 25.9811 22.2213L23.2339 20.6714C22.9621 20.5191 22.5244 20.521 22.2545 20.6772Z" fill="#69C0FF"/>
<path opacity="0.15" d="M26.4631 22.9728C26.4245 22.728 26.224 22.6393 25.9811 22.7781L7.43112 33.4885C7.29617 33.5675 7.17471 33.7005 7.08603 33.8528L3.36523 31.7304C3.45392 31.5839 3.56959 31.4586 3.70068 31.3834L22.2526 20.673C22.5206 20.5169 22.9582 20.5149 23.23 20.6692L25.9773 22.219C26.2221 22.3578 26.4284 22.6817 26.4612 22.9708L26.4631 22.9728Z" fill="#007AFF"/>
<path d="M17.3095 57.6906L15.2583 53.0776L7.44846 57.5865C7.17856 57.7427 6.96071 57.6154 6.96071 57.3051L6.94336 34.3325C6.94336 34.0221 7.16121 33.6424 7.43111 33.4881L25.983 22.7797C26.2529 22.6235 26.4708 22.7508 26.4708 23.0611L26.4881 46.0337C26.4881 46.3441 26.2703 46.7238 26.0004 46.878L20.5888 50.0029L18.339 57.6251C18.1944 58.1147 17.5197 58.159 17.3115 57.6925L17.3095 57.6906Z" fill="#69C0FF"/>
<path opacity="0.35" d="M17.3095 57.6906L15.2583 53.0776L7.44846 57.5865C7.17856 57.7427 6.96071 57.6154 6.96071 57.3051L6.94336 34.3325C6.94336 34.0221 7.16121 33.6424 7.43111 33.4881L25.983 22.7797C26.2529 22.6235 26.4708 22.7508 26.4708 23.0611L26.4881 46.0337C26.4881 46.3441 26.2703 46.7238 26.0004 46.878L20.5888 50.0029L18.339 57.6251C18.1944 58.1147 17.5197 58.159 17.3115 57.6925L17.3095 57.6906Z" fill="white"/>
<path d="M20.2303 35.6128L19.5806 35.9887V33.1472C19.5806 31.0422 18.2986 30.0706 16.7177 30.9843C15.133 31.8961 13.851 34.3501 13.851 36.4571V39.2966L13.1993 39.6725C12.6248 40.0002 12.1641 40.887 12.1641 41.6446V49.4692C12.1641 50.115 12.4976 50.4735 12.9641 50.3501C15.4337 49.6851 17.9959 48.2085 20.4674 46.0224C20.6988 45.8123 20.9031 45.5232 21.0419 45.2051C21.1827 44.8889 21.2675 44.5342 21.2675 44.2181V36.3916C21.2675 35.634 20.8067 35.2793 20.2303 35.6128ZM15.027 35.7805C15.027 34.539 15.7846 33.0894 16.7177 32.5516C17.6469 32.0137 18.4046 32.5843 18.4046 33.8296V36.6653L15.027 38.6161V35.7805ZM19.7888 41.3342L17.1939 45.7236C17.1071 45.874 16.9703 45.9588 16.8257 45.9762C16.7042 45.9897 16.577 45.955 16.4671 45.8663L14.6684 44.4244C14.4235 44.2258 14.3522 43.8383 14.5122 43.5569C14.6703 43.2754 15 43.208 15.2448 43.4046L16.6059 44.4976L18.9097 40.5998C19.0736 40.3222 19.4032 40.2605 19.6461 40.4648C19.8891 40.6672 19.9527 41.0566 19.7888 41.3342Z" fill="#FAFAFA"/>
<path d="M-0.000976562 114.664C-0.000976562 113.758 0.598592 112.85 1.7958 112.16L5.32959 110.12C7.72594 108.736 11.6106 108.736 14.0069 110.12L46.0308 128.609C47.23 129.301 47.8296 130.209 47.8276 131.117V173.411C47.8315 174.319 47.2319 175.229 46.0308 175.923L42.499 177.962C40.1026 179.346 36.218 179.346 33.8216 177.962L1.7958 159.472C0.598592 158.779 -0.000976562 157.873 -0.000976562 156.966V114.662V114.664Z" fill="#69C0FF"/>
<path opacity="0.3" d="M42.4995 135.657L46.0313 133.617C48.4277 132.233 48.4277 129.991 46.0313 128.607L14.0074 110.118C11.6111 108.734 7.72642 108.734 5.33007 110.118L1.79628 112.158C-0.600063 113.542 -0.600063 115.784 1.79628 117.168L33.8221 135.657C36.2185 137.041 40.1031 137.041 42.4995 135.657Z" fill="white"/>
<path opacity="0.2" d="M38.1562 136.692V178.996C39.7294 178.996 41.3025 178.655 42.4959 177.964L46.0335 175.921C47.2365 175.229 47.838 174.317 47.8265 173.405V131.113C47.8265 132.025 47.2346 132.927 46.0335 133.617L42.4959 135.661C41.3045 136.353 39.7294 136.692 38.1562 136.692Z" fill="#007AFF"/>
<path d="M14.8514 157.618L22.4973 162.032L21.3117 148.201C22.2255 147.717 22.8096 146.528 22.8096 144.82C22.8096 141.774 20.9569 138.237 18.6724 136.918C16.3879 135.6 14.5371 136.999 14.5371 140.045C14.5371 141.753 15.1193 143.617 16.0351 145.155L14.8494 157.618H14.8514Z" fill="#30BAFF"/>
<path d="M14.8516 157.617L21.7765 153.619L22.4975 162.032L14.8516 157.617Z" fill="#4EC4FE"/>
<path d="M18.6743 136.916C20.1684 137.78 21.4755 139.594 22.2004 141.597L16.0351 145.155C15.1213 143.613 14.5371 141.751 14.5371 140.043C14.5371 136.997 16.3898 135.598 18.6724 136.916H18.6743Z" fill="#4EC4FE"/>
<path d="M8.65332 116.665V98.6889C8.65332 93.4513 10.6332 89.3028 14.0861 87.3115C17.3808 85.4089 21.4544 85.6672 25.5608 88.0363C33.1007 92.3891 39.0058 103.011 39.0058 112.216V129.22C39.0058 129.731 38.6645 130.242 37.9898 130.631C36.6383 131.41 34.4502 131.41 33.0987 130.631C32.424 130.242 32.0828 129.731 32.0828 129.22V112.216C32.0828 105.482 27.5098 97.1544 22.0983 94.0296C20.2533 92.9636 18.5934 92.6995 17.5466 93.3048C16.3128 94.018 15.5763 96.0306 15.5763 98.6889V116.665C15.5763 116.665 15.5763 116.665 15.5763 116.667V116.676C15.5705 117.183 15.2312 117.688 14.5623 118.076C13.2108 118.855 11.0227 118.857 9.67124 118.076C9.00034 117.688 8.66296 117.183 8.65718 116.676V116.671C8.65718 116.671 8.65718 116.667 8.65718 116.665H8.65332Z" fill="#F0F0F0"/>
<path d="M18.8518 86.5867C17.2324 86.5867 15.719 86.9857 14.3541 87.7761C11.0728 89.671 9.19122 93.6479 9.19122 98.6889V116.671C9.19508 116.996 9.46691 117.34 9.93731 117.611C10.5022 117.937 11.2945 118.124 12.1139 118.124C12.9332 118.124 13.7256 117.937 14.2904 117.611C14.7608 117.34 15.0327 116.996 15.0365 116.671V116.565V98.6889C15.0365 95.7935 15.852 93.6614 17.2767 92.8402C17.7259 92.5819 18.2599 92.4508 18.8634 92.4508C19.8909 92.4508 21.1016 92.8363 22.3663 93.5669C27.9244 96.7766 32.6207 105.316 32.6207 112.218V129.222C32.6207 129.55 32.8925 129.895 33.3687 130.168C33.9335 130.494 34.7259 130.681 35.5452 130.681C36.3646 130.681 37.1569 130.494 37.7218 130.168C38.1806 129.904 38.4505 129.573 38.4679 129.257V112.218C38.4679 103.186 32.6804 92.7689 25.2909 88.5028C23.0912 87.2325 20.9243 86.5886 18.8518 86.5886M18.8518 86.0508C20.9917 86.0508 23.2705 86.7158 25.5589 88.0363C33.0988 92.3891 39.0039 103.011 39.0039 112.216V129.22C39.0039 129.731 38.6626 130.242 37.9879 130.631C37.3131 131.021 36.4282 131.215 35.5414 131.215C34.6546 131.215 33.7716 131.021 33.0968 130.631C32.4221 130.242 32.0809 129.731 32.0809 129.22V112.216C32.0809 105.482 27.5079 97.1544 22.0964 94.0296C20.9011 93.3395 19.7849 92.9867 18.8614 92.9867C18.3583 92.9867 17.9129 93.0908 17.5428 93.3048C16.3089 94.018 15.5725 96.0306 15.5725 98.6889V116.665C15.5725 116.665 15.5725 116.665 15.5725 116.667V116.676C15.5667 117.183 15.2274 117.688 14.5584 118.076C13.8837 118.465 12.9988 118.66 12.1139 118.66C11.229 118.66 10.3441 118.465 9.66933 118.076C8.99843 117.688 8.66106 117.183 8.65527 116.676V116.671C8.65527 116.671 8.65527 116.667 8.65527 116.665V98.6889C8.65527 93.4513 10.6352 89.3028 14.088 87.3115C15.5455 86.4691 17.1572 86.0508 18.8556 86.0508H18.8518Z" fill="#E0E0E0"/>
<path d="M22.3936 86.6289C22.7599 86.8024 23.1261 86.9952 23.4924 87.2092C31.0304 91.5619 36.9394 102.191 36.9394 111.396V128.393C36.9394 128.911 36.6039 129.42 35.9214 129.806C35.0365 130.315 33.8046 130.498 32.6865 130.334C32.7983 130.446 32.9409 130.538 33.0932 130.629C34.4466 131.412 36.6328 131.412 37.9862 130.629C38.6667 130.242 39.0041 129.735 39.0041 129.216V112.21C39.0041 103.005 33.0933 92.3851 25.5572 88.0323C24.4988 87.4212 23.4404 86.9451 22.3936 86.6289Z" fill="#E0E0E0"/>
<path d="M107.914 104.398V101.828H108.452V104.398H107.914ZM108.186 103.59V103.168H108.816C108.971 103.168 109.09 103.127 109.177 103.05C109.262 102.971 109.306 102.859 109.306 102.715V102.711C109.306 102.565 109.264 102.451 109.177 102.374C109.09 102.297 108.971 102.258 108.816 102.258H108.186V101.83H108.949C109.131 101.83 109.287 101.867 109.424 101.94C109.56 102.013 109.665 102.115 109.74 102.246C109.815 102.378 109.854 102.532 109.854 102.709V102.713C109.854 102.888 109.815 103.043 109.74 103.174C109.665 103.305 109.559 103.407 109.424 103.48C109.289 103.553 109.131 103.59 108.949 103.59H108.186Z" fill="#69C0FF"/>
<path d="M110.168 104.398V101.828H111.23C111.423 101.828 111.587 101.861 111.724 101.926C111.861 101.992 111.967 102.086 112.038 102.208C112.111 102.329 112.148 102.478 112.148 102.649V102.653C112.148 102.823 112.105 102.973 112.023 103.104C111.94 103.235 111.826 103.33 111.683 103.386L112.225 104.398H111.614L111.136 103.469H110.704V104.398H110.166H110.168ZM110.706 103.058H111.17C111.303 103.058 111.408 103.023 111.485 102.952C111.562 102.881 111.598 102.782 111.598 102.657V102.653C111.598 102.53 111.558 102.432 111.479 102.36C111.4 102.287 111.294 102.252 111.163 102.252H110.706V103.06V103.058Z" fill="#69C0FF"/>
<path d="M112.504 104.398V101.828H113.041V104.398H112.504Z" fill="#69C0FF"/>
<path d="M114.165 104.398L113.307 101.828H113.902L114.49 103.848H114.502L115.088 101.828H115.684L114.824 104.398H114.166H114.165Z" fill="#69C0FF"/>
<path d="M115.458 104.398L116.354 101.828H116.831V102.327H116.667L116.023 104.4H115.458V104.398ZM115.942 103.775L116.073 103.372H117.272L117.403 103.775H115.942ZM117.318 104.398L116.676 102.325V101.826H116.989L117.885 104.396H117.318V104.398Z" fill="#69C0FF"/>
<path d="M119.168 104.441C118.917 104.441 118.701 104.388 118.516 104.282C118.333 104.175 118.19 104.021 118.092 103.825C117.993 103.628 117.941 103.389 117.941 103.111C117.941 102.834 117.992 102.597 118.092 102.398C118.192 102.2 118.333 102.049 118.516 101.941C118.699 101.835 118.917 101.781 119.168 101.781C119.376 101.781 119.561 101.822 119.723 101.903C119.885 101.984 120.016 102.094 120.114 102.236C120.212 102.377 120.27 102.539 120.288 102.72V102.737H119.763L119.756 102.707C119.736 102.612 119.7 102.529 119.648 102.46C119.596 102.39 119.528 102.335 119.447 102.296C119.366 102.257 119.272 102.236 119.166 102.236C119.029 102.236 118.909 102.271 118.807 102.342C118.707 102.414 118.628 102.514 118.574 102.643C118.518 102.772 118.491 102.926 118.491 103.106C118.491 103.289 118.518 103.443 118.574 103.574C118.63 103.705 118.707 103.805 118.809 103.877C118.911 103.948 119.029 103.983 119.166 103.983C119.27 103.983 119.36 103.963 119.441 103.925C119.522 103.886 119.59 103.832 119.644 103.761C119.698 103.69 119.736 103.603 119.759 103.501L119.763 103.483H120.29V103.503C120.27 103.684 120.212 103.846 120.114 103.987C120.016 104.127 119.885 104.239 119.721 104.318C119.559 104.399 119.374 104.438 119.166 104.438L119.168 104.441Z" fill="#69C0FF"/>
<path d="M121.237 104.398V103.438L120.343 101.828H120.923L121.499 102.925H121.511L122.086 101.828H122.668L121.771 103.438V104.398H121.233H121.237Z" fill="#69C0FF"/>
<path d="M123.653 104.398V101.828H124.191V104.398H123.653ZM123.925 103.59V103.168H124.556C124.71 103.168 124.829 103.127 124.916 103.05C125.001 102.971 125.045 102.859 125.045 102.715V102.711C125.045 102.565 125.003 102.451 124.916 102.374C124.829 102.297 124.71 102.258 124.556 102.258H123.925V101.83H124.689C124.87 101.83 125.026 101.867 125.163 101.94C125.3 102.013 125.404 102.115 125.479 102.246C125.554 102.378 125.593 102.532 125.593 102.709V102.713C125.593 102.888 125.554 103.043 125.479 103.174C125.404 103.305 125.298 103.407 125.163 103.48C125.028 103.553 124.87 103.59 124.689 103.59H123.925Z" fill="#69C0FF"/>
<path d="M127.068 104.441C126.813 104.441 126.593 104.388 126.408 104.28C126.223 104.172 126.079 104.019 125.978 103.821C125.878 103.622 125.826 103.385 125.826 103.113V103.109C125.826 102.836 125.876 102.601 125.978 102.402C126.081 102.203 126.223 102.051 126.41 101.943C126.595 101.835 126.815 101.781 127.068 101.781C127.32 101.781 127.542 101.835 127.727 101.943C127.912 102.051 128.055 102.203 128.157 102.402C128.257 102.601 128.309 102.836 128.309 103.108V103.111C128.309 103.385 128.259 103.62 128.157 103.819C128.057 104.017 127.914 104.17 127.729 104.278C127.544 104.386 127.324 104.44 127.07 104.44L127.068 104.441ZM127.068 103.987C127.21 103.987 127.334 103.95 127.436 103.879C127.538 103.807 127.617 103.705 127.673 103.574C127.729 103.443 127.756 103.289 127.756 103.113V103.109C127.756 102.932 127.727 102.778 127.671 102.647C127.615 102.516 127.534 102.415 127.432 102.344C127.328 102.273 127.207 102.238 127.068 102.238C126.929 102.238 126.806 102.273 126.701 102.344C126.597 102.415 126.518 102.516 126.46 102.645C126.403 102.774 126.376 102.93 126.376 103.109V103.113C126.376 103.291 126.405 103.445 126.46 103.576C126.516 103.707 126.597 103.807 126.7 103.879C126.804 103.95 126.925 103.985 127.066 103.985L127.068 103.987Z" fill="#69C0FF"/>
<path d="M128.652 104.398V101.828H129.19V103.954H130.314V104.398H128.652Z" fill="#69C0FF"/>
<path d="M130.632 104.398V101.828H131.169V104.398H130.632Z" fill="#69C0FF"/>
<path d="M132.741 104.441C132.49 104.441 132.274 104.388 132.089 104.282C131.906 104.175 131.763 104.021 131.665 103.825C131.567 103.628 131.515 103.389 131.515 103.111C131.515 102.834 131.565 102.597 131.665 102.398C131.765 102.2 131.906 102.049 132.089 101.941C132.272 101.835 132.49 101.781 132.741 101.781C132.949 101.781 133.134 101.822 133.296 101.903C133.458 101.984 133.589 102.094 133.687 102.236C133.786 102.377 133.844 102.539 133.861 102.72V102.737H133.336L133.329 102.707C133.31 102.612 133.273 102.529 133.221 102.46C133.169 102.39 133.101 102.335 133.02 102.296C132.939 102.257 132.845 102.236 132.739 102.236C132.602 102.236 132.482 102.271 132.38 102.342C132.28 102.414 132.201 102.514 132.147 102.643C132.091 102.772 132.064 102.926 132.064 103.106C132.064 103.289 132.091 103.443 132.147 103.574C132.203 103.705 132.28 103.805 132.382 103.877C132.484 103.948 132.602 103.983 132.739 103.983C132.843 103.983 132.934 103.963 133.015 103.925C133.096 103.886 133.163 103.832 133.217 103.761C133.271 103.69 133.309 103.603 133.333 103.501L133.336 103.483H133.863V103.503C133.844 103.684 133.786 103.846 133.687 103.987C133.589 104.127 133.458 104.239 133.294 104.318C133.132 104.399 132.947 104.438 132.739 104.438L132.741 104.441Z" fill="#69C0FF"/>
<path d="M134.812 104.398V103.438L133.917 101.828H134.497L135.074 102.925H135.085L135.66 101.828H136.242L135.346 103.438V104.398H134.808H134.812Z" fill="#69C0FF"/>
<path d="M45.2656 50.0589V44.1543L46.2373 44.7403V50.6758L45.2656 50.0589ZM45.7534 48.5071V47.5355L46.8928 48.2411C47.1723 48.4145 47.3882 48.455 47.5424 48.3683C47.6967 48.2796 47.7738 48.0676 47.7738 47.7302V47.7225C47.7738 47.3794 47.6967 47.0709 47.5424 46.7953C47.3882 46.5196 47.1723 46.2979 46.8928 46.1283L45.7534 45.4362V44.4512L47.1299 45.2801C47.4557 45.4767 47.741 45.7331 47.9859 46.0512C48.2307 46.3692 48.4216 46.7239 48.5565 47.1153C48.6934 47.5066 48.7609 47.9095 48.7609 48.3239V48.3317C48.7609 48.7423 48.6934 49.0603 48.5565 49.2859C48.4196 49.5095 48.2307 49.6309 47.9859 49.6483C47.741 49.6656 47.4557 49.5731 47.1299 49.3688L45.7534 48.509V48.5071Z" fill="#69C0FF"/>
<path d="M49.3349 52.6411V46.6035L51.2532 47.7582C51.6002 47.9683 51.899 48.2247 52.1458 48.5312C52.3925 48.8377 52.5834 49.177 52.7145 49.551C52.8456 49.923 52.9131 50.3163 52.9131 50.7288V50.7365C52.9131 51.1433 52.8379 51.4575 52.6856 51.6773C52.5352 51.897 52.3308 51.9934 52.0725 51.9664L53.0499 54.9987L51.9472 54.299L51.0854 51.5462L51.0604 51.5308L51.0353 51.5153L50.3047 51.0604V53.2561L49.333 52.6392L49.3349 52.6411ZM50.3066 50.0965L51.1452 50.6151C51.3862 50.7635 51.5732 50.7963 51.712 50.7115C51.8489 50.6267 51.9183 50.4339 51.9183 50.1351V50.1274C51.9183 49.8324 51.847 49.5568 51.7043 49.2965C51.5616 49.0382 51.3708 48.8358 51.1336 48.6912L50.3066 48.19V50.0985V50.0965Z" fill="#69C0FF"/>
<path d="M53.5518 55.319V49.1445L54.5234 49.7306V55.9378L53.5518 55.3209V55.319Z" fill="#69C0FF"/>
<path d="M56.551 57.2234L55.001 50.0176L56.0748 50.6653L57.1371 56.248L57.1563 56.2595L58.2147 51.953L59.2924 52.6026L57.7386 57.979L56.551 57.2253V57.2234Z" fill="#69C0FF"/>
<path d="M58.8896 58.7084L60.5071 53.334L61.367 53.8506V55.0978L61.072 54.9186L59.9114 59.3562L58.8916 58.7084H58.8896ZM59.761 57.7138L59.9982 56.8636L62.1632 58.2092L62.4003 59.3697L59.7591 57.7138H59.761ZM62.248 60.8386L61.0894 54.9282V53.6829L61.6523 54.0222L63.2698 61.4882L62.2461 60.8386H62.248Z" fill="#69C0FF"/>
<path d="M65.5872 63.0723C65.1342 62.785 64.7428 62.3995 64.4112 61.9176C64.0796 61.4376 63.8251 60.8882 63.6439 60.2732C63.4646 59.6583 63.374 59.0029 63.374 58.3031V58.2992C63.374 57.5995 63.4646 57.0559 63.6439 56.6665C63.8232 56.2751 64.0796 56.0458 64.4112 55.9764C64.7428 55.907 65.1342 56.0072 65.5872 56.279C65.9632 56.5045 66.2967 56.8091 66.5916 57.1947C66.8847 57.5802 67.1218 58.0082 67.2992 58.4805C67.4765 58.9527 67.5806 59.4327 67.6115 59.9205L67.6153 59.9686L66.6668 59.3865L66.6533 59.3017C66.6167 59.0356 66.5512 58.7831 66.4567 58.546C66.3622 58.3089 66.2427 58.0949 66.0962 57.906C65.9497 57.7171 65.7819 57.5648 65.5872 57.4472C65.3385 57.2968 65.1226 57.2564 64.9414 57.3238C64.7582 57.3932 64.6175 57.5609 64.5192 57.8289C64.4189 58.0968 64.3688 58.4573 64.3688 58.9123V58.9161C64.3688 59.3749 64.4189 59.8009 64.5192 60.1961C64.6194 60.5913 64.7602 60.9383 64.9433 61.2332C65.1265 61.5282 65.3424 61.7537 65.5891 61.9099C65.7762 62.0275 65.9419 62.0834 66.0885 62.0776C66.235 62.0718 66.3564 62.0082 66.4548 61.8848C66.5531 61.7614 66.6225 61.5821 66.663 61.345L66.6688 61.3026L67.6173 61.8944L67.6134 61.9426C67.5826 62.3918 67.4785 62.7446 67.2992 62.9952C67.1199 63.2458 66.8828 63.3807 66.5897 63.4019C66.2967 63.4212 65.9612 63.3113 65.5853 63.0723H65.5872Z" fill="#69C0FF"/>
<path d="M69.3255 65.3326V62.8343L67.71 57.6719L68.7587 58.3042L69.8017 61.7933L69.8248 61.8068L70.864 59.5707L71.9166 60.2049L70.2991 63.4415V65.9514L69.3274 65.3345L69.3255 65.3326Z" fill="#69C0FF"/>
<path d="M73.6904 68.1014V61.2695L74.6621 61.8556V68.7182L73.6904 68.1014ZM74.1801 66.2585V65.1346L75.3195 65.8401C75.599 66.0136 75.8149 66.0406 75.9692 65.925C76.1234 65.8074 76.2005 65.5548 76.2005 65.1654V65.1558C76.2005 64.7606 76.1234 64.4098 75.9692 64.1071C75.8149 63.8045 75.599 63.5693 75.3195 63.3997L74.1801 62.7076V61.5683L75.5566 62.3972C75.8824 62.5939 76.1677 62.8638 76.4126 63.2069C76.6574 63.5519 76.8483 63.9433 76.9832 64.3809C77.1201 64.8204 77.1876 65.2792 77.1876 65.7573V65.7669C77.1876 66.2411 77.1201 66.6151 76.9832 66.8869C76.8464 67.1587 76.6574 67.3168 76.4126 67.3611C76.1677 67.4054 75.8824 67.3245 75.5566 67.1221L74.1801 66.2623V66.2585Z" fill="#69C0FF"/>
<path d="M79.8554 72.1375C79.3966 71.8464 78.9994 71.4474 78.664 70.9423C78.3285 70.4372 78.0702 69.8589 77.887 69.2035C77.7039 68.55 77.6133 67.8541 77.6133 67.1139V67.1042C77.6133 66.364 77.7058 65.7837 77.889 65.3577C78.0721 64.9317 78.3324 64.6734 78.6678 64.5847C79.0033 64.4941 79.4004 64.5847 79.8573 64.8604C80.3142 65.136 80.7133 65.5235 81.0468 66.0228C81.3823 66.522 81.6406 67.1004 81.8218 67.7577C82.005 68.4151 82.0956 69.1225 82.0956 69.8763V69.8859C82.0956 70.6416 82.005 71.2353 81.8218 71.669C81.6387 72.1028 81.3823 72.3611 81.0488 72.4478C80.7152 72.5327 80.3181 72.4305 79.8573 72.1375H79.8554ZM79.8554 70.8903C80.1118 71.0522 80.3335 71.0927 80.5186 71.0117C80.7037 70.9307 80.8483 70.7418 80.9485 70.4469C81.0488 70.15 81.0989 69.7587 81.0989 69.271V69.2613C81.0989 68.7717 81.0488 68.3148 80.9466 67.8927C80.8444 67.4705 80.6998 67.1061 80.5128 66.7996C80.3258 66.4931 80.106 66.2618 79.8535 66.1076C79.6009 65.9534 79.3792 65.9167 79.1922 65.9958C79.0052 66.0748 78.8606 66.2599 78.7584 66.551C78.6563 66.8421 78.6061 67.2315 78.6061 67.7192V67.7288C78.6061 68.2127 78.6563 68.6657 78.7584 69.084C78.8606 69.5042 79.0052 69.8686 79.1922 70.1809C79.3792 70.4931 79.599 70.7283 79.8554 70.8903Z" fill="#69C0FF"/>
<path d="M82.7188 73.8338V66.707L83.6904 67.2931V73.215L85.7205 74.4911V75.7384L82.7188 73.8338Z" fill="#69C0FF"/>
<path d="M86.2949 76.1038V68.8613L87.2666 69.4474V76.7206L86.2949 76.1038Z" fill="#69C0FF"/>
<path d="M90.1038 78.6482C89.6508 78.361 89.2594 77.96 88.9278 77.4434C88.5962 76.9287 88.3417 76.333 88.1605 75.6564C87.9812 74.9798 87.8906 74.2511 87.8906 73.4646V73.4588C87.8906 72.6742 87.9812 72.0554 88.1605 71.6043C88.3398 71.1513 88.5962 70.8737 88.9278 70.7716C89.2594 70.6675 89.6508 70.7523 90.1038 71.0241C90.4798 71.2496 90.8133 71.5677 91.1082 71.9764C91.4013 72.387 91.6384 72.8496 91.8158 73.3643C91.9931 73.881 92.0972 74.4111 92.1281 74.9547L92.1319 75.0087L91.1834 74.4265L91.1699 74.3321C91.1333 74.0371 91.0678 73.7576 90.9733 73.4993C90.8788 73.239 90.7593 73.0097 90.6128 72.8092C90.4663 72.6087 90.2985 72.4487 90.1038 72.3311C89.8551 72.1807 89.6392 72.1499 89.458 72.2405C89.2748 72.3311 89.1341 72.5316 89.0358 72.84C88.9355 73.1484 88.8854 73.5571 88.8854 74.068V74.0738C88.8854 74.5885 88.9355 75.0646 89.0358 75.5003C89.136 75.9379 89.2768 76.3138 89.4599 76.6299C89.6431 76.948 89.859 77.1832 90.1058 77.3393C90.2928 77.4569 90.4586 77.507 90.6051 77.4897C90.7516 77.4723 90.873 77.3913 90.9714 77.2468C91.0697 77.1022 91.1391 76.8959 91.1796 76.626L91.1854 76.5798L92.1339 77.1716L92.13 77.2256C92.0992 77.7325 91.9951 78.1335 91.8158 78.4285C91.6365 78.7234 91.3994 78.893 91.1063 78.9374C90.8133 78.9817 90.4778 78.8834 90.1019 78.6463L90.1038 78.6482Z" fill="#69C0FF"/>
<path d="M93.8421 80.8943V78.0972L92.2266 72.4336L93.2753 73.0659L94.3183 76.8963L94.3414 76.9097L95.3806 74.3324L96.4332 74.9666L94.8157 78.7044V81.5131L93.844 80.8963L93.8421 80.8943Z" fill="#69C0FF"/>
<path d="M41.036 29.2773L41.198 27.0219L41.1883 27.0161L40.4307 27.0412L40.4596 26.6479L41.223 26.6074L41.6491 26.8734L41.4582 29.5472L41.036 29.2773Z" fill="#FAFAFA"/>
<path d="M42.8309 30.4274L42.9929 28.1507L42.9832 28.145L42.2256 28.1739L42.2545 27.7787L43.0179 27.7324L43.444 28.0004L43.2531 30.6992L42.8309 30.4293V30.4274Z" fill="#FAFAFA"/>
<path d="M44.1785 30.8719C44.1072 30.8257 44.0493 30.764 44.0031 30.6849C43.9587 30.6059 43.9375 30.5326 43.9433 30.4613C43.9491 30.3919 43.9761 30.3495 44.0281 30.3341C44.0802 30.3167 44.1419 30.3322 44.2132 30.3784C44.2826 30.4228 44.3405 30.4845 44.3867 30.5635C44.4311 30.6425 44.4523 30.7158 44.4465 30.7852C44.4407 30.8546 44.4137 30.8989 44.3617 30.9163C44.3096 30.9336 44.2479 30.9182 44.1785 30.8739V30.8719ZM44.2788 29.4608C44.2074 29.4146 44.1496 29.3529 44.1033 29.2758C44.059 29.1967 44.0378 29.1235 44.0436 29.0541C44.0494 28.9847 44.0763 28.9423 44.1284 28.9249C44.1804 28.9076 44.2421 28.923 44.3135 28.9673C44.3829 29.0117 44.4407 29.0734 44.487 29.1505C44.5313 29.2295 44.5525 29.3028 44.5467 29.3722C44.541 29.4416 44.514 29.4859 44.4619 29.5032C44.4099 29.5206 44.3482 29.5071 44.2788 29.4628V29.4608Z" fill="#FAFAFA"/>
<path d="M45.7848 32.3747C45.5997 32.2552 45.4377 32.1164 45.3009 31.9564C45.164 31.7964 45.056 31.6306 44.9789 31.4591C44.9018 31.2875 44.8632 31.1236 44.8594 30.9656V30.9424L45.27 31.2046V31.2181C45.2777 31.3087 45.3047 31.4032 45.3529 31.5015C45.3992 31.5998 45.4628 31.6962 45.5418 31.7868C45.6209 31.8774 45.7115 31.9564 45.8117 32.02C45.9274 32.0952 46.0315 32.1357 46.126 32.1453C46.2185 32.153 46.2937 32.1299 46.3496 32.074C46.4055 32.0181 46.4383 31.9352 46.446 31.8215V31.8176C46.4537 31.7058 46.4364 31.5901 46.3901 31.4725C46.3458 31.355 46.2802 31.2432 46.1973 31.1371C46.1125 31.0311 46.0142 30.9424 45.9004 30.8711C45.8156 30.8171 45.7346 30.7786 45.6594 30.7574C45.5843 30.7362 45.5187 30.7323 45.4589 30.7458C45.4339 30.7516 45.4088 30.7612 45.3838 30.7728C45.3606 30.7844 45.3375 30.7998 45.3182 30.8191L44.9403 30.5781L45.1871 29.0938L46.8374 30.1328L46.8123 30.4933L45.511 29.6701L45.3664 30.4817L45.376 30.4875C45.4204 30.4509 45.4763 30.4316 45.5438 30.4297C45.6093 30.4277 45.6845 30.4393 45.7655 30.4682C45.8464 30.4971 45.9332 30.5395 46.0238 30.5974C46.1992 30.7092 46.3535 30.848 46.4846 31.0118C46.6157 31.1757 46.7159 31.353 46.7853 31.5381C46.8547 31.7232 46.8836 31.9044 46.8701 32.0798V32.0836C46.8567 32.2687 46.8027 32.4056 46.7063 32.4923C46.6099 32.5791 46.4826 32.6118 46.3226 32.5945C46.1645 32.5752 45.9872 32.502 45.7886 32.3747H45.7848Z" fill="#FAFAFA"/>
<path d="M48.1134 33.8761C47.9168 33.7488 47.7471 33.6043 47.6045 33.4443C47.4618 33.2843 47.3519 33.1165 47.2748 32.945C47.1977 32.7734 47.1572 32.6076 47.1553 32.4496V32.4245L47.5698 32.6905V32.7137C47.5736 32.8004 47.5987 32.891 47.6469 32.9874C47.6951 33.0838 47.7587 33.1782 47.8435 33.2688C47.9264 33.3594 48.0267 33.4423 48.1423 33.5175C48.2542 33.5908 48.3544 33.6332 48.4431 33.6505C48.5318 33.6659 48.6012 33.6544 48.6532 33.6158C48.7053 33.5773 48.7342 33.5137 48.74 33.425V33.4211C48.7516 33.265 48.7072 33.1108 48.605 32.9585C48.5048 32.8062 48.3621 32.6712 48.179 32.5537L47.8416 32.3378L47.8647 32.0004L48.1886 32.2067C48.2927 32.2741 48.3872 32.3127 48.4701 32.3262C48.553 32.3397 48.6185 32.3262 48.6667 32.2876C48.7149 32.2491 48.7419 32.1874 48.7477 32.1006V32.0968C48.7535 32.0062 48.74 31.9194 48.7072 31.8327C48.6744 31.7459 48.6205 31.6631 48.5511 31.584C48.4797 31.505 48.391 31.4317 48.2869 31.3662C48.1848 31.3006 48.0922 31.2602 48.0112 31.2428C47.9303 31.2255 47.8628 31.2332 47.8107 31.2659C47.7587 31.2987 47.7259 31.3546 47.7105 31.4337L47.7066 31.451L47.2999 31.1927L47.3037 31.1734C47.3288 31.0288 47.3885 30.9247 47.4772 30.8631C47.5678 30.8014 47.6835 30.7802 47.8262 30.8052C47.9669 30.8284 48.1288 30.8977 48.3081 31.0115C48.4913 31.1271 48.6494 31.2602 48.7824 31.4067C48.9154 31.5532 49.0157 31.7055 49.0831 31.8616C49.1506 32.0178 49.1795 32.1662 49.1699 32.3088V32.3127C49.1622 32.4284 49.1294 32.5151 49.0735 32.571C49.0176 32.6269 48.9424 32.6558 48.8518 32.6578C48.7612 32.6597 48.6571 32.6365 48.5433 32.5884V32.598C48.7438 32.7445 48.9039 32.9161 49.0195 33.1146C49.1352 33.3112 49.1873 33.5079 49.1738 33.7045V33.7084C49.1622 33.8664 49.1101 33.9802 49.0157 34.0476C48.9212 34.1151 48.7978 34.1363 48.6417 34.1074C48.4874 34.0804 48.3101 34.0014 48.1134 33.8741V33.8761Z" fill="#FAFAFA"/>
</g>
<defs>
<clipPath id="clip0_3400_36491">
<rect width="136.247" height="231" fill="white"/>
</clipPath>
</defs>
</svg>
