<svg width="120" height="36" viewBox="0 0 120 36" fill="none" xmlns="http://www.w3.org/2000/svg">
<path d="M119.333 31.848C119.333 33.7665 117.805 35.3205 115.916 35.3205H4.08764C2.19902 35.3205 0.666016 33.7665 0.666016 31.848V4.15598C0.666016 2.2384 2.19902 0.678955 4.08764 0.678955H115.915C117.805 0.678955 119.332 2.2384 119.332 4.15598L119.333 31.848Z" fill="black"/>
<path d="M115.556 0.721125C117.613 0.721125 119.288 2.4165 119.288 4.5V31.5C119.288 33.5835 117.613 35.2789 115.556 35.2789H4.44444C2.38667 35.2789 0.712222 33.5835 0.712222 31.5V4.5C0.712222 2.4165 2.38667 0.721125 4.44444 0.721125H115.556ZM115.556 1.90258e-06H4.44444C2.00111 1.90258e-06 0 2.02613 0 4.5V31.5C0 33.9739 2.00111 36 4.44444 36H115.556C117.999 36 120 33.9739 120 31.5V4.5C120 2.02613 117.999 1.90258e-06 115.556 1.90258e-06Z" fill="#A6A6A6"/>
<path d="M26.781 17.8058C26.7552 14.9051 29.1267 13.4939 29.2352 13.4282C27.8921 11.4455 25.8103 11.1746 25.0787 11.153C23.3303 10.9667 21.6343 12.2123 20.7436 12.2123C19.8352 12.2123 18.4636 11.171 16.9854 11.2016C15.0832 11.2313 13.3036 12.3464 12.3276 14.078C10.3134 17.6087 11.8156 22.7972 13.7454 25.6511C14.7107 27.0488 15.8387 28.6094 17.3152 28.5545C18.7596 28.4942 19.2992 27.6221 21.0423 27.6221C22.7694 27.6221 23.2761 28.5545 24.7818 28.5194C26.3321 28.4942 27.3081 27.1154 28.2396 25.7051C29.3552 24.1031 29.8032 22.5254 29.821 22.4444C29.7845 22.4318 26.8103 21.2825 26.781 17.8058Z" fill="white"/>
<path d="M23.9365 9.27556C24.7134 8.29186 25.245 6.95356 25.0974 5.59546C23.973 5.64586 22.5667 6.38296 21.757 7.34506C21.0405 8.19286 20.4005 9.58246 20.5658 10.8893C21.829 10.9847 23.1258 10.244 23.9365 9.27556Z" fill="white"/>
<path d="M47.6839 28.3532H45.6653L44.5595 24.8351H40.7159L39.6626 28.3532H37.6973L41.5053 16.376H43.8573L47.6839 28.3532ZM44.2262 23.3591L43.2262 20.2316C43.1204 19.9121 42.9222 19.1597 42.6297 17.9753H42.5942C42.4777 18.4847 42.2902 19.2371 42.0324 20.2316L41.0502 23.3591H44.2262Z" fill="white"/>
<path d="M57.4769 23.9288C57.4769 25.3976 57.0849 26.5587 56.3009 27.411C55.5987 28.1697 54.7267 28.5486 53.6858 28.5486C52.5622 28.5486 51.7551 28.1399 51.2636 27.3227H51.228V31.8723H49.3329V22.5599C49.3329 21.6365 49.3089 20.6889 49.2627 19.7169H50.9294L51.0351 21.0858H51.0707C51.7027 20.0544 52.6618 19.5396 53.9489 19.5396C54.9551 19.5396 55.7951 19.9418 56.4671 20.7473C57.1409 21.5537 57.4769 22.6139 57.4769 23.9288ZM55.5463 23.9991C55.5463 23.1585 55.3596 22.4655 54.9845 21.9201C54.5747 21.3513 54.0245 21.0669 53.3347 21.0669C52.8671 21.0669 52.4422 21.2253 52.0627 21.5376C51.6822 21.8526 51.4334 22.2639 51.3169 22.7733C51.2582 23.0109 51.2289 23.2053 51.2289 23.3583V24.7983C51.2289 25.4265 51.4191 25.9566 51.7996 26.3895C52.18 26.8224 52.6743 27.0383 53.2822 27.0383C53.996 27.0383 54.5516 26.7593 54.9489 26.2031C55.3471 25.646 55.5463 24.9117 55.5463 23.9991Z" fill="white"/>
<path d="M67.2876 23.9288C67.2876 25.3976 66.8956 26.5587 66.1107 27.411C65.4093 28.1697 64.5373 28.5486 63.4964 28.5486C62.3729 28.5486 61.5658 28.1399 61.0751 27.3227H61.0396V31.8723H59.1444V22.5599C59.1444 21.6365 59.1204 20.6889 59.0742 19.7169H60.7409L60.8467 21.0858H60.8822C61.5133 20.0544 62.4724 19.5396 63.7604 19.5396C64.7658 19.5396 65.6058 19.9418 66.2796 20.7473C66.9507 21.5537 67.2876 22.6139 67.2876 23.9288ZM65.3569 23.9991C65.3569 23.1585 65.1693 22.4655 64.7942 21.9201C64.3844 21.3513 63.836 21.0669 63.1453 21.0669C62.6769 21.0669 62.2529 21.2253 61.8724 21.5376C61.492 21.8526 61.244 22.2639 61.1276 22.7733C61.0698 23.0109 61.0396 23.2053 61.0396 23.3583V24.7983C61.0396 25.4265 61.2298 25.9566 61.6084 26.3895C61.9889 26.8215 62.4831 27.0383 63.0929 27.0383C63.8067 27.0383 64.3622 26.7593 64.7596 26.2031C65.1578 25.646 65.3569 24.9117 65.3569 23.9991Z" fill="white"/>
<path d="M78.2566 24.9948C78.2566 26.0136 77.9073 26.8425 77.206 27.4824C76.4353 28.1817 75.3624 28.5309 73.9838 28.5309C72.7109 28.5309 71.6904 28.2825 70.918 27.7848L71.3571 26.1855C72.1891 26.6949 73.102 26.9505 74.0966 26.9505C74.8104 26.9505 75.366 26.7867 75.7651 26.4609C76.1624 26.1351 76.3606 25.6977 76.3606 25.1523C76.3606 24.6663 76.1971 24.2568 75.8691 23.9247C75.5429 23.5926 74.998 23.2839 74.2371 22.9986C72.166 22.2165 71.1313 21.0708 71.1313 19.5642C71.1313 18.5796 71.494 17.7723 72.2202 17.1441C72.9437 16.515 73.9091 16.2009 75.1162 16.2009C76.1926 16.2009 77.0869 16.3908 77.8006 16.7697L77.3269 18.3339C76.6602 17.9667 75.9064 17.7831 75.0629 17.7831C74.3962 17.7831 73.8753 17.9496 73.502 18.2808C73.1864 18.5769 73.0282 18.9378 73.0282 19.3653C73.0282 19.8387 73.2086 20.2302 73.5713 20.538C73.8869 20.8224 74.4602 21.1302 75.2922 21.4623C76.31 21.8772 77.0575 22.3623 77.5384 22.9185C78.0175 23.4729 78.2566 24.1668 78.2566 24.9948Z" fill="white"/>
<path d="M84.5228 21.1568H82.4339V25.3499C82.4339 26.4164 82.8019 26.9492 83.5397 26.9492C83.8783 26.9492 84.1592 26.9195 84.3815 26.8601L84.4339 28.3172C84.0606 28.4585 83.569 28.5296 82.9601 28.5296C82.2117 28.5296 81.6268 28.2983 81.2046 27.8366C80.7841 27.374 80.5726 26.5982 80.5726 25.5083V21.155H79.3281V19.715H80.5726V18.1337L82.4339 17.5649V19.715H84.5228V21.1568Z" fill="white"/>
<path d="M93.9465 23.9635C93.9465 25.291 93.5714 26.3809 92.8229 27.2332C92.038 28.1107 90.9962 28.5481 89.6976 28.5481C88.446 28.5481 87.4496 28.1278 86.7065 27.2872C85.9634 26.4466 85.5918 25.3855 85.5918 24.1066C85.5918 22.7683 85.974 21.6721 86.7411 20.8198C87.5065 19.9666 88.5394 19.54 89.838 19.54C91.0896 19.54 92.0967 19.9603 92.8567 20.8018C93.5838 21.6181 93.9465 22.672 93.9465 23.9635ZM91.9802 24.0256C91.9802 23.2291 91.8122 22.546 91.4718 21.9763C91.0745 21.2869 90.5065 20.9431 89.7705 20.9431C89.0087 20.9431 88.43 21.2878 88.0327 21.9763C87.6922 22.5469 87.5242 23.2408 87.5242 24.0616C87.5242 24.8581 87.6922 25.5412 88.0327 26.11C88.4425 26.7994 89.0149 27.1432 89.7536 27.1432C90.4771 27.1432 91.0451 26.7922 91.4549 26.092C91.8042 25.5115 91.9802 24.8212 91.9802 24.0256Z" fill="white"/>
<path d="M100.108 21.4044C99.92 21.3693 99.72 21.3513 99.5102 21.3513C98.8435 21.3513 98.328 21.6059 97.9653 22.1163C97.6497 22.5663 97.4915 23.1351 97.4915 23.8218V28.3533H95.5973L95.6151 22.4367C95.6151 21.4413 95.5911 20.535 95.5439 19.7178H97.1946L97.264 21.3702H97.3164C97.5164 20.8023 97.832 20.3451 98.264 20.0022C98.6862 19.6935 99.1422 19.5396 99.6337 19.5396C99.8089 19.5396 99.9671 19.5522 100.108 19.5747V21.4044Z" fill="white"/>
<path d="M108.582 23.6265C108.582 23.9703 108.56 24.2601 108.513 24.4968H102.828C102.85 25.35 103.125 26.0025 103.653 26.4525C104.132 26.8548 104.751 27.0564 105.512 27.0564C106.354 27.0564 107.122 26.9205 107.813 26.6478L108.11 27.9798C107.302 28.3362 106.35 28.5135 105.25 28.5135C103.927 28.5135 102.889 28.1193 102.134 27.3318C101.38 26.5443 101.002 25.4868 101.002 24.1602C101.002 22.8579 101.353 21.7734 102.056 20.9085C102.792 19.9851 103.787 19.5234 105.038 19.5234C106.268 19.5234 107.198 19.9851 107.83 20.9085C108.331 21.642 108.582 22.5492 108.582 23.6265ZM106.775 23.1288C106.788 22.56 106.664 22.0686 106.407 21.6537C106.079 21.12 105.575 20.8536 104.897 20.8536C104.278 20.8536 103.774 21.1137 103.389 21.6357C103.073 22.0506 102.886 22.5483 102.828 23.1279H106.775V23.1288Z" fill="white"/>
<path d="M43.6001 9.00832C43.6001 10.0676 43.2864 10.865 42.6597 11.4005C42.0792 11.8946 41.2544 12.1421 40.1859 12.1421C39.6561 12.1421 39.2028 12.1187 38.8232 12.0719V6.28402C39.3184 6.20302 39.8517 6.16162 40.4277 6.16162C41.4455 6.16162 42.2126 6.38572 42.7299 6.83392C43.3095 7.34062 43.6001 8.06512 43.6001 9.00832ZM42.6179 9.03442C42.6179 8.34772 42.4384 7.82122 42.0792 7.45402C41.7201 7.08772 41.1957 6.90412 40.505 6.90412C40.2117 6.90412 39.9619 6.92392 39.7548 6.96532V11.3654C39.8695 11.3834 40.0792 11.3915 40.3841 11.3915C41.097 11.3915 41.6472 11.1908 42.0348 10.7894C42.4224 10.388 42.6179 9.80302 42.6179 9.03442Z" fill="white"/>
<path d="M48.8081 9.93334C48.8081 10.5858 48.6241 11.1204 48.2561 11.5398C47.8703 11.9709 47.3592 12.186 46.721 12.186C46.1059 12.186 45.6161 11.9799 45.2508 11.5659C44.8863 11.1528 44.7041 10.6317 44.7041 10.0035C44.7041 9.34654 44.8917 8.80744 45.2685 8.38894C45.6454 7.97044 46.1521 7.76074 46.7903 7.76074C47.4054 7.76074 47.8997 7.96684 48.2739 8.37994C48.6294 8.78134 48.8081 9.29974 48.8081 9.93334ZM47.8419 9.96394C47.8419 9.57244 47.7583 9.23674 47.5921 8.95684C47.3965 8.61844 47.1183 8.44924 46.7565 8.44924C46.3823 8.44924 46.0979 8.61844 45.9023 8.95684C45.7352 9.23674 45.6525 9.57784 45.6525 9.98104C45.6525 10.3725 45.7361 10.7082 45.9023 10.9881C46.1041 11.3265 46.385 11.4957 46.7477 11.4957C47.1032 11.4957 47.3823 11.3238 47.5832 10.9791C47.7557 10.6938 47.8419 10.3554 47.8419 9.96394Z" fill="white"/>
<path d="M55.7918 7.84766L54.4807 12.0903H53.6274L53.0843 10.248C52.9465 9.78806 52.8345 9.33086 52.7474 8.87726H52.7305C52.6496 9.34346 52.5376 9.79976 52.3936 10.248L51.8167 12.0903H50.9536L49.7207 7.84766H50.678L51.1518 9.86456C51.2665 10.3416 51.3607 10.7961 51.4363 11.2263H51.4531C51.5225 10.8717 51.6371 10.4199 51.7989 9.87356L52.3936 7.84856H53.1527L53.7225 9.83036C53.8603 10.3137 53.9723 10.779 54.0585 11.2272H54.0843C54.1474 10.7907 54.2425 10.3254 54.3687 9.83036L54.8771 7.84856H55.7918V7.84766Z" fill="white"/>
<path d="M60.6201 12.09H59.6886V9.66C59.6886 8.9112 59.4077 8.5368 58.8441 8.5368C58.5677 8.5368 58.3446 8.6394 58.1713 8.8455C57.9997 9.0516 57.9126 9.2946 57.9126 9.5727V12.0891H56.981V9.0597C56.981 8.6871 56.9695 8.283 56.9473 7.8456H57.7659L57.8095 8.5089H57.8353C57.9437 8.3028 58.1055 8.1327 58.3179 7.9968C58.5704 7.8384 58.853 7.7583 59.1624 7.7583C59.5535 7.7583 59.8788 7.8861 60.1375 8.1426C60.4593 8.4567 60.6201 8.9256 60.6201 9.5484V12.09Z" fill="white"/>
<path d="M63.1894 12.0899H62.2588V5.90063H63.1894V12.0899Z" fill="white"/>
<path d="M68.6743 9.93334C68.6743 10.5858 68.4903 11.1204 68.1223 11.5398C67.7365 11.9709 67.2245 12.186 66.5872 12.186C65.9712 12.186 65.4814 11.9799 65.117 11.5659C64.7525 11.1528 64.5703 10.6317 64.5703 10.0035C64.5703 9.34654 64.7579 8.80744 65.1348 8.38894C65.5116 7.97044 66.0183 7.76074 66.6556 7.76074C67.2716 7.76074 67.765 7.96684 68.1401 8.37994C68.4956 8.78134 68.6743 9.29974 68.6743 9.93334ZM67.7072 9.96394C67.7072 9.57244 67.6236 9.23674 67.4574 8.95684C67.2628 8.61844 66.9836 8.44924 66.6228 8.44924C66.2476 8.44924 65.9632 8.61844 65.7685 8.95684C65.6014 9.23674 65.5188 9.57784 65.5188 9.98104C65.5188 10.3725 65.6023 10.7082 65.7685 10.9881C65.9703 11.3265 66.2512 11.4957 66.6139 11.4957C66.9694 11.4957 67.2476 11.3238 67.4485 10.9791C67.6219 10.6938 67.7072 10.3554 67.7072 9.96394Z" fill="white"/>
<path d="M73.1822 12.0897H72.3457L72.2764 11.601H72.2506C71.9644 11.9907 71.5564 12.186 71.0266 12.186C70.6311 12.186 70.3111 12.0573 70.0702 11.8017C69.8515 11.5695 69.7422 11.2806 69.7422 10.9377C69.7422 10.4193 69.9555 10.0242 70.3849 9.75064C70.8133 9.47704 71.416 9.34294 72.192 9.34924V9.27004C72.192 8.71114 71.9022 8.43214 71.3217 8.43214C70.9084 8.43214 70.544 8.53744 70.2293 8.74624L70.04 8.12704C70.4293 7.88314 70.9102 7.76074 71.4773 7.76074C72.5724 7.76074 73.1217 8.34574 73.1217 9.51574V11.0781C73.1217 11.502 73.1422 11.8395 73.1822 12.0897ZM72.2151 10.6317V9.97744C71.1875 9.95944 70.6737 10.2447 70.6737 10.8324C70.6737 11.0538 70.7324 11.2194 70.8524 11.3301C70.9724 11.4408 71.1253 11.4957 71.3075 11.4957C71.512 11.4957 71.7031 11.43 71.8773 11.2995C72.0524 11.1681 72.16 11.0016 72.2 10.7973C72.2097 10.7514 72.2151 10.6956 72.2151 10.6317Z" fill="white"/>
<path d="M78.4756 12.0899H77.6489L77.6054 11.4086H77.5796C77.3156 11.927 76.8658 12.1862 76.2338 12.1862C75.7289 12.1862 75.3085 11.9855 74.9751 11.5841C74.6418 11.1827 74.4756 10.6616 74.4756 10.0217C74.4756 9.33503 74.656 8.77883 75.0187 8.35403C75.3698 7.95803 75.8 7.76003 76.312 7.76003C76.8747 7.76003 77.2685 7.95173 77.4925 8.33603H77.5102V5.90063H78.4427V10.9469C78.4427 11.36 78.4534 11.7407 78.4756 12.0899ZM77.5102 10.3007V9.59333C77.5102 9.47093 77.5014 9.37193 77.4845 9.29633C77.432 9.06953 77.3191 8.87873 77.1476 8.72483C76.9742 8.57093 76.7654 8.49353 76.5245 8.49353C76.1769 8.49353 75.9049 8.63303 75.7049 8.91293C75.5067 9.19283 75.4062 9.55013 75.4062 9.98663C75.4062 10.406 75.5014 10.7462 75.6925 11.0081C75.8942 11.2871 76.1662 11.4266 76.5067 11.4266C76.8125 11.4266 77.0569 11.3105 77.2427 11.0774C77.4222 10.8623 77.5102 10.6031 77.5102 10.3007Z" fill="white"/>
<path d="M86.4429 9.93334C86.4429 10.5858 86.2589 11.1204 85.8909 11.5398C85.5051 11.9709 84.9949 12.186 84.3558 12.186C83.7415 12.186 83.2518 11.9799 82.8855 11.5659C82.5211 11.1528 82.3389 10.6317 82.3389 10.0035C82.3389 9.34654 82.5264 8.80744 82.9033 8.38894C83.2802 7.97044 83.7869 7.76074 84.426 7.76074C85.0402 7.76074 85.5353 7.96684 85.9086 8.37994C86.2642 8.78134 86.4429 9.29974 86.4429 9.93334ZM85.4775 9.96394C85.4775 9.57244 85.394 9.23674 85.2278 8.95684C85.0313 8.61844 84.754 8.44924 84.3913 8.44924C84.018 8.44924 83.7335 8.61844 83.5371 8.95684C83.37 9.23674 83.2873 9.57784 83.2873 9.98104C83.2873 10.3725 83.3709 10.7082 83.5371 10.9881C83.7389 11.3265 84.0198 11.4957 84.3824 11.4957C84.738 11.4957 85.018 11.3238 85.2189 10.9791C85.3904 10.6938 85.4775 10.3554 85.4775 9.96394Z" fill="white"/>
<path d="M91.4513 12.09H90.5206V9.66C90.5206 8.9112 90.2397 8.5368 89.6753 8.5368C89.3989 8.5368 89.1757 8.6394 89.0033 8.8455C88.8308 9.0516 88.7446 9.2946 88.7446 9.5727V12.0891H87.8122V9.0597C87.8122 8.6871 87.8015 8.283 87.7793 7.8456H88.5971L88.6406 8.5089H88.6664C88.7757 8.3028 88.9375 8.1327 89.1491 7.9968C89.4024 7.8384 89.6842 7.7583 89.9944 7.7583C90.3846 7.7583 90.71 7.8861 90.9686 8.1426C91.2913 8.4567 91.4513 8.9256 91.4513 9.5484V12.09Z" fill="white"/>
<path d="M97.7209 8.55412H96.6952V10.6151C96.6952 11.1389 96.8774 11.4008 97.2383 11.4008C97.4054 11.4008 97.5441 11.3864 97.6534 11.3567L97.6774 12.0722C97.4934 12.1424 97.2516 12.1775 96.9538 12.1775C96.5858 12.1775 96.2996 12.0641 96.0925 11.8373C95.8845 11.6105 95.7814 11.2289 95.7814 10.6934V8.55412H95.1689V7.84762H95.7814V7.07002L96.6943 6.79102V7.84672H97.72V8.55412H97.7209Z" fill="white"/>
<path d="M102.653 12.0899H101.72V9.67793C101.72 8.91743 101.439 8.53673 100.877 8.53673C100.445 8.53673 100.15 8.75723 99.9879 9.19824C99.9603 9.29094 99.9443 9.40433 99.9443 9.53753V12.089H99.0137V5.90063H99.9443V8.45754H99.9621C100.255 7.99223 100.676 7.76003 101.221 7.76003C101.607 7.76003 101.926 7.88783 102.179 8.14433C102.495 8.46383 102.653 8.93903 102.653 9.56723V12.0899Z" fill="white"/>
<path d="M107.74 9.76778C107.74 9.93698 107.728 10.0792 107.705 10.1953H104.912C104.924 10.6147 105.057 10.9342 105.316 11.1556C105.552 11.3536 105.857 11.4526 106.231 11.4526C106.644 11.4526 107.021 11.386 107.36 11.2519L107.506 11.9071C107.109 12.0817 106.641 12.169 106.1 12.169C105.451 12.169 104.94 11.9755 104.57 11.5885C104.199 11.2015 104.015 10.6822 104.015 10.0306C104.015 9.39069 104.186 8.85789 104.532 8.43309C104.893 7.97949 105.381 7.75269 105.997 7.75269C106.6 7.75269 107.057 7.97949 107.367 8.43309C107.616 8.79308 107.74 9.23858 107.74 9.76778ZM106.851 9.52388C106.858 9.24398 106.797 9.00279 106.671 8.79939C106.509 8.53749 106.263 8.40609 105.929 8.40609C105.625 8.40609 105.377 8.53389 105.188 8.79039C105.033 8.99469 104.942 9.23858 104.912 9.52388H106.851Z" fill="white"/>
</svg>
