<svg width="120" height="36" viewBox="0 0 120 36" fill="none" xmlns="http://www.w3.org/2000/svg">
<path d="M115.556 36H4.44444C2.00111 36 0 33.9739 0 31.5V4.5C0 2.02613 2.00111 4.26466e-06 4.44444 4.26466e-06H115.556C117.999 4.26466e-06 120 2.02613 120 4.5V31.5C120 33.9739 117.999 36 115.556 36Z" fill="black"/>
<path d="M115.556 0.721127C117.613 0.721127 119.288 2.4165 119.288 4.5V31.5C119.288 33.5835 117.613 35.2789 115.556 35.2789H4.44444C2.38667 35.2789 0.712222 33.5835 0.712222 31.5V4.5C0.712222 2.4165 2.38667 0.721127 4.44444 0.721127H115.556ZM115.556 4.26466e-06H4.44444C2.00111 4.26466e-06 0 2.02613 0 4.5V31.5C0 33.9739 2.00111 36 4.44444 36H115.556C117.999 36 120 33.9739 120 31.5V4.5C120 2.02613 117.999 4.26466e-06 115.556 4.26466e-06Z" fill="#A6A6A6"/>
<path d="M42.1499 9.21934C42.1499 9.97084 41.9277 10.5727 41.4899 11.0216C40.9866 11.5537 40.331 11.8215 39.5277 11.8215C38.7599 11.8215 38.1043 11.5492 37.5666 11.0126C37.0277 10.4681 36.7588 9.79984 36.7588 8.99997C36.7588 8.20009 37.0277 7.53184 37.5666 6.99184C38.1043 6.45072 38.7599 6.17847 39.5277 6.17847C39.9099 6.17847 40.2743 6.25834 40.6221 6.40684C40.9688 6.55647 41.251 6.75897 41.4555 7.00872L40.991 7.48347C40.6343 7.05709 40.1488 6.84672 39.5277 6.84672C38.9677 6.84672 38.4821 7.04472 38.0699 7.44409C37.6621 7.84459 37.4577 8.36322 37.4577 8.99997C37.4577 9.63672 37.6621 10.1598 38.0699 10.5603C38.4821 10.9552 38.9677 11.1577 39.5277 11.1577C40.1221 11.1577 40.6221 10.9552 41.0166 10.5558C41.2766 10.2915 41.4243 9.92697 41.4632 9.46122H39.5277V8.81097H42.1099C42.141 8.95159 42.1499 9.08772 42.1499 9.21934Z" fill="white" stroke="white" stroke-width="0.16" stroke-miterlimit="10"/>
<path d="M46.246 6.96463H43.8205V8.67463H46.0071V9.32488H43.8205V11.0349H46.246V11.6975H43.1338V6.302H46.246V6.96463Z" fill="white" stroke="white" stroke-width="0.16" stroke-miterlimit="10"/>
<path d="M49.1364 11.6975H48.4497V6.96463H46.9619V6.302H50.6252V6.96463H49.1364V11.6975Z" fill="white" stroke="white" stroke-width="0.16" stroke-miterlimit="10"/>
<path d="M53.2764 11.6975V6.302H53.9619V11.6975H53.2764Z" fill="white" stroke="white" stroke-width="0.16" stroke-miterlimit="10"/>
<path d="M57.0006 11.6975H56.3195V6.96463H54.8262V6.302H58.4939V6.96463H57.0006V11.6975Z" fill="white" stroke="white" stroke-width="0.16" stroke-miterlimit="10"/>
<path d="M65.4301 11.0036C64.9045 11.5492 64.2534 11.8215 63.4767 11.8215C62.6956 11.8215 62.0445 11.5492 61.519 11.0036C60.9945 10.4591 60.7334 9.79084 60.7334 8.99997C60.7334 8.20909 60.9945 7.54084 61.519 6.99634C62.0445 6.45072 62.6956 6.17847 63.4767 6.17847C64.249 6.17847 64.9001 6.45072 65.4256 7.00084C65.9545 7.54984 66.2156 8.21359 66.2156 8.99997C66.2156 9.79084 65.9545 10.4591 65.4301 11.0036ZM62.0267 10.5513C62.4223 10.9552 62.9034 11.1577 63.4767 11.1577C64.0456 11.1577 64.5312 10.9552 64.9223 10.5513C65.3167 10.1475 65.5167 9.62884 65.5167 8.99997C65.5167 8.37109 65.3167 7.85247 64.9223 7.44859C64.5312 7.04472 64.0456 6.84222 63.4767 6.84222C62.9034 6.84222 62.4223 7.04472 62.0267 7.44859C61.6323 7.85247 61.4323 8.37109 61.4323 8.99997C61.4323 9.62884 61.6323 10.1475 62.0267 10.5513Z" fill="white" stroke="white" stroke-width="0.16" stroke-miterlimit="10"/>
<path d="M67.1787 11.6975V6.302H68.012L70.6032 10.4983H70.6332L70.6032 9.461V6.302H71.2887V11.6975H70.5732L67.8598 7.29425H67.8298L67.8598 8.336V11.6975H67.1787Z" fill="white" stroke="white" stroke-width="0.16" stroke-miterlimit="10"/>
<path d="M60.5639 19.5774C58.4761 19.5774 56.7706 21.1862 56.7706 23.4058C56.7706 25.6074 58.4761 27.233 60.5639 27.233C62.6561 27.233 64.3617 25.6074 64.3617 23.4058C64.3617 21.1862 62.6561 19.5774 60.5639 19.5774ZM60.5639 25.7255C59.4184 25.7255 58.4328 24.7682 58.4328 23.4058C58.4328 22.0254 59.4184 21.0849 60.5639 21.0849C61.7095 21.0849 62.6995 22.0254 62.6995 23.4058C62.6995 24.7682 61.7095 25.7255 60.5639 25.7255ZM52.2873 19.5774C50.195 19.5774 48.4939 21.1862 48.4939 23.4058C48.4939 25.6074 50.195 27.233 52.2873 27.233C54.3784 27.233 56.0806 25.6074 56.0806 23.4058C56.0806 21.1862 54.3784 19.5774 52.2873 19.5774ZM52.2873 25.7255C51.1406 25.7255 50.1517 24.7682 50.1517 23.4058C50.1517 22.0254 51.1406 21.0849 52.2873 21.0849C53.4328 21.0849 54.4184 22.0254 54.4184 23.4058C54.4184 24.7682 53.4328 25.7255 52.2873 25.7255ZM42.4384 20.7508V22.3775H46.275C46.1628 23.2865 45.8628 23.9548 45.4028 24.4205C44.8428 24.983 43.9706 25.6074 42.4384 25.6074C40.0773 25.6074 38.2284 23.678 38.2284 21.2874C38.2284 18.8968 40.0773 16.9674 42.4384 16.9674C43.715 16.9674 44.6439 17.4726 45.3295 18.1273L46.4617 16.9809C45.5028 16.0539 44.2273 15.3418 42.4384 15.3418C39.2006 15.3418 36.4795 18.0092 36.4795 21.2874C36.4795 24.5657 39.2006 27.233 42.4384 27.233C44.1884 27.233 45.5028 26.6525 46.5362 25.5635C47.595 24.4914 47.925 22.9839 47.925 21.7667C47.925 21.3887 47.8939 21.041 47.8384 20.7508H42.4384ZM82.7117 22.0119C82.3995 21.1558 81.4361 19.5774 79.4739 19.5774C77.5295 19.5774 75.9106 21.1288 75.9106 23.4058C75.9106 25.55 77.5128 27.233 79.6606 27.233C81.3973 27.233 82.3995 26.1609 82.8117 25.5365L81.5228 24.6669C81.0928 25.3037 80.5073 25.7255 79.6606 25.7255C78.8195 25.7255 78.2161 25.3352 77.8295 24.5657L82.8861 22.4473L82.7117 22.0119ZM77.5561 23.2865C77.5128 21.8105 78.6884 21.0545 79.5306 21.0545C80.1906 21.0545 80.7506 21.3887 80.9373 21.8668L77.5561 23.2865ZM73.4461 27.0002H75.1084V15.7502H73.4461V27.0002ZM70.7239 20.4302H70.6684C70.295 19.9824 69.5828 19.5774 68.6806 19.5774C66.7873 19.5774 65.0562 21.2604 65.0562 23.4182C65.0562 25.5635 66.7873 27.233 68.6806 27.233C69.5828 27.233 70.295 26.8247 70.6684 26.3634H70.7239V26.9124C70.7239 28.376 69.9517 29.1624 68.7061 29.1624C67.6906 29.1624 67.0606 28.4199 66.8006 27.7955L65.355 28.4064C65.7717 29.4212 66.875 30.6699 68.7061 30.6699C70.655 30.6699 72.2995 29.5089 72.2995 26.684V19.8103H70.7239V20.4302ZM68.8228 25.7255C67.6773 25.7255 66.7184 24.7547 66.7184 23.4182C66.7184 22.0693 67.6773 21.0849 68.8228 21.0849C69.9517 21.0849 70.8417 22.0693 70.8417 23.4182C70.8417 24.7547 69.9517 25.7255 68.8228 25.7255ZM90.4939 15.7502H86.5184V27.0002H88.1761V22.7375H90.4939C92.335 22.7375 94.1406 21.3887 94.1406 19.2433C94.1406 17.099 92.3306 15.7502 90.4939 15.7502ZM90.5372 21.1727H88.1761V17.3151H90.5372C91.775 17.3151 92.4817 18.3557 92.4817 19.2433C92.4817 20.114 91.775 21.1727 90.5372 21.1727ZM100.785 19.556C99.5872 19.556 98.3417 20.0915 97.8295 21.2784L99.3006 21.9028C99.6172 21.2784 100.199 21.0759 100.815 21.0759C101.675 21.0759 102.547 21.599 102.561 22.5227V22.6408C102.261 22.4653 101.618 22.2054 100.828 22.2054C99.2439 22.2054 97.6295 23.0885 97.6295 24.7367C97.6295 26.2442 98.9272 27.215 100.386 27.215C101.502 27.215 102.117 26.7054 102.504 26.1125H102.561V26.9822H104.162V22.6667C104.162 20.6721 102.691 19.556 100.785 19.556ZM100.585 25.721C100.043 25.721 99.2872 25.4488 99.2872 24.7682C99.2872 23.8974 100.229 23.5633 101.045 23.5633C101.775 23.5633 102.117 23.7264 102.561 23.9413C102.431 24.983 101.545 25.721 100.585 25.721ZM109.995 19.8024L108.089 24.6793H108.033L106.063 19.8024H104.275L107.235 26.6177L105.546 30.41H107.278L111.839 19.8024H109.995ZM95.0517 27.0002H96.7139V15.7502H95.0517V27.0002Z" fill="white"/>
<path d="M9.2755 6.78452C9.01439 7.06128 8.86328 7.49215 8.86328 8.05015V27.9537C8.86328 28.5117 9.01439 28.9425 9.2755 29.2193L9.33995 29.28L20.3555 18.1313V17.868L9.33995 6.71928L9.2755 6.78452Z" fill="url(#paint0_linear_3313_14112)"/>
<path d="M24.0232 21.8496L20.3555 18.1315V17.8682L24.0277 14.1501L24.1099 14.1985L28.4588 16.7039C29.6999 17.4149 29.6999 18.5849 28.4588 19.3004L24.1099 21.8012L24.0232 21.8496Z" fill="url(#paint1_linear_3313_14112)"/>
<path d="M24.1098 21.801L20.3554 17.9996L9.27539 29.2192C9.68761 29.658 10.3598 29.7109 11.1243 29.2721L24.1098 21.801Z" fill="url(#paint2_linear_3313_14112)"/>
<path d="M24.1098 14.1986L11.1243 6.7275C10.3598 6.29325 9.68761 6.34612 9.27539 6.78487L20.3554 18L24.1098 14.1986Z" fill="url(#paint3_linear_3313_14112)"/>
<defs>
<linearGradient id="paint0_linear_3313_14112" x1="19.3775" y1="28.1609" x2="4.27446" y2="13.2444" gradientUnits="userSpaceOnUse">
<stop stop-color="#00A0FF"/>
<stop offset="0.0066" stop-color="#00A1FF"/>
<stop offset="0.2601" stop-color="#00BEFF"/>
<stop offset="0.5122" stop-color="#00D2FF"/>
<stop offset="0.7604" stop-color="#00DFFF"/>
<stop offset="1" stop-color="#00E3FF"/>
</linearGradient>
<linearGradient id="paint1_linear_3313_14112" x1="30.0749" y1="17.9986" x2="8.56658" y2="17.9986" gradientUnits="userSpaceOnUse">
<stop stop-color="#FFE000"/>
<stop offset="0.4087" stop-color="#FFBD00"/>
<stop offset="0.7754" stop-color="#FFA500"/>
<stop offset="1" stop-color="#FF9C00"/>
</linearGradient>
<linearGradient id="paint2_linear_3313_14112" x1="22.0683" y1="15.9331" x2="1.58739" y2="-4.29492" gradientUnits="userSpaceOnUse">
<stop stop-color="#FF3A44"/>
<stop offset="1" stop-color="#C31162"/>
</linearGradient>
<linearGradient id="paint3_linear_3313_14112" x1="6.48632" y1="35.8414" x2="15.632" y2="26.8088" gradientUnits="userSpaceOnUse">
<stop stop-color="#32A071"/>
<stop offset="0.0685" stop-color="#2DA771"/>
<stop offset="0.4762" stop-color="#15CF74"/>
<stop offset="0.8009" stop-color="#06E775"/>
<stop offset="1" stop-color="#00F076"/>
</linearGradient>
</defs>
</svg>
