<svg width="96" height="33" viewBox="0 0 96 33" fill="none" xmlns="http://www.w3.org/2000/svg">
<path d="M43.0205 7.29221C43.8732 7.59695 44.5596 8.04637 45.0767 8.64353C45.597 9.2407 45.9294 9.97022 46.0772 10.8352C46.2249 11.7002 46.1695 12.6882 45.914 13.8025L45.8247 14.0365C45.5693 14.8799 45.2307 15.6341 44.812 16.2989C44.3903 16.9669 43.8362 17.5333 43.1498 18.0043C42.4634 18.4752 41.6261 18.8477 40.6349 19.1216C39.6438 19.3956 38.4648 19.5526 37.092 19.5926L39.1482 13.4486C39.3052 13.0976 39.3113 12.796 39.1636 12.5528C39.0158 12.3096 38.7665 12.1865 38.4125 12.1865C37.9231 12.1865 37.5691 12.2789 37.3536 12.4666C37.1381 12.6544 36.9319 13.0022 36.7349 13.5101L34.0015 20.476C33.786 21.0824 33.7522 21.4764 33.8999 21.6519C34.0477 21.8273 34.2878 21.9166 34.6202 21.9166C35.5621 21.9166 36.5841 21.9074 37.6922 21.8858C38.8004 21.8674 39.9023 21.7196 40.9982 21.4456H41.0567C41.0751 21.4456 41.0874 21.4395 41.0874 21.4303C41.0874 21.421 41.0967 21.4149 41.1182 21.4149C41.2937 21.3748 41.4968 21.3471 41.7215 21.3256C41.9462 21.3071 42.1463 21.3164 42.3249 21.3564C42.5003 21.3964 42.6296 21.4703 42.7066 21.578C42.7835 21.6857 42.7743 21.8581 42.6758 22.0921C42.6758 22.1321 42.6604 22.1752 42.6327 22.2244C42.6019 22.2737 42.5896 22.3075 42.5896 22.3291C42.1002 23.2679 41.6046 24.0252 41.1059 24.5915C40.6072 25.161 40.0624 25.595 39.4745 25.8998C38.8865 26.2045 38.234 26.4046 37.5198 26.5031C36.8057 26.6016 35.9869 26.6508 35.0665 26.6508H32.0961C31.2527 26.6508 30.4493 26.5277 29.6859 26.2845C28.9225 26.0414 28.3038 25.6227 27.8328 25.0348C27.3619 24.4469 27.0971 23.6681 27.0387 22.6985C26.9802 21.7288 27.2357 20.5191 27.802 19.0693C27.9775 18.6199 28.1745 18.0997 28.39 17.5117C28.587 17.0038 28.8271 16.3851 29.1103 15.6587C29.3935 14.9353 29.7321 14.0919 30.123 13.1315C30.8679 11.2292 31.9637 9.7055 33.4166 8.56042C34.8665 7.41534 36.6302 6.83972 38.708 6.83972H40.0008C41.1582 6.83972 42.1617 6.99055 43.0144 7.29529L43.0205 7.29221Z" fill="currentColor"/>
<path d="M58.7038 26.3245C58.2513 27.3649 57.7619 28.2545 57.2355 28.9994C56.7061 29.7443 56.1612 30.3661 55.6041 30.8648C55.0469 31.3634 54.4775 31.7605 53.8988 32.056C53.3201 32.3515 52.766 32.5639 52.2366 32.7024C51.0022 33.0564 49.7371 33.0934 48.4443 32.8194L52.2058 26.6477H49.7648C48.9214 26.6477 48.1149 26.5245 47.3392 26.2814C46.5635 26.0382 45.9417 25.6196 45.4738 25.0316C45.0029 24.4437 44.7381 23.6649 44.6797 22.6953C44.6212 21.7257 44.8859 20.516 45.4738 19.0661C45.6123 18.6937 45.7878 18.232 46.0033 17.684C46.1787 17.2346 46.4004 16.6559 46.6651 15.951C46.9298 15.2461 47.2561 14.4243 47.6501 13.4823C48.395 11.5831 49.4908 10.0594 50.9437 8.91125C52.3936 7.76617 54.1574 7.19055 56.2351 7.19055H66.2884L58.7038 26.3275V26.3245ZM51.7933 20.1527C51.4978 20.8976 51.4116 21.3778 51.5286 21.5933C51.6456 21.8088 51.8918 21.9165 52.2643 21.9165C52.6952 21.9165 53.0523 21.8242 53.3386 21.6364C53.6217 21.4486 53.8618 21.1131 54.0588 20.6237L56.6753 13.8025C56.8323 13.4485 56.8384 13.1499 56.6907 12.9067C56.5429 12.6635 56.2936 12.5404 55.9396 12.5404C55.4502 12.5404 55.1024 12.6328 54.8961 12.8205C54.6899 13.0083 54.4806 13.3469 54.2651 13.8332L51.7964 20.1527H51.7933Z" fill="currentColor"/>
<path d="M76.6496 24.4037C76.1786 25.5642 75.0489 26.3245 73.7961 26.3245H67.7567C66.9133 26.3245 66.1099 26.2014 65.3465 25.9582C64.5831 25.715 63.9706 25.2964 63.5088 24.7085C63.0471 24.1205 62.7885 23.3356 62.7301 22.3567C62.6716 21.3779 62.9363 20.162 63.5242 18.7122C63.6227 18.4167 63.7705 18.0165 63.9644 17.5055C64.1214 17.0931 64.3276 16.5544 64.5831 15.8895C64.8386 15.2246 65.1618 14.4181 65.5527 13.4793C66.2977 11.5801 67.3935 10.0564 68.8464 8.9082C70.2962 7.76312 72.06 7.1875 74.1378 7.1875H74.344C75.4398 7.1875 76.4218 7.42144 77.2837 7.8924C77.4807 7.67693 77.7084 7.50455 77.9732 7.37835C78.2379 7.25214 78.5549 7.1875 78.9274 7.1875H83.6308L76.6496 24.4037ZM69.8437 19.8234C69.5297 20.5714 69.4374 21.0516 69.5636 21.2701C69.6898 21.4856 69.9422 21.5933 70.3147 21.5933C70.9426 21.5933 71.4228 21.3779 71.7553 20.9439L73.6083 16.3728L74.5779 13.8056C74.7349 13.4516 74.738 13.153 74.5933 12.9067C74.4456 12.6605 74.1963 12.5374 73.8423 12.5374C73.3528 12.5374 73.005 12.6297 72.7988 12.8175C72.5925 13.0052 72.3832 13.3438 72.1677 13.8333L69.8468 19.8203L69.8437 19.8234Z" fill="currentColor"/>
<path d="M28.5254 26.2784C26.3922 25.9459 24.7547 24.1144 24.7547 21.8889C24.7547 21.4056 24.8316 20.9439 24.9732 20.5068C24.9886 20.4575 31.3881 4.72192 31.3881 4.72192H26.2383C25.8474 4.72192 25.4349 4.83889 25.004 5.07591C24.573 5.31293 24.2191 5.55611 23.9451 5.8116L16.2097 13.1653L14.2673 6.31026C14.1504 5.8393 13.9349 5.45761 13.6209 5.1621C13.3069 4.8666 12.8945 4.72192 12.3866 4.72192H8.79741L0 26.3399H4.29713C5.52224 26.3399 6.6273 25.5981 7.08903 24.4622L10.6782 15.631L12.2665 22.249C12.325 22.523 12.5005 22.7046 12.796 22.7939C13.0915 22.8831 13.3654 22.8 13.6209 22.5445L20.6515 15.631L20.6607 15.6617L18.9585 19.8327C17.6903 22.9385 19.9743 26.3368 23.3264 26.3399L28.5316 26.3461L28.5254 26.3091C28.5254 26.3091 28.5254 26.2907 28.5254 26.2784Z" fill="currentColor"/>
<path d="M86.6536 18.2136C88.7463 18.2136 90.4428 16.5171 90.4428 14.4244C90.4428 12.3316 88.7463 10.6351 86.6536 10.6351C84.5609 10.6351 82.8644 12.3316 82.8644 14.4244C82.8644 16.5171 84.5609 18.2136 86.6536 18.2136Z" fill="currentColor"/>
<path d="M92.0497 10.2195C93.8143 10.2195 95.2448 8.78899 95.2448 7.02437C95.2448 5.25974 93.8143 3.82922 92.0497 3.82922C90.285 3.82922 88.8545 5.25974 88.8545 7.02437C88.8545 8.78899 90.285 10.2195 92.0497 10.2195Z" fill="currentColor"/>
<path d="M87.6325 2.7211C88.3839 2.7211 88.993 2.11196 88.993 1.36055C88.993 0.60914 88.3839 0 87.6325 0C86.8811 0 86.2719 0.60914 86.2719 1.36055C86.2719 2.11196 86.8811 2.7211 87.6325 2.7211Z" fill="currentColor"/>
</svg>
